<svg width="97" height="112" viewBox="0 0 97 112" fill="none" xmlns="http://www.w3.org/2000/svg">
<path d="M53 17.2229V30H45V17.2229C47.6571 16.9257 50.3429 16.9257 53 17.2229Z" fill="#FEC108"/>
<path d="M78 37H19C20.0053 34.5047 21.3651 32.1498 23.0421 30H73.9579C75.6349 32.1498 76.9947 34.5047 78 37Z" fill="#FEC108"/>
<path d="M88 48.6664V86H80.5714V48.6664C80.5707 44.8412 79.885 41.0474 78.5471 37.4663C74.3369 26.4145 64.4 18.6023 52.7143 17.1569C50.247 16.8582 47.753 16.8582 45.2857 17.1569C29.3911 19.0343 17.4153 32.5802 17.4286 48.6664V86H10V48.6664C9.99752 29.8249 23.3368 13.6494 41.7571 10.1568C43.7946 9.79514 45.2813 8.01773 45.2857 5.93812C45.2821 4.97258 45.625 4.03811 46.2514 3.3061C46.9073 2.51553 47.8661 2.04178 48.8895 2.00263C49.9129 1.96348 50.9048 2.36259 51.6186 3.10076C52.324 3.79229 52.7195 4.74234 52.7143 5.73278V5.93812C52.7293 8.02031 54.2214 9.79481 56.2614 10.1568C74.6748 13.6566 88.0049 29.8305 88 48.6664Z" fill="#FFDC00"/>
<path d="M76.2404 20.9462C70.5439 15.3695 63.2509 11.6079 55.3217 10.1568C53.2212 9.79481 51.685 8.02031 51.6695 5.93812V5.73278C51.6749 4.74234 51.2677 3.79229 50.5414 3.10076C49.8064 2.36259 48.7852 1.96348 47.7315 2.00263C46.6778 2.04178 45.6906 2.51553 45.0153 3.3061L45 3.32663C45.6009 3.99096 45.9327 4.84655 45.9331 5.73278V5.93812C45.9486 8.02031 47.4848 9.79481 49.5853 10.1568C68.5438 13.6566 82.2686 29.8305 82.2636 48.6664V86H88L88 48.6664C88.0146 38.2669 83.7825 28.2906 76.2404 20.9462Z" fill="#FEC108"/>
<path d="M91.28 86H5.72C3.6655 86 2 87.6118 2 89.6V91.4C2 93.3882 3.6655 95 5.72 95H91.28C93.3345 95 95 93.3882 95 91.4V89.6C95 87.6118 93.3345 86 91.28 86Z" fill="#F44335"/>
<path d="M91.4 86H86C87.9858 86.0059 89.5941 87.6142 89.6 89.6V91.4C89.5941 93.3858 87.9858 94.9941 86 95H91.4C93.3858 94.9941 94.9941 93.3858 95 91.4V89.6C94.9941 87.6142 93.3858 86.0059 91.4 86Z" fill="#C81E1E"/>
<path d="M13 110C17.4183 110 21 106.642 21 102.5C21 98.3579 17.4183 95 13 95C8.58172 95 5 98.3579 5 102.5C5 106.642 8.58172 110 13 110Z" fill="#7F8E94"/>
<path d="M13.7271 95C12.7914 95.004 11.8653 95.195 11 95.5625C13.7465 96.705 15.5449 99.4532 15.5449 102.507C15.5449 105.562 13.7465 108.31 11 109.452C13.7199 110.587 16.8348 109.925 18.8981 107.774C20.9613 105.622 21.5688 102.403 20.4384 99.6105C19.3081 96.8181 16.6612 94.9998 13.7271 95Z" fill="#545C60"/>
<path d="M84.5 110C88.6421 110 92 106.642 92 102.5C92 98.3579 88.6421 95 84.5 95C80.3579 95 77 98.3579 77 102.5C77 106.642 80.3579 110 84.5 110Z" fill="#7F8E94"/>
<path d="M83.9998 95C82.9705 95.004 81.9518 95.195 81 95.5625C84.0211 96.705 85.9994 99.4532 85.9994 102.507C85.9994 105.562 84.0211 108.31 81 109.452C83.9919 110.587 87.4183 109.925 89.6879 107.774C91.9575 105.622 92.6257 102.403 91.3823 99.6105C90.1389 96.8181 87.2274 94.9998 83.9998 95Z" fill="#545C60"/>
<path d="M67.25 54H29.75C27.6789 54 26 55.6855 26 57.7647V82.2353C26 84.3145 27.6789 86 29.75 86H67.25C69.3211 86 71 84.3145 71 82.2353V57.7647C71 55.6855 69.3211 54 67.25 54Z" fill="#FF9801"/>
<path d="M67 54H61C63.2091 54 65 55.6855 65 57.7647V82.2353C65 84.3145 63.2091 86 61 86H67C69.2091 86 71 84.3145 71 82.2353V57.7647C71 55.6855 69.2091 54 67 54Z" fill="#F57C00"/>
<path d="M52.4658 1.66851C51.3073 0.473457 49.6697 -0.131359 48.0131 0.023997C45.0747 0.347809 42.863 2.85266 42.9038 5.81058C42.889 6.98431 42.041 7.9811 40.8855 8.18308C21.4946 11.8364 7.45201 28.7893 7.46154 48.5342V84.0004H5.59615C2.50548 84.0004 0 86.5076 0 89.6003V91.467C0 94.5597 2.50548 97.0669 5.59615 97.0669H5.64465C4.41013 98.6729 3.73763 100.641 3.73077 102.667C3.73077 107.821 7.90657 112 13.0577 112C18.2088 112 22.3846 107.821 22.3846 102.667C22.3778 100.641 21.7053 98.6729 20.4707 97.0669H76.5293C75.2947 98.6729 74.6222 100.641 74.6154 102.667C74.6154 107.821 78.7912 112 83.9423 112C89.0934 112 93.2692 107.821 93.2692 102.667C93.2624 100.641 92.5899 98.6729 91.3553 97.0669H91.4038C94.4945 97.0669 97 94.5597 97 91.467V89.6003C97 86.5076 94.4945 84.0004 91.4038 84.0004H89.5385V48.5342C89.5427 28.7995 75.5133 11.8544 56.135 8.18868C54.9718 7.98795 54.1157 6.98782 54.0961 5.80685V5.60152C54.1072 4.12371 53.5189 2.70458 52.4658 1.66851ZM18.6538 102.667C18.6538 105.76 16.1484 108.267 13.0577 108.267C9.96702 108.267 7.46154 105.76 7.46154 102.667C7.46154 99.574 9.96702 97.0669 13.0577 97.0669C16.1484 97.0669 18.6538 99.574 18.6538 102.667ZM89.5385 102.667C89.5385 105.76 87.033 108.267 83.9423 108.267C80.8516 108.267 78.3462 105.76 78.3462 102.667C78.3462 99.574 80.8516 97.0669 83.9423 97.0669C87.033 97.0669 89.5385 99.574 89.5385 102.667ZM93.2692 89.6003V91.467C93.2692 92.4979 92.4341 93.3336 91.4038 93.3336H5.59615C4.56593 93.3336 3.73077 92.4979 3.73077 91.467V89.6003C3.73077 88.5694 4.56593 87.7337 5.59615 87.7337H91.4038C92.4341 87.7337 93.2692 88.5694 93.2692 89.6003ZM70.1179 28.0012H54.0961V19.2131C60.2247 20.3909 65.829 23.4649 70.1179 28.0012ZM50.3654 28.0012H46.6346V18.7632C47.2539 18.724 47.8695 18.668 48.5 18.668C49.1305 18.668 49.7461 18.724 50.3654 18.7632V28.0012ZM42.9038 28.0012H26.8821C31.171 23.4649 36.7752 20.3909 42.9038 19.2131V28.0012ZM23.8433 31.7345H73.1566C73.9594 32.9253 74.6745 34.173 75.2962 35.4678H21.7037C22.3255 34.173 23.0406 32.9253 23.8433 31.7345ZM18.6538 48.5342C18.6569 45.3623 19.1676 42.2113 20.1667 39.201H76.8333C77.8324 42.2113 78.3431 45.3623 78.3462 48.5342V84.0004H72.4068C72.6277 83.4026 72.7438 82.7711 72.75 82.1338V57.8674C72.75 54.7747 70.2445 52.2675 67.1538 52.2675H57.8269V48.5342C57.8269 45.4415 55.3214 42.9343 52.2308 42.9343H44.7692C41.6786 42.9343 39.1731 45.4415 39.1731 48.5342V52.2675H29.8462C26.7555 52.2675 24.25 54.7747 24.25 57.8674V82.1338C24.2562 82.7711 24.3723 83.4026 24.5932 84.0004H18.6538V48.5342ZM41.0385 84.0004V65.334C42.0687 65.334 42.9038 64.4983 42.9038 63.4674C42.9038 62.4364 42.0687 61.6007 41.0385 61.6007V56.0008H55.9615V61.6007C54.9313 61.6007 54.0961 62.4364 54.0961 63.4674C54.0961 64.4983 54.9313 65.334 55.9615 65.334V84.0004H41.0385ZM29.8462 84.0004C28.8159 84.0004 27.9808 83.1647 27.9808 82.1338V57.8674C27.9808 56.8365 28.8159 56.0008 29.8462 56.0008H37.3077V61.6007C36.2775 61.6007 35.4423 62.4364 35.4423 63.4674C35.4423 64.4983 36.2775 65.334 37.3077 65.334V84.0004H29.8462ZM54.0961 52.2675H42.9038V48.5342C42.9038 47.5033 43.739 46.6676 44.7692 46.6676H52.2308C53.261 46.6676 54.0961 47.5033 54.0961 48.5342V52.2675ZM59.6923 65.334C60.7225 65.334 61.5577 64.4983 61.5577 63.4674C61.5577 62.4364 60.7225 61.6007 59.6923 61.6007V56.0008H67.1538C68.1841 56.0008 69.0192 56.8365 69.0192 57.8674V82.1338C69.0192 83.1647 68.1841 84.0004 67.1538 84.0004H59.6923V65.334ZM55.4467 11.8566C73.0608 15.1917 85.8118 30.5955 85.8077 48.5342V84.0004H82.0769V48.5342C82.0687 44.5561 81.3498 40.6114 79.9541 36.8864C79.9199 36.7379 79.8672 36.5943 79.7974 36.4589C78.7122 33.657 77.2553 31.0138 75.466 28.6004C75.4492 28.5817 75.4399 28.5593 75.4231 28.5425C69.1178 19.9851 59.1248 14.9341 48.5 14.9341C37.8751 14.9341 27.8822 19.9851 21.5769 28.5425C21.5601 28.5593 21.5508 28.5817 21.534 28.6004C19.7447 31.0138 18.2878 33.657 17.2026 36.4589C17.1327 36.5943 17.0801 36.7379 17.0459 36.8864C15.6502 40.6114 14.9313 44.5561 14.9231 48.5342V84.0004H11.1923L11.1923 48.5342C11.1814 30.5858 23.9454 15.1742 41.572 11.8529C44.4922 11.3195 46.6191 8.78105 46.6346 5.81058C46.594 4.78982 47.3208 3.89914 48.3284 3.73488C48.8845 3.68879 49.432 3.89425 49.8207 4.29487C50.1743 4.63676 50.3714 5.10949 50.3654 5.60152V5.80685C50.3856 8.78355 52.5198 11.3245 55.4467 11.8566Z" fill="black"/>
</svg>
