<svg width="103" height="97" viewBox="0 0 103 97" fill="none" xmlns="http://www.w3.org/2000/svg">
<path d="M51.5 13.9479C61.8 13.9479 71.2416 18.2395 78.1084 24.8916L87.9793 15.0207C78.7522 5.79375 65.8772 0 51.5 0C37.3375 0 24.4625 5.79375 15.0209 15.0209L24.8918 24.8918C31.7584 18.025 41.2 13.9479 51.5 13.9479Z" fill="#F8B64C"/>
<path d="M24.8916 24.8915L15.0209 15.0206C5.79375 24.4624 0 37.3374 0 51.4999C0 65.6624 5.79375 78.5374 15.0209 87.979L24.8918 78.1081C18.0252 71.2415 13.9481 61.7997 13.9481 51.4997C13.9478 41.1999 18.025 31.7581 24.8916 24.8915Z" fill="#54C0EB"/>
<path d="M87.9791 15.0206L78.1084 24.8915C84.975 31.7581 89.0521 41.1999 89.0521 51.4999C89.0521 61.7999 84.7605 71.2415 78.1084 78.1083L87.9793 87.9792C97.2063 78.7519 103 65.8769 103 51.4999C103 37.3374 97.2063 24.4624 87.9791 15.0206Z" fill="#F1543F"/>
<path d="M78.1084 24.8916L68.6668 34.3332C64.1606 30.0416 58.1522 27.252 51.5002 27.252C44.8483 27.252 38.6252 30.0416 34.3336 34.3332L24.8916 24.8916C31.7584 18.025 41.2 13.9479 51.5 13.9479C61.8 13.9479 71.2416 18.025 78.1084 24.8916Z" fill="#FFD15C"/>
<path d="M34.3334 68.6666L24.8918 78.1082C18.0252 71.2416 13.948 61.7998 13.948 51.4998C13.948 41.1998 18.2396 31.7582 24.8918 24.8914L34.3334 34.333C30.0418 38.6246 27.2521 44.8476 27.2521 51.4996C27.0375 58.1519 29.8271 64.375 34.3334 68.6666Z" fill="#84DBFF"/>
<path d="M89.0522 51.5C89.0522 61.8 84.7606 71.2417 78.1084 78.1085L68.6666 68.6666C72.9582 64.1604 75.7479 58.152 75.7479 51.5C75.7479 44.8481 72.9582 38.625 68.6666 34.3334L78.1082 24.8918C84.975 31.7582 89.0522 41.2 89.0522 51.5Z" fill="#FF7058"/>
<path d="M84.5459 31.1144L56.65 52.3581C56.2209 54.9331 54.075 56.6497 51.5 56.6497C48.4959 56.6497 46.1354 54.2894 46.1354 51.2851C46.1354 48.2808 48.4957 45.9204 51.5 45.9204C52.1438 45.9204 52.5729 45.9204 53.2166 46.1351L84.5459 31.1144Z" fill="#40596B"/>
<path d="M69.9541 96.1332H33.0459C28.5396 96.1332 24.8918 92.4853 24.8918 87.979C24.8918 83.4728 28.5396 79.825 33.0459 79.825H69.7397C74.2459 79.825 77.8938 83.4728 77.8938 87.979C78.1084 92.4853 74.4604 96.1332 69.9541 96.1332Z" fill="#CDD6E0"/>
<path d="M51.5 53.6465C52.6852 53.6465 53.6459 52.6858 53.6459 51.5006C53.6459 50.3155 52.6852 49.3547 51.5 49.3547C50.3149 49.3547 49.3541 50.3155 49.3541 51.5006C49.3541 52.6858 50.3149 53.6465 51.5 53.6465Z" fill="white"/>
</svg>
