<svg width="73" height="96" viewBox="0 0 73 96" fill="none" xmlns="http://www.w3.org/2000/svg">
<path d="M0 5.60376V78.6765L16.7353 96H72.8404V5.60376H0Z" fill="#FFF2B4"/>
<path d="M72.8402 5.60376H36.4202V95.9994H72.8402V5.60376Z" fill="#FFDF8E"/>
<path d="M0 78.6259V78.6765L16.7308 95.9955V78.6259H0Z" fill="#FDDA50"/>
<path d="M51.3658 0H21.3658V16.5488H51.3658V0Z" fill="#0050C3"/>
<path d="M51.3658 0H36.4202V16.5488H51.3658V0Z" fill="#0040A0"/>
<path d="M18.1185 42.3741L9.98401 34.2488L13.9592 30.2691L16.7391 33.0456L20.7977 25.4786L25.7548 28.1372L18.1185 42.3741Z" fill="#FA502E"/>
<path d="M52.3989 26.2819H36.4202V31.9069H52.3989V26.2819Z" fill="#FABE3D"/>
<path d="M62.3102 37.5205H36.4202V43.1455H62.3102V37.5205Z" fill="#FABE3D"/>
<path d="M18.1185 69.3438L9.98401 61.2182L13.9592 57.2386L16.7391 60.0152L20.7977 52.4481L25.7548 55.1069L18.1185 69.3438Z" fill="#FA502E"/>
<path d="M52.3989 53.252H36.4202V58.877H52.3989V53.252Z" fill="#FABE3D"/>
<path d="M62.3102 64.4888H36.4202V70.1138H62.3102V64.4888Z" fill="#FABE3D"/>
<path d="M52.3989 26.2819H36.4202V31.9069H52.3989V26.2819Z" fill="#FD982C"/>
<path d="M62.3102 37.5205H36.4202V43.1455H62.3102V37.5205Z" fill="#FD982C"/>
<path d="M52.3989 53.2518H36.4202V58.8768H52.3989V53.2518Z" fill="#FD982C"/>
<path d="M62.3102 64.4886H36.4202V70.1136H62.3102V64.4886Z" fill="#FD982C"/>
</svg>
