<svg width="96" height="96" viewBox="0 0 96 96" fill="none" xmlns="http://www.w3.org/2000/svg">
<path d="M90.1431 27.2788L72.8284 9.93115V79.4485H96.0007V41.3642C96.0007 36.0762 93.8919 31.0067 90.1431 27.2788Z" fill="#FFB782"/>
<path d="M13.5337 66.7812L0.444109 32.8004C-0.869666 29.3893 0.82988 25.5576 4.24291 24.2432L66.0258 0.445086C69.4369 -0.868689 73.2687 0.830857 74.5824 4.24388L87.6721 38.2247C88.9858 41.6358 87.2863 45.4675 83.8733 46.7819L22.0923 70.58C18.6792 71.8938 14.8494 70.1923 13.5337 66.7812Z" fill="#DE4C3C"/>
<path d="M79.2997 16.4854L5.22094 45.1996L10.1536 58.0042L84.2356 29.3032L79.2997 16.4854Z" fill="#7A4930"/>
<path d="M0.000541687 43.0347V6.62082C0.000541687 2.96455 2.96509 0 6.62136 0H72.8283C76.4845 0 79.4491 2.96455 79.4491 6.62082V43.0347C79.4491 46.691 76.4845 49.6555 72.8283 49.6555H6.62136C2.96509 49.6555 0.000541687 46.691 0.000541687 43.0347Z" fill="#4398D1"/>
<path d="M72.8284 0H65.7939L16.1384 49.6555H72.8284C76.4847 49.6555 79.4492 46.691 79.4492 43.0347V6.62082C79.4492 2.96455 76.4847 0 72.8284 0Z" fill="#3E8CC7"/>
<path d="M6.62149 26.4827H13.2423V29.7931H6.62149V26.4827Z" fill="#5EB3D1"/>
<path d="M6.62149 36.4138H13.2423V39.7242H6.62149V36.4138Z" fill="#5EB3D1"/>
<path d="M36.4146 36.4138H43.0354V39.7242H36.4146V36.4138Z" fill="#5EB3D1"/>
<path d="M16.5527 26.4827H23.1729V29.7931H16.5527V26.4827Z" fill="#5EB3D1"/>
<path d="M26.4833 26.4827H33.1041V29.7931H26.4833V26.4827Z" fill="#5EB3D1"/>
<path d="M36.4146 26.4827H43.0354V29.7931H36.4146V26.4827Z" fill="#5EB3D1"/>
<path d="M67.8628 6.62073H71.1732V11.5863H67.8628V6.62073Z" fill="#5EB3D1"/>
<path d="M61.242 6.62073H64.5524V11.5863H61.242V6.62073Z" fill="#5EB3D1"/>
<path d="M54.6212 6.62073H57.9316V11.5863H54.6212V6.62073Z" fill="#5EB3D1"/>
<path d="M48.001 6.62073H51.3108V11.5863H48.001V6.62073Z" fill="#5EB3D1"/>
<path d="M66.2076 79.4485H96.0006V95.9999H66.2076V79.4485Z" fill="#88B337"/>
<path d="M61.3497 29.9008C58.5422 27.1035 53.9991 27.1118 51.2018 29.9192C48.497 32.6335 48.4032 36.9948 50.9883 39.8238L64.5524 54.6212C60.4755 61.7564 60.6497 70.555 65.0041 77.5236L66.2076 79.4487H87.7246V56.2764L61.3497 29.9008Z" fill="#FFB782"/>
<path d="M71.1732 84.4142H74.4836V87.7246H71.1732V84.4142Z" fill="#6B962A"/>
<path d="M6.62149 17.2139V9.26918C6.62149 7.80591 7.80668 6.62073 9.26994 6.62073H17.2147C18.6779 6.62073 19.8625 7.80591 19.8625 9.26918V17.2139C19.8625 18.6772 18.6779 19.8624 17.2147 19.8624H9.26994C7.80668 19.8624 6.62149 18.6772 6.62149 17.2139Z" fill="#FDB62F"/>
<path d="M6.62149 11.5864H11.5871V14.8968H6.62149V11.5864Z" fill="#FD7B2F"/>
<path d="M14.8976 11.5864H19.8625V14.8968H14.8976V11.5864Z" fill="#FD7B2F"/>
<path d="M86.0694 56.2763C85.6311 56.2763 85.2092 56.1021 84.8994 55.7911L78.2786 49.1702C77.6433 48.5133 77.6616 47.4656 78.3204 46.8296C78.9628 46.2108 79.9788 46.2108 80.6192 46.8296L87.24 53.4505C87.8855 54.0978 87.8855 55.1456 87.24 55.7911C86.9284 56.1021 86.5084 56.2763 86.0694 56.2763Z" fill="#F2A46F"/>
</svg>
