<svg width="460" height="410" viewBox="0 0 460 410" fill="none" xmlns="http://www.w3.org/2000/svg">
<path fill-rule="evenodd" clip-rule="evenodd" d="M97.1814 46.2179C90.3393 52.5842 75.5274 391.087 98.0442 402.44C146.274 426.748 283.107 355.874 285.099 344.621C287.22 332.65 306.017 46.1195 285.995 8.65434C285.213 7.1936 281.331 4.33082 280.444 3.66469C263.08 -9.29952 118.209 26.6526 97.1814 46.2179Z" fill="url(#paint0_linear)"/>
<path fill-rule="evenodd" clip-rule="evenodd" d="M281.001 2.90461C286.609 7.08856 286.891 7.75628 288.296 11.5009C304.282 55.3943 291.281 298.358 286.536 342.838C286.552 343.917 286.321 344.985 285.859 345.96C278.211 360.063 154.401 422.565 102.926 405.691C100.914 405.027 98.9607 404.195 97.0878 403.204C74.065 387.928 89.8761 55.5561 96.6865 46.0526L96.6643 46.0446C116.29 26.9108 262.761 -10.7115 281.001 2.90461ZM264.814 1.81977C235.472 1.94665 183.212 14.4366 153.633 23.2312C140.734 27.0725 107.459 37.5054 97.5081 46.5664C96.7071 48.4975 96.225 50.5458 96.0807 52.6314C91.7096 82.1316 88.7469 169.522 87.938 202.181C87.524 219.41 83.2481 392.383 98.4296 401.349C98.8404 401.595 100.539 402.359 101.54 402.751C135.676 416.372 205.843 388.369 238.904 372.394C248.19 367.934 276.78 353.432 283.247 345.549C283.666 345.147 283.925 344.605 283.974 344.026C286.382 326.924 303.708 57.464 286.376 11.8942C286 10.8576 285.541 9.85304 285.004 8.89029C283.428 7.19911 281.677 5.67968 279.781 4.35742C276.439 2.00058 268.891 1.81977 264.814 1.81977ZM96.6643 46.0446L96.6865 46.0526C96.7136 46.0155 96.7427 45.98 96.7738 45.9463L96.6643 46.0446Z" fill="#030087"/>
<path fill-rule="evenodd" clip-rule="evenodd" d="M112.723 50.4967C106.293 56.8408 94.7404 390.204 113.535 405.507C132.832 421.218 287.419 359.1 289.291 347.885C291.362 335.489 307.256 25.7863 284.912 8.08623C268.603 -4.83198 132.48 30.998 112.723 50.4967Z" fill="white"/>
<path fill-rule="evenodd" clip-rule="evenodd" d="M284.52 6.70973C285.895 7.51082 287.004 8.69679 287.713 10.1213C306.35 43.1107 293.955 298.322 291.443 336.376C290.617 348.869 290.593 348.588 289.503 349.971C281.34 359.89 214.879 387.761 168.19 401C156.075 404.404 127.801 412.043 115.851 408.026C114.535 407.647 113.338 406.941 112.369 405.973C111.401 405.006 110.694 403.809 110.314 402.494C98.0093 372.083 103.261 194.542 104.423 161.552C108.62 45.2439 112.682 50.4683 112.195 50.3414C130.574 31.2488 264.447 -4.79057 284.52 6.70973ZM270.233 6.24186C242.424 6.36874 192.87 19.0157 164.948 27.8452C152.981 31.6516 122.112 41.9815 113.066 50.8299C106.891 57.4516 96.5581 380.724 113.692 404.009C117.675 409.192 136.347 405.983 142.764 404.775C174.258 398.681 218.5 382.396 247.818 369.723C256.441 365.977 279.741 355.622 286.745 349.371C288.222 348 288.108 347.805 288.231 346.694C290.882 321.476 305.089 32.7444 284.975 9.44564C282.258 6.41156 274.417 6.24186 270.233 6.24186ZM112.2 50.3414H112.222C112.255 50.2954 112.272 50.2732 112.299 50.2383L112.2 50.3414Z" fill="#030087"/>
<path fill-rule="evenodd" clip-rule="evenodd" d="M225.23 39.4945C244.603 35.4818 260.547 34.1623 264.953 37.983C281.881 52.6617 269.838 309.532 268.271 319.821C266.853 329.123 149.731 380.643 135.111 367.612C120.872 354.924 129.625 78.4268 134.496 73.1643C140.19 67.0137 161.105 56.281 179.99 51.8053C183.162 51.0519 181.341 59.6609 183.971 60.7394C192.229 64.1224 224.056 51.0646 225.366 48.741C225.961 47.6752 225.718 43.8212 225.23 39.4945Z" fill="white"/>
<path fill-rule="evenodd" clip-rule="evenodd" d="M180.475 51.0675C183.867 51.3165 182.116 59.2879 184.302 60.1618C191.468 62.8739 215.737 53.675 222.906 49.8209C225.264 48.5426 224.765 48.4807 224.923 48.4807C225.539 47.2531 225.003 42.0589 224.879 40.7456C224.766 39.6211 224.584 39.1945 225.133 39.0264C225.244 39.5545 225.179 39.2453 225.133 39.0264C234.157 37.1343 253.883 33.3421 262.711 36.1287C264.268 36.5227 265.615 37.4961 266.479 38.8503C281.928 62.977 271.094 314.831 269.334 320.398C267.32 326.596 234.467 341.47 228.508 344.148C211.15 351.893 155.882 374.917 137.946 370.304C134.22 369.289 133.149 367.633 132.047 364.291C120.899 330.134 128.22 97.6952 133.116 74.6645C133.503 72.8326 133.625 72.6708 135.562 71.0039C144.026 63.8953 160.875 56.7439 171.737 53.3451C174.604 52.4181 177.521 51.6577 180.475 51.0675ZM236.62 37.9178C231.826 38.6711 226.172 39.7861 225.75 39.8813C226.055 42.2479 226.203 44.6322 226.192 47.0184C226.095 49.0041 225.799 49.2864 224.341 50.1904C217.412 54.3855 193.363 63.4592 184.909 61.6812C184.418 61.6548 183.942 61.5036 183.526 61.2419C183.11 60.9802 182.767 60.6166 182.53 60.1856C181.407 58.0651 181.664 53.426 180.672 52.5425C180.426 52.3284 180.442 52.3712 178.17 52.9549C169.933 55.1742 161.912 58.133 154.207 61.7954C148.745 64.3838 139.281 69.3164 135.138 73.6907C130.804 82.3615 122.393 350.28 135.741 366.515C137.154 368.113 140.723 368.418 142.74 368.483C166.689 368.938 224.971 344.166 248.917 331.704C251.91 330.136 265.876 322.764 267.121 319.651C268.335 313.624 281.54 48.8503 263.949 37.9939C258.536 34.7362 242.823 36.9566 236.625 37.9178H236.62Z" fill="#030087"/>
<path fill-rule="evenodd" clip-rule="evenodd" d="M329.363 87.7999C328.888 87.2274 328.729 85.5224 328.398 84.8674C327.413 82.9451 326.521 81.0324 325.72 79.0244C325.056 77.3512 323.038 73.9603 324.337 71.7366C324.745 71.2278 325.312 70.8704 325.947 70.7218C326.582 70.5731 327.248 70.6417 327.839 70.9167C328.763 71.4021 329.555 72.1035 330.149 72.9611C330.26 73.107 330.436 73.808 330.536 73.873C330.726 73.9967 330.391 73.3354 330.599 70.2616C330.78 67.5479 330.517 64.3331 331.34 61.7161C331.541 61.0722 332.364 59.6543 333.295 59.7748C334.122 59.8811 334.856 60.931 335.198 61.6162C336.32 64.5643 336.769 67.7254 336.513 70.8691C336.513 70.9817 336.572 71.3877 336.497 71.4845C336.427 68.6476 336.95 65.8273 338.031 63.2038C338.488 61.9952 338.719 61.142 340.041 60.847C342.959 60.2125 343.154 64.4647 342.78 66.3315C342.217 69.1213 341.966 71.7763 341.999 71.4876C342.204 70.3877 342.633 69.3418 343.261 68.4158C343.889 67.4897 344.701 66.7034 345.647 66.1062C346.44 65.6542 347.991 65.1816 348.534 66.2474C349.522 68.1934 348.464 71.2561 347.757 73.0832C346.445 77.4167 344.102 81.3677 340.929 84.5978C340 85.9126 338.813 87.0244 337.44 87.865C336.832 88.1283 329.363 87.7999 329.363 87.7999Z" fill="white"/>
<path fill-rule="evenodd" clip-rule="evenodd" d="M340.804 59.5877C343.608 59.8098 344.347 63.0548 344.06 65.8161C346.875 63.4941 350.117 63.9905 350.039 68.2221C349.872 70.2038 349.363 72.1416 348.534 73.9492C347.71 76.6424 346.388 79.157 344.637 81.3623C343.099 83.365 341.447 85.2778 339.69 87.0911C339.087 87.7164 338.359 88.2067 337.552 88.5296C334.787 88.586 332.02 88.4987 329.264 88.2679C329.155 88.2442 329.059 88.1843 328.989 88.0982C329.43 87.7477 329.549 87.6541 328.989 88.0982C328.533 87.2261 328.2 86.2946 328.001 85.3306C327.903 85.0578 326.488 82.6089 325.072 79.283C324.477 77.908 324.106 77.3798 323.592 76C322.834 73.8572 322.753 71.2419 324.775 70.1776C325.408 69.8765 326.104 69.7335 326.804 69.7611C327.504 69.7888 328.187 69.9861 328.794 70.3362C329.62 70.8485 329.508 70.9833 329.519 70.6899C329.687 66.6804 329.348 62.3649 330.892 60.1016C332.51 57.6734 335.297 58.1286 336.761 62.3538C337.007 63.0802 336.761 62.939 337.395 61.5607C337.691 60.9212 338.178 60.3886 338.787 60.0355C339.397 59.6824 340.101 59.5261 340.804 59.5877ZM331.823 66.1222C331.506 73.7351 331.565 71.6622 331.56 72.249C331.56 73.8826 331.719 73.9841 331.389 74.4821C331.265 74.6479 331.094 74.7724 330.898 74.8392C330.702 74.906 330.491 74.912 330.291 74.8564C330.082 74.791 329.895 74.6715 329.747 74.5099C329.599 74.3483 329.497 74.1505 329.451 73.9365C329.311 73.5146 329.3 73.4893 329.292 73.4845C328.35 72.2649 327.443 71.3354 325.944 71.6352C325.648 71.6809 325.376 71.8248 325.171 72.0436C324.966 72.2624 324.841 72.5436 324.815 72.8422C324.426 74.5995 325.59 76.8215 326.242 78.4488C328.012 83.0721 328.78 84.2822 328.989 84.8817C329.235 85.6208 329.319 86.49 329.586 87.2179C329.586 87.2322 329.622 87.3099 329.63 87.3226C330.878 87.3464 335.876 87.4178 337.118 87.2481C337.658 86.9866 338.143 86.6225 338.545 86.1759C339.111 85.5954 341.303 82.8881 341.589 82.5281C343.462 80.2258 344.97 77.649 346.06 74.8881C346.777 72.6804 348.486 68.6313 347.506 66.7597H347.49C345.964 66.506 343.444 69.3878 343.165 71.4861C343.154 71.7484 343.068 72.002 342.918 72.2173C342.753 72.4384 342.517 72.595 342.249 72.6596C341.981 72.7242 341.699 72.6929 341.452 72.571C341.206 72.4486 341.009 72.2454 340.894 71.9952C340.721 71.4909 340.758 71.1848 341.254 67.8065C341.577 66.6117 341.72 65.3752 341.677 64.138C341.684 63.3823 341.416 62.6497 340.924 62.0762C340.721 61.9788 340.489 61.9618 340.274 62.0286C340.118 62.0444 339.969 62.1025 339.843 62.1967C339.718 62.2909 339.62 62.4176 339.562 62.5631C339.201 63.3893 338.891 64.2367 338.634 65.1008C337.993 66.8315 337.675 68.6652 337.695 70.5107C337.673 71.3783 337.812 72.0745 337.072 72.5202C336.905 72.6192 336.717 72.6766 336.524 72.6875C336.33 72.6983 336.137 72.6624 335.96 72.5827C335.784 72.5031 335.629 72.382 335.509 72.2297C335.389 72.0775 335.307 71.8986 335.271 71.7082C335.113 70.7565 335.773 66.5187 334.431 62.8264C333.934 61.5433 333.417 61.0358 333.172 60.9358C332.065 61.6892 331.892 64.7344 331.823 66.1222ZM337.191 87.2386H337.21H337.191ZM337.191 87.2386H337.219H337.195H337.216H337.191ZM331.371 73.3402V73.3275L331.384 73.3576L331.371 73.3307V73.3402ZM347.525 66.7566H347.514H347.525ZM347.525 66.7566H347.511H347.525ZM347.525 66.7566H347.514H347.525ZM347.525 66.7566H347.514H347.525ZM347.525 66.7566H347.512H347.525ZM347.525 66.7566L347.512 66.7471L347.525 66.7566ZM347.525 66.7566L347.511 66.7455L347.525 66.7566ZM347.525 66.7566L347.509 66.7439L347.525 66.7566ZM347.525 66.7566V66.7439V66.7566ZM347.525 66.7566L347.511 66.7439L347.525 66.7566ZM347.525 66.7566L347.509 66.7391L347.525 66.7566ZM347.525 66.7566L347.511 66.7423L347.525 66.7566ZM347.525 66.7566L347.511 66.7391L347.525 66.7566ZM347.525 66.7566L347.511 66.7391L347.525 66.7566Z" fill="#030087"/>
<path fill-rule="evenodd" clip-rule="evenodd" d="M262.01 167.268C265.657 166.724 268.996 163.798 272.415 162.51C287.133 157.05 299.712 147.016 308.307 133.881C313.995 125.075 317.743 115.216 321.789 105.627C323.758 101.314 325.344 96.8366 326.529 92.2458C326.899 90.6233 327.164 86.5837 328.31 85.3847C329.246 84.4093 332.48 85.1467 333.72 85.1563C334.891 85.1658 338.079 84.5948 338.964 85.3942C340.458 86.7423 339.736 90.1618 339.711 91.8572C339.617 98.4377 339.111 105.056 338.645 111.618C337.731 124.444 337.005 138.467 333.111 150.793C328.483 165.444 317.489 178.723 305.905 188.223C299.751 193.271 292.988 196.852 286.204 200.963C285.227 201.555 280.274 205.087 279.226 204.664C277.145 203.825 275.508 196.586 274.687 194.641C270.82 185.498 262.01 167.268 262.01 167.268Z" fill="white"/>
<path fill-rule="evenodd" clip-rule="evenodd" d="M261.937 166.789C265.364 166.234 268.377 163.56 272.041 162.02C290.747 154.697 303.703 142.207 312.326 124.671C315.59 118.033 322.807 100.514 324.114 96.571C326.118 90.4474 325.568 89.1484 326.493 86.3633C327.589 83.0787 329.711 83.629 333.409 83.9669C334.474 84.0462 336.156 83.6703 337.879 83.8289C338.519 83.8363 339.14 84.0501 339.65 84.4383C340.159 84.8266 340.53 85.3687 340.707 85.9843C341.138 87.7901 341.205 89.6636 340.905 91.4957C340.846 92.4918 340.919 93.5798 340.67 98.7074C340.467 102.888 339.221 121.675 338.494 128.706C337.528 137.995 335.974 147.541 332.39 156.168C327.779 166.519 321.124 175.832 312.824 183.547C303.14 192.746 297.407 195.374 286.672 201.741C284.829 202.898 281.348 205.341 279.618 205.547C276.831 205.757 275.201 198.569 274.212 195.574C272.845 191.512 261.564 167.489 261.532 167.329C261.521 167.247 261.532 167.165 261.564 167.089C261.596 167.014 261.647 166.948 261.713 166.899L261.781 166.854C261.831 166.828 261.884 166.811 261.94 166.802C261.997 167.176 262.048 167.501 261.937 166.789ZM329.135 86.1952C328.242 87.2658 328.196 90.5172 327.267 94.0397C325.302 101.194 316.493 121.331 313.032 127.787C310.914 131.814 308.445 135.646 305.654 139.238C291.197 157.652 273.326 162.553 270.285 164.125C267.934 165.629 265.39 166.808 262.723 167.63C278.044 198.78 275.226 194.565 277.464 200.378C277.863 201.647 278.529 202.815 279.418 203.804C279.791 204.067 283.023 201.971 283.361 201.752C294.56 194.391 306.325 189.652 320.074 172.191C335.704 152.134 335.749 135.749 337.885 105.364C338.16 101.342 338.378 97.5924 338.486 93.6702C338.656 91.6236 338.716 89.5694 338.666 87.5164C338.634 87.0834 338.482 86.6677 338.228 86.3158C337.827 85.878 334.358 86.3951 333.227 86.2951C331.877 86.0451 330.496 86.0114 329.135 86.1952Z" fill="#030087"/>
<path fill-rule="evenodd" clip-rule="evenodd" d="M179.098 211.676C179.146 200.01 208.281 169.219 246.205 164.44C259.193 162.804 292.471 161.887 305.741 188.879C308.15 193.779 310.731 199.244 310.458 204.87C310.119 211.815 306.447 217.298 303.097 223.109C294.098 238.711 284.074 250.449 270.742 263.034C259.864 273.307 242.153 278.736 227.455 275.397C216.261 272.603 205.532 268.2 195.603 262.325C185.909 256.494 172.269 242.954 169.952 231.069C168.044 221.288 179.078 216.843 179.098 211.676Z" fill="white"/>
<path fill-rule="evenodd" clip-rule="evenodd" d="M289.622 170.141C297.526 174.595 303.788 181.473 307.483 189.76C308.925 192.582 310.082 195.541 310.937 198.592C313.364 208.215 309.219 215.162 304.109 223.753C299.89 231.1 295.079 238.091 289.722 244.656C284.774 250.703 273.61 262.811 267.359 267.388C256.785 275.21 241.415 279.442 227.931 276.622C221.005 274.987 214.257 272.671 207.788 269.707C196.021 264.429 186.694 258.574 177.942 247.731C174.525 243.69 171.857 239.07 170.064 234.091C168.665 229.75 168.607 226.121 171.311 222.004C173.999 217.817 178.549 214.781 178.619 211.676C178.619 206.857 183.008 200.554 186.023 196.807C193.343 188.135 202.146 180.831 212.019 175.237C241.315 158.482 272.171 160.214 289.622 170.141ZM244.579 165.7C224.567 168.575 205.318 179.086 191.951 192.179C187.523 196.535 179.691 205.485 179.58 211.687C179.58 217.341 168.372 221.354 170.737 231.626C173.317 241.948 183.76 252.919 192.343 259.079C201.458 265.642 220.522 273.602 231.448 274.968C240.45 275.872 249.526 274.287 257.689 270.387C266.534 266.191 270.833 261.601 277.908 254.313C290.263 241.479 296.336 232.386 304.271 218.73C308.95 210.549 310.923 204.881 307.687 196.14C306.216 192.286 304.389 188.577 302.231 185.06C290.336 166.812 265.864 162.642 244.582 165.698L244.579 165.7Z" fill="#030087"/>
<path fill-rule="evenodd" clip-rule="evenodd" d="M292.331 89.3767C292.331 89.3767 275.616 97.0499 270.049 114.02C267.971 120.355 261.167 126.656 254.588 125.154C251.296 124.403 250.073 122.717 245.846 122.905C239.805 123.18 234.371 138.436 244.949 139.652C246.555 139.678 248.16 139.533 249.737 139.221C249.496 141.707 249.783 144.217 250.58 146.585C251.376 148.952 252.664 151.125 254.358 152.961C255.374 154.014 263.442 157.728 264.124 158.965C265.32 161.135 260.476 164.234 259.919 165.957C258.933 168.981 263.025 174.418 264.885 176.194C268.033 179.198 272.463 180.001 275.575 176.256C276.508 175.179 277.161 173.888 277.475 172.498C277.79 171.108 277.756 169.662 277.377 168.288C276.809 166.743 273.976 163.221 276.177 161.479C277.04 160.796 279.191 161.565 280.179 161.5C282.788 161.215 285.351 160.604 287.808 159.682C297.762 156.361 305.64 146.383 308.883 136.736C311.398 129.248 313.454 119.616 313.007 111.759C312.897 109.856 313.527 105.843 312.361 104.281C310.996 102.449 307.432 102.105 305.532 100.923C300.456 97.9231 295.98 94.0082 292.331 89.3767Z" fill="white"/>
<path fill-rule="evenodd" clip-rule="evenodd" d="M292.128 88.9423C292.628 88.7615 292.631 89.0374 293.573 90.2111C297.136 94.2402 301.316 97.6786 305.957 100.398C307.584 101.316 310.488 101.716 312.212 103.079C314.242 104.684 313.855 107.54 313.798 110.742C314.032 114.664 313.86 118.6 313.286 122.487C312.51 127.843 311.227 133.113 309.452 138.225C307.562 143.357 304.69 148.073 300.997 152.108C296.149 157.535 289.605 161.16 282.433 162.391C281.295 162.693 280.106 162.754 278.944 162.571C277.383 162.329 277.128 162.353 276.901 162.412C276.446 162.775 276.506 163.352 276.65 163.914C277.356 166.452 278.99 167.214 278.934 170.688C278.883 172.553 278.311 174.367 277.283 175.925C276.255 177.482 274.813 178.722 273.118 179.503C267.443 181.573 262.35 176.38 259.664 170.938C259.148 170.088 258.817 169.14 258.69 168.154C258.563 167.167 258.644 166.166 258.928 165.213C259.808 163.497 263.044 161.026 263.123 159.725C263.153 159.278 260.357 157.778 259.827 157.484C253.8 154.144 254.065 154.463 252.673 152.826C249.821 149.374 248.349 144.987 248.541 140.514C247.633 140.706 246.708 140.813 245.78 140.831C240.013 140.739 236.711 136.434 238.192 130.185C239.041 126.769 241.41 122.906 244.725 121.998C245.684 121.802 246.669 121.76 247.642 121.875C250.771 122.192 252.046 123.461 254.604 124.112C260.584 125.54 266.471 120.347 268.893 114.725C269.545 112.817 270.308 110.95 271.18 109.132C275.568 100.845 282.346 94.0672 290.634 89.6798C290.985 89.4895 291.767 89.0866 292.128 88.928C292.215 89.1278 292.304 89.315 292.128 88.9423ZM250.257 138.189C251.142 138.729 250.849 139.237 250.836 140.982C250.77 144.844 252.125 148.597 254.642 151.527C255.413 152.406 255.328 152.368 259.508 154.618C261.252 155.499 262.926 156.511 264.517 157.644C264.823 157.882 265.071 158.186 265.241 158.534C265.411 158.882 265.499 159.265 265.499 159.652C265.559 162.244 261.96 164.685 261.11 166.193C260.571 167.184 261.519 169.329 262.033 170.329C267.004 179.517 273.335 179.238 275.876 173.459C278.032 168.307 274.466 167.432 274.163 163.467C274.114 162.902 274.208 162.334 274.439 161.816C274.67 161.297 275.028 160.847 275.481 160.506C276.063 160.117 276.76 159.94 277.456 160.004C279.698 160.112 279.859 161.107 287.545 158.528C297.402 155.153 304.902 145.472 308.25 135.35C310.933 127.721 312.261 119.682 312.172 111.596C312.13 109.762 312.648 105.976 311.752 104.72C310.734 103.293 307.739 102.798 305.698 101.78C300.512 98.7038 295.928 94.7096 292.173 89.9922C282.81 94.8251 275.462 102.817 271.43 112.552C270.788 114.84 269.796 117.014 268.49 118.999C265.867 122.76 261.965 125.889 257.439 126.319C254.094 126.588 252.216 125.348 249.853 124.504C248.256 123.891 246.509 123.788 244.852 124.209C240.555 126.066 237.161 136.392 243.765 138.261C246.882 139.129 249.001 137.652 250.262 138.189H250.257Z" fill="#030087"/>
<path fill-rule="evenodd" clip-rule="evenodd" d="M254.784 153.195C252.888 153.941 250.896 154.413 248.868 154.599C248.028 154.811 247.165 154.918 246.298 154.916C243.708 154.769 241.469 153.529 239.003 152.916C228.352 150.271 217.099 145.859 211.602 135.407C210.205 132.398 209.157 129.239 208.478 125.992C207.42 122.628 207.053 119.084 207.399 115.575C208.719 107.327 216.213 100.558 217.168 92.4775C221.142 58.8315 256.501 53.274 282.249 58.546C293.2 60.7886 319.511 79.1057 314.296 97.418C314.049 98.2824 313.714 104.397 312.552 104.312C309.516 104.098 294.434 95.0485 292.526 89.4133C292.526 89.4133 275.811 97.0833 270.244 114.052C268.166 120.387 261.362 126.688 254.784 125.186C251.491 124.434 250.268 122.747 246.041 122.937C240 123.212 234.565 138.468 245.144 139.684C246.75 139.711 248.355 139.566 249.93 139.253C249.69 141.739 249.977 144.249 250.774 146.617C251.57 148.984 252.859 151.157 254.554 152.992C254.624 153.067 254.701 153.134 254.784 153.195Z" fill="#030087"/>
<path fill-rule="evenodd" clip-rule="evenodd" d="M250.547 143.027C250.719 144.86 251.195 146.651 251.956 148.328C252.734 150.053 253.828 151.616 255.183 152.937C255.22 152.993 255.245 153.056 255.256 153.122C255.267 153.188 255.264 153.255 255.247 153.32C255.23 153.385 255.2 153.446 255.158 153.498C255.116 153.55 255.064 153.593 255.004 153.623L254.976 153.57L255.007 153.63C253.467 154.326 251.823 154.765 250.141 154.932C247.385 155.349 246.614 156.003 242.646 154.721C241.218 154.256 240.811 154.071 239.523 153.689C238.305 153.344 236.416 153 232.286 151.682C220.647 147.841 212.102 141.955 208.654 130.144C207.331 125.559 205.812 120.379 206.397 115.69C207.612 106.934 215.093 100.661 216.135 91.9586C219.337 66.6377 240.29 55.5244 265.711 55.6386C271.686 55.683 281.237 56.4887 286.777 58.7361C290.311 60.2201 293.678 62.0745 296.821 64.2682C308.1 72.119 318.977 84.4504 315.425 97.7715C315.108 99.2718 314.978 103.284 313.884 104.793C313.232 105.624 312.531 105.586 311.576 105.329C306.782 103.946 294.764 96.1616 291.973 90.9737C285.091 94.6597 279.235 100.001 274.934 106.517C271.259 112.342 271.648 114.606 269.245 118.366C267.225 121.63 264.215 124.164 260.654 125.597C254.295 127.817 251.748 124.104 247.356 123.76C246.718 123.648 246.062 123.676 245.436 123.842C244.809 124.008 244.226 124.309 243.727 124.723C239.185 128.396 237.225 138.694 245.827 139.111C247.704 139.143 249.607 138.477 250.195 138.729C250.953 139.471 250.206 139.451 250.547 143.027ZM247.142 60.2999C231.101 64.7567 220.798 75.096 218.399 91.4702C218.022 95.0883 216.837 98.5754 214.93 101.673C212.513 106.036 209.488 110.434 208.518 114.923C207.956 118.341 208.191 121.842 209.203 125.154C210.43 130.12 211.157 133.506 213.829 137.514C221.588 148.834 235.29 150.826 242.129 153.317C243.993 154.218 246.087 154.527 248.132 154.206C250.094 153.985 252.035 153.599 253.932 153.051C253.859 152.976 253.502 152.575 253.199 152.215C250.404 148.753 249.02 144.364 249.323 139.925C247.529 140.416 245.645 140.481 243.823 140.112C235.034 137.938 238.39 125.456 244.1 122.645C245.652 122.062 247.341 121.952 248.955 122.328C251.918 122.939 253.803 124.604 256.857 124.548C262.354 124.453 267.531 119.102 269.299 113.752C272.763 102.871 281.856 93.6668 291.272 88.7818C292.043 88.3806 292.858 87.8778 293.522 88.8818C293.886 89.8337 294.424 90.7094 295.108 91.4638C299.908 96.4007 305.649 100.323 311.993 102.999C312.193 103.061 312.152 103.067 312.187 102.977C312.698 101.402 312.935 98.095 313.138 97.1957C313.509 95.8975 313.722 94.5592 313.773 93.21C314.047 85.6669 309.164 78.46 303.828 73.1563C296.652 65.9779 287.526 61.0152 282.371 59.813C270.747 57.2597 258.691 57.4263 247.142 60.2999Z" fill="#030087"/>
<path fill-rule="evenodd" clip-rule="evenodd" d="M296.823 193.388C299.139 191.517 301.6 189.834 304.184 188.353C305.115 187.807 306.666 187.484 307.281 186.519C307.838 185.302 308.201 184.006 308.358 182.676C309.373 178.288 309.973 173.626 314.919 172.086C319.995 170.5 325.852 169.707 330.894 171.815C333.708 172.986 336.02 177.477 333.419 180.015C334.55 179.723 335.33 181.457 335.86 182.275C336.505 183.269 336.745 184.472 336.53 185.637C336.315 186.802 335.662 187.84 334.705 188.538C337.709 190.218 336.767 196.151 333.99 197.905C331.043 199.406 327.737 200.055 324.442 199.78C323.135 199.527 321.808 199.395 320.477 199.384C319.525 199.542 318.723 200.703 317.993 201.252C316.152 202.635 310.801 206.525 310.276 206.636C309.538 206.79 296.823 193.388 296.823 193.388Z" fill="white"/>
<path fill-rule="evenodd" clip-rule="evenodd" d="M324.339 169.405C327.205 169.435 331.227 170.063 333.318 172.042C334.154 172.796 334.804 173.734 335.214 174.782C335.625 175.83 335.786 176.959 335.684 178.08C335.319 180.323 334.845 178.642 336.022 180.277C336.556 181.04 337.021 181.85 337.409 182.697C337.77 183.643 337.882 184.666 337.737 185.667C337.591 186.669 337.192 187.617 336.577 188.421C336.491 188.528 336.488 188.477 336.596 188.61C337.172 189.475 337.55 190.456 337.702 191.483C337.855 192.511 337.779 193.56 337.479 194.554C337.234 195.803 336.649 196.961 335.79 197.9C334.93 198.839 333.829 199.524 332.607 199.879C329.723 200.818 326.676 201.146 323.659 200.843C322.62 200.551 321.537 200.446 320.461 200.534C319.877 200.969 319.324 201.446 318.809 201.961C318.266 202.401 312.38 206.561 310.905 207.339C310.669 207.496 310.384 207.564 310.102 207.53C309.821 207.496 309.56 207.363 309.367 207.155C307.086 205.385 298.568 196.026 296.625 193.884C296.422 193.682 296.319 193.566 296.357 193.286C296.379 193.183 296.435 193.09 296.515 193.022C298.233 191.555 300.045 190.202 301.941 188.973C303.172 188.102 304.491 187.362 305.876 186.765C306.193 186.598 306.464 186.356 306.667 186.06C306.869 185.765 306.997 185.424 307.039 185.068C307.522 181.883 308.304 178.75 309.373 175.711C311.24 171.879 313.893 171.111 317.987 170.142C320.07 169.66 322.201 169.413 324.339 169.405ZM310.552 205.807L310.529 205.796L310.555 205.812L310.534 205.798L310.558 205.811L310.539 205.801L310.552 205.807ZM321.197 198.239C322.988 198.532 324.801 198.664 326.615 198.635C329.058 198.618 331.454 197.97 333.573 196.754C334.424 195.932 335.001 194.868 335.225 193.706C335.45 192.544 335.31 191.341 334.826 190.261C334.283 189.447 333.976 189.754 333.592 188.992C333.49 188.739 333.478 188.458 333.558 188.197C333.637 187.935 333.804 187.709 334.03 187.555C334.635 187.109 335.074 186.475 335.28 185.752C335.487 185.029 335.447 184.258 335.168 183.56C334.778 182.699 334.262 181.901 333.638 181.192C333.524 181.212 333.408 181.217 333.292 181.21C333.015 181.18 332.758 181.055 332.563 180.855C332.369 180.656 332.251 180.394 332.229 180.117C332.229 178.97 333.213 179.122 333.354 177.52C333.36 176.856 333.232 176.197 332.98 175.582C332.728 174.967 332.355 174.408 331.884 173.939C330.339 172.353 327.01 171.797 324.794 171.708C322.044 171.639 319.3 171.98 316.65 172.718C313.9 173.444 312.135 174.107 310.742 177.403C309.665 179.952 308.882 184.818 308.363 186.114C308.205 186.564 307.953 186.976 307.625 187.322C307.298 187.669 306.9 187.943 306.46 188.126C304.254 188.973 302.173 190.115 300.274 191.522C299.399 192.101 298.501 192.723 297.557 193.447C299.694 195.584 307.827 203.69 310.198 205.562C310.298 205.639 310.26 205.639 310.368 205.562C312.219 204.336 317 200.689 317.381 200.386C318.433 199.549 318.986 198.201 321.197 198.239Z" fill="#030087"/>
<path fill-rule="evenodd" clip-rule="evenodd" d="M167.319 214.144C152.369 217.895 157.739 241.301 163.274 250.376L167.319 214.144Z" fill="white"/>
<path fill-rule="evenodd" clip-rule="evenodd" d="M167.79 214.024L167.439 214.613C166.023 215.044 164.707 215.752 163.566 216.696C162.426 217.64 161.484 218.801 160.795 220.112C159.626 222.439 158.967 224.989 158.86 227.591C158.777 234.62 160.099 241.594 162.748 248.105C163.801 250.643 163.772 249.753 163.525 250.789C162.792 250.606 162.903 250.679 162.794 250.52C154.716 239.053 152.334 216.459 167.2 213.674L167.79 214.024Z" fill="#030087"/>
<path fill-rule="evenodd" clip-rule="evenodd" d="M170.348 260.972C174.476 270.046 181.974 277.157 191.254 280.798L170.348 260.972Z" fill="white"/>
<path fill-rule="evenodd" clip-rule="evenodd" d="M170.789 260.773C175.658 269.131 182.818 275.922 191.422 280.343L191.709 280.96L191.087 281.239C184.45 279.431 178.617 275.437 174.534 269.902C172.497 267.284 170.931 264.333 169.906 261.179L170.148 260.544L170.789 260.773Z" fill="#030087"/>
<path fill-rule="evenodd" clip-rule="evenodd" d="M213.306 287.838C225.518 294.247 247.37 294.008 257.745 283.564L213.306 287.838Z" fill="white"/>
<path fill-rule="evenodd" clip-rule="evenodd" d="M258.081 283.902C248.179 295.283 225.791 295.935 213.082 288.267L212.877 287.615L213.531 287.408C225.382 292.614 244.489 292.325 255.402 284.798C257.995 282.987 256.858 283.228 258.078 283.221L258.081 283.902Z" fill="#030087"/>
<path fill-rule="evenodd" clip-rule="evenodd" d="M291.985 90.4409C292.318 93.7642 291.81 97.1176 290.509 100.194C289.208 103.27 287.155 105.97 284.539 108.046" fill="white"/>
<path fill-rule="evenodd" clip-rule="evenodd" d="M292.468 90.4028C293.468 94.5857 292.809 98.9935 290.629 102.701C289.291 105.128 287.277 107.114 284.833 108.42L284.157 108.339C284.281 107.399 284.066 107.935 285.088 106.731C287.562 103.807 289.378 100.386 290.415 96.6994C290.962 94.6624 291.326 92.5806 291.502 90.479L291.947 89.9587L292.468 90.4028Z" fill="#030087"/>
<path fill-rule="evenodd" clip-rule="evenodd" d="M294.428 94.0363C294.42 93.5605 296.434 96.685 296.904 97.4986C297.734 98.9565 298.242 100.575 298.394 102.246C298.545 103.917 298.337 105.601 297.782 107.185" fill="white"/>
<path fill-rule="evenodd" clip-rule="evenodd" d="M294.188 94.4106L294.209 94.4281L294.192 94.4059L294.214 94.4233L294.204 94.4138L294.223 94.4265L294.214 94.4185L294.238 94.4344L294.268 94.4518L294.309 94.4693L294.363 94.4867H294.355H294.399L293.963 94.0347V94.0046C293.963 93.9661 293.968 93.9277 293.978 93.8904C293.978 93.8793 294.003 93.8127 294.006 93.8032C294.157 93.5304 294.457 93.3067 295.024 93.7524C296.35 94.7537 297.444 96.029 298.231 97.4914C299.019 98.9538 299.482 100.569 299.589 102.227C299.674 103.944 299.253 105.649 298.379 107.131C298.231 107.4 298.379 107.289 297.646 107.648C297.15 106.612 297.446 107.505 297.446 105.6C297.458 105.059 297.439 104.517 297.391 103.978C297.355 101.62 296.717 99.3102 295.537 97.2686C295.273 96.7595 294.437 94.8119 294.223 94.455L294.234 94.4661L294.188 94.4106ZM294.912 94.0395L294.458 94.4772H294.488C294.549 94.4742 294.609 94.4585 294.664 94.4312C294.718 94.4039 294.766 94.3656 294.805 94.3186L294.867 94.233L294.902 94.1537L294.921 94.0887V94.0379V94.0363L294.912 94.0395Z" fill="#030087"/>
<path fill-rule="evenodd" clip-rule="evenodd" d="M280.476 120.512C280.476 122.244 280.404 122.249 280.392 123.947L280.476 120.512Z" fill="white"/>
<path d="M280.476 120.512C280.476 122.244 280.404 122.249 280.392 123.947" stroke="#030087" stroke-width="2.126" stroke-linecap="round" stroke-linejoin="round"/>
<path fill-rule="evenodd" clip-rule="evenodd" d="M305.41 119.473C305.434 120.62 305.427 120.778 305.384 122.125L305.41 119.473Z" fill="white"/>
<path d="M305.41 119.473C305.434 120.62 305.427 120.778 305.384 122.125" stroke="#030087" stroke-width="2.126" stroke-linecap="round" stroke-linejoin="round"/>
<path fill-rule="evenodd" clip-rule="evenodd" d="M292.882 117.779C293.643 121.372 294.837 124.588 295.947 129.113C294.696 129.95 293.329 130.602 291.89 131.046" fill="white"/>
<path fill-rule="evenodd" clip-rule="evenodd" d="M296.455 130.119C295.077 130.873 293.563 131.346 292.001 131.511L291.419 131.161L291.776 130.582C292.795 130.052 293.756 129.419 294.645 128.693C293.391 125.213 292.638 121.573 292.409 117.881L292.782 117.307L293.357 117.678C294.866 120.98 296.042 124.425 296.866 127.962C297.059 128.896 297.327 129.633 296.455 130.119Z" fill="#030087"/>
<path fill-rule="evenodd" clip-rule="evenodd" d="M301.281 136.368C301.281 136.368 286.988 139.064 280.028 137.814C279.573 141.227 278.98 145.01 281.05 148.077C283.318 151.437 289.197 152.058 292.561 150.379C297.827 147.749 301.793 142.728 301.281 136.368Z" fill="white"/>
<path fill-rule="evenodd" clip-rule="evenodd" d="M301.656 136.491C301.861 138.561 301.598 140.65 300.885 142.604C300.173 144.557 299.029 146.326 297.54 147.777C295.722 149.684 293.444 151.091 290.926 151.863C288.403 152.441 285.761 152.183 283.397 151.127C278.798 148.907 278.298 144.388 278.956 139.33C279.196 137.498 279.161 137.512 279.421 137.206C279.54 137.089 279.69 137.006 279.853 136.968C280.016 136.93 280.187 136.938 280.346 136.991C285.58 137.877 296.1 136.772 301.218 136.01H301.278C301.478 136.025 301.618 136.085 301.656 136.491ZM280.78 138.797C280.409 141.849 280.071 145.005 281.8 147.573C283.467 149.987 287.193 150.729 290.105 150.255C291.689 149.958 293.182 149.293 294.461 148.313C296.198 147.234 297.673 145.782 298.781 144.063C299.888 142.343 300.6 140.4 300.864 138.372C300.919 137.855 300.943 137.335 300.936 136.815C295.221 138.034 286.561 139.466 280.78 138.797Z" fill="#030087"/>
<path fill-rule="evenodd" clip-rule="evenodd" d="M327.487 143.554C324.919 142.828 322.226 142.658 319.587 143.056C313.494 144.409 308.485 151.879 311.267 157.903C312.81 161.246 318.496 164.796 323.969 164.515C324.65 164.479 326.055 164.572 326.467 163.944C328.168 161.367 326.839 156.035 326.991 153.078C327.153 149.925 327.487 143.554 327.487 143.554Z" fill="#030087"/>
<path fill-rule="evenodd" clip-rule="evenodd" d="M321.597 142.062C323.621 142.175 325.626 142.516 327.574 143.078C328.138 143.222 327.971 143.284 327.909 150.293C327.909 150.666 327.86 152.91 327.869 153.441C327.984 156.639 329.351 161.798 327.383 164.651C326.577 165.72 325.078 165.66 323.651 165.7C319.992 165.737 316.43 164.529 313.548 162.275C311.713 161.034 310.358 159.203 309.708 157.086C307.727 150.369 313.617 142.062 321.597 142.062ZM318.742 144.192C314.291 145.992 310.769 151.256 311.843 155.985C312.208 157.549 313.112 158.934 314.396 159.898C316.335 161.567 318.685 162.685 321.203 163.135C322.64 163.393 324.107 163.42 325.552 163.218C326.862 161.061 325.869 155.995 326.106 153.037C326.981 143.203 327.057 143.996 326.87 143.962C323.93 143.53 321.587 143.099 318.745 144.192H318.742Z" fill="#030087"/>
<path fill-rule="evenodd" clip-rule="evenodd" d="M318.295 163.065C317.53 165.228 317.109 167.497 317.046 169.79C316.744 171.762 316.676 173.762 316.842 175.75C317.77 180.581 326.358 180.54 329.102 177.527C330.461 176.034 329.754 171.182 329.684 169.246C329.649 168.294 330.061 164.646 329.314 164.082C328.452 163.428 326.88 163.792 325.901 163.822C324.052 163.876 318.295 163.065 318.295 163.065Z" fill="#030087"/>
<path fill-rule="evenodd" clip-rule="evenodd" d="M318.36 162.593C320.971 162.857 323.596 162.963 326.22 162.91C327.125 162.716 328.059 162.69 328.973 162.834C329.416 162.909 329.823 163.125 330.133 163.451C330.443 163.776 330.64 164.192 330.694 164.639C330.852 165.546 330.913 166.467 330.875 167.387C330.792 168.615 330.829 169.848 330.986 171.068C331.221 174.05 331.443 177.119 329.544 178.773C326.268 181.628 318.77 181.653 316.402 177.652C315.616 175.917 315.431 173.969 315.876 172.117C316.083 168.962 316.747 165.854 317.846 162.889C317.898 162.895 317.911 162.564 318.36 162.593ZM317.912 168.813C317.873 168.972 317.717 173.688 317.72 173.849C317.639 174.467 317.707 175.096 317.918 175.683C318.129 176.269 318.477 176.797 318.934 177.222C320.294 178.047 321.861 178.466 323.451 178.428C325.042 178.391 326.588 177.899 327.907 177.011C329.387 175.779 328.401 171.688 328.601 167.619C328.693 166.687 328.684 165.749 328.574 164.819C327.558 164.636 326.522 164.589 325.494 164.68C323.731 164.572 320.55 163.982 318.624 163.616C318.163 165.31 317.923 167.057 317.912 168.813ZM328.666 164.883L328.648 164.867L328.688 164.9L328.672 164.884L328.707 164.913L328.643 164.861L328.666 164.883Z" fill="#030087"/>
<path fill-rule="evenodd" clip-rule="evenodd" d="M396.305 178.423C389.39 177.471 368.845 173.097 359.351 171.249C350.924 169.609 328.225 164.247 327.63 163.334C326.655 161.849 327.202 153.841 327.403 144.595C331.936 142.292 392.002 108.931 392.359 109.01C413.077 113.613 409.604 175.505 396.305 178.423Z" fill="url(#paint1_linear)"/>
<path fill-rule="evenodd" clip-rule="evenodd" d="M392.499 107.851C399.89 109.54 403.798 117.294 405.729 124.599C409.796 139.581 408.402 168.574 399.526 177.156C398.653 178.084 397.497 178.697 396.239 178.9V178.886C396.186 179.181 357.327 172.187 337.787 167.446C327.219 164.861 326.934 164.526 326.526 163.657C325.563 161.514 325.987 153.751 326.126 149.928C326.245 144.042 326.187 144.474 326.366 144.06C326.667 143.584 326.626 143.708 328.866 142.495C346.513 132.894 391.246 107.811 392.499 107.851ZM328.545 145.31L328.444 149.995H328.431C328.326 152.498 327.906 160.345 328.502 162.563C335.808 165.62 389.149 176.87 396.297 177.933C398.05 177.289 399.51 176.032 400.407 174.394C405.821 165.988 406.784 148.368 405.842 137.529C404.939 127.843 401.817 112.725 392.473 110.236C389.872 111.534 336.967 140.853 328.545 145.31Z" fill="#030087"/>
<path fill-rule="evenodd" clip-rule="evenodd" d="M420.145 101.881C422.417 102.795 424.628 103.855 426.765 105.053C427.726 103.711 430.197 99.4733 431.239 98.4582C431.396 98.2938 431.587 98.166 431.799 98.0838C432.011 98.0016 432.238 97.967 432.465 97.9824C434.914 98.3262 437.285 99.0868 439.477 100.231C440.341 99.0133 441.222 97.5859 442.292 96.1077C444.988 92.3932 445.55 92.5439 447.12 93.31C449.197 94.3638 451.154 95.6401 452.955 97.1164C453.114 97.275 453.053 97.1418 453.082 97.8968C451.827 97.938 453.229 98.1283 449.867 96.4186C448.591 95.7602 447.278 95.1777 445.934 94.6739C445.717 94.8901 445.517 95.1229 445.336 95.3702C442.414 99.321 441.293 103.193 439.458 102.753C437.325 101.788 435.116 101.003 432.854 100.404C432.682 100.387 432.746 100.35 432.565 100.583C430.979 102.688 428.759 106.666 427.759 107.353C426.559 108.051 425.501 106.79 420.18 103.914C419.353 105.024 416.467 109.624 415.752 110.909L415.104 111.132C414.852 110.409 414.852 110.552 414.917 110.393C415.347 109.395 416.432 107.162 416.993 106.028C418.897 102.222 419.249 101.773 420.145 101.881ZM427.301 105.288H427.322H427.296H427.301ZM420.451 103.584H420.46H420.451ZM420.451 103.584L420.481 103.557L420.465 103.57L420.495 103.543L420.483 103.553L420.5 103.534C420.482 103.548 420.464 103.563 420.448 103.58L420.451 103.584ZM445.685 94.6216H445.666H445.699H445.678H445.718H445.731C445.693 94.6216 445.71 94.6216 445.661 94.6121L445.685 94.6216Z" fill="#030087"/>
<path fill-rule="evenodd" clip-rule="evenodd" d="M453.851 136.49C455.139 136.896 459.451 141.979 460 143.333L459.775 143.968C458.584 143.54 459.83 144.169 457.478 141.809C456.301 140.649 455.059 139.557 453.759 138.537C453.442 138.303 453.512 138.33 453.348 138.399C452.765 138.691 452.205 139.027 451.673 139.405C443.7 144.918 446.262 144.932 441.301 140.41C440.619 139.764 439.867 139.196 439.058 138.718C437.935 139.337 435.515 141.149 433.359 142.572C431.342 143.857 431.139 143.614 429.451 141.543C428.113 139.881 427.012 138.371 426.111 137.318C424.884 138.076 420.749 141.091 419.494 142.088C419.336 142.211 419.494 142.171 418.712 142.133C418.749 141.356 418.687 141.511 418.841 141.353C420.981 139.251 423.248 137.282 425.629 135.457C425.796 135.343 425.99 135.277 426.192 135.265C426.393 135.253 426.594 135.297 426.773 135.391C427.883 135.998 430.958 139.99 431.8 140.829C433.951 139.193 436.2 137.689 438.533 136.325C438.738 136.252 438.956 136.223 439.172 136.239C439.389 136.255 439.6 136.315 439.792 136.417C441.904 137.65 443.796 139.226 445.391 141.08C447.409 139.811 452.148 136.093 453.851 136.49ZM432.225 141.267L432.205 141.249L432.225 141.267ZM453.297 138.234H453.28L453.312 138.249H453.293L453.332 138.264H453.316L453.34 138.272L453.274 138.241L453.297 138.234ZM426.494 137.111H426.503H426.494ZM426.494 137.111L426.532 137.099H426.513L426.549 137.084L426.573 137.073C426.542 137.082 426.513 137.093 426.484 137.107L426.494 137.111Z" fill="#030087"/>
<path fill-rule="evenodd" clip-rule="evenodd" d="M423.138 168.994C423.331 169.014 423.518 169.078 423.682 169.182C423.847 169.285 423.987 169.425 424.089 169.59C424.973 170.734 427.141 175.141 427.479 175.676C429.382 174.954 432.973 173.297 434.549 172.87C435.436 172.642 435.834 172.751 436.727 173.524C438.266 175.153 439.592 176.97 440.676 178.932C442.49 178.298 447.313 176.063 449.375 176.19C449.567 176.189 449.756 176.233 449.927 176.318C450.099 176.403 450.248 176.527 450.363 176.68C452.074 178.976 453.433 181.515 454.395 184.212C454.436 184.404 454.478 184.278 454.062 184.935C453.079 184.301 453.895 184.889 452.476 182.605C451.483 181.013 450.379 179.493 449.172 178.056C447.931 178.379 446.724 178.819 445.566 179.37C441.006 181.33 439.999 182.142 439.014 180.726C437.924 178.843 436.66 177.066 435.239 175.419C434.988 175.189 435.05 175.214 434.892 175.26C433.164 175.807 428.925 177.722 427.577 178.053C427.345 178.138 427.094 178.16 426.85 178.117C426.607 178.073 426.379 177.966 426.191 177.806C425.363 176.991 423.799 173.067 422.701 170.986C421.257 171.481 416.278 173.636 415.079 174.226L414.421 174.042L414.603 173.382C415.521 172.807 421.999 168.983 423.138 168.994ZM449.006 177.901H448.99L449.018 177.922L449.001 177.909L449.036 177.934L449.022 177.925L449.042 177.938L448.985 177.893L449.006 177.901ZM427.794 176.193L427.777 176.171L427.794 176.193ZM423.112 170.867C423.112 170.867 423.112 170.867 423.123 170.867H423.112ZM423.112 170.867H423.153H423.133H423.172H423.157H423.182C423.16 170.864 423.138 170.863 423.115 170.864L423.112 170.867Z" fill="#030087"/>
<path fill-rule="evenodd" clip-rule="evenodd" d="M192.368 217.43C194.341 230.264 192.299 250.841 233.212 265.291C280.512 281.995 316.726 210.618 315.955 208.071C315.146 205.403 312.268 203.138 310.693 200.934C308.339 197.751 305.797 194.712 303.08 191.834C302.303 190.981 300.977 189.038 299.938 188.626C299.027 188.266 297.654 189.279 296.878 189.578C294.065 190.677 291.186 191.481 288.382 192.618C282.926 194.838 277.28 196.245 271.713 198.096C267.48 199.503 262.173 201.354 257.597 200.223C256.645 199.988 251.412 186.594 248.544 183.016" fill="white"/>
<path fill-rule="evenodd" clip-rule="evenodd" d="M303.763 190.943C304.715 192.025 307.316 194.702 310.155 198.302C311.568 200.128 311.727 200.461 312.477 201.325C313.681 202.73 317.394 206.361 317.111 208.499C316.464 210.658 315.593 212.744 314.513 214.724C310.715 222.011 306.284 228.95 301.272 235.463C285.043 256.492 262.255 274.338 236.514 267.456C230.85 265.756 225.35 263.553 220.078 260.874C212.337 256.953 204.97 251.797 199.91 244.836C193.652 236.086 193.176 228.5 192.089 219.031C191.864 217.152 191.772 217.675 192.297 216.951C192.944 217.426 192.83 217.222 192.932 217.848C194.094 225.043 194.056 234.454 201.179 243.905C208.713 253.889 222.421 260.624 234.26 264.501C241.829 267.052 249.971 267.376 257.718 265.434C279.362 259.942 297.871 238.67 309.176 219.514C311.262 216.092 313.082 212.514 314.618 208.813C314.691 208.626 314.748 208.434 314.789 208.239C313.996 205.961 311.667 204.227 309.452 201.157C307.757 198.832 306.134 196.917 304.252 194.773C299.871 189.833 300.521 190.264 299.552 189.623C298.959 189.747 298.39 189.972 297.873 190.288C296.236 191.106 291.959 192.269 288.774 193.536C283.889 195.468 279.595 196.559 274.076 198.235C269.914 199.504 265.949 201.057 261.653 201.277C260.159 201.362 258.663 201.201 257.221 200.802C256.054 200.056 253.343 192.77 250.26 186.784C247.951 182.372 248.127 183.88 248.268 182.648L248.941 182.727C251.726 186.126 256.455 197.701 257.913 199.592C259.736 199.944 261.609 199.948 263.434 199.603C265.925 199.17 267.15 198.84 282.171 193.88C286.748 192.339 287.446 191.901 289.64 191.075C291.689 190.315 292.858 189.952 294.698 189.29C295.826 188.936 296.914 188.465 297.944 187.885C300.683 186.613 301.689 188.564 303.763 190.943ZM257.956 199.652L257.945 199.642L257.956 199.652ZM299.559 189.638H299.548H299.559ZM299.559 189.638H299.548H299.559ZM299.559 189.638H299.548H299.559ZM299.543 189.638H299.556H299.543Z" fill="#030087"/>
<path fill-rule="evenodd" clip-rule="evenodd" d="M226.427 62.584C228.172 61.6784 248.386 48.0163 259.507 49.9085C261.613 50.2669 263.802 50.0813 265.919 50.4065C267.376 50.8114 268.904 50.8878 270.393 50.6301C274.403 49.2027 273.171 40.7317 271.65 37.9419C267.018 29.455 258.589 26.2322 249.301 25.7707C245.502 25.3738 241.663 25.74 238.008 26.8476C232.191 28.7952 227.569 33.2551 223.966 38.0101C220.933 42.0084 218.613 46.9489 219.217 52.1083C219.601 54.0634 220.215 55.9662 221.047 57.7767C221.677 59.4881 223.742 63.9781 226.427 62.584Z" fill="#030087"/>
<path fill-rule="evenodd" clip-rule="evenodd" d="M246.214 24.4812C257.207 24.5542 266.928 27.3694 272.4 36.8522C274.512 40.5953 275.342 48.113 272.133 50.914C270.23 52.4921 268.182 51.91 265.748 51.504C264.2 51.2566 262.492 51.3026 260.603 51.1297C259.022 50.8239 257.41 50.7174 255.803 50.8125C244.761 51.6531 229.253 61.6815 226.405 63.1296V63.1169C223.567 64.3017 221.461 60.5142 220.316 57.6498C219.047 54.5856 218.216 53.0377 218.351 49.5341C218.668 42.8823 223.188 36.4145 228.026 31.8007C230.382 29.3826 233.216 27.4826 236.348 26.2222C239.48 24.9619 242.84 24.3689 246.214 24.4812ZM226.429 63.1169L226.405 63.1264V63.1391C226.719 62.9694 226.632 63.0217 226.429 63.1169ZM245.685 26.8555C241.606 26.7564 237.584 27.8257 234.094 29.9371C228.397 33.5787 223.87 38.7844 221.053 44.9315C218.781 50.8109 220.291 53.9592 221.734 57.8053C222.452 59.8053 224.14 63.0788 226.203 62.1621C231.762 58.4683 237.585 55.1875 243.624 52.3462C255.256 47.2518 258.864 48.9394 261.956 49.0536C263.302 49.0609 264.647 49.1409 265.984 49.2931C268.216 49.6103 269.703 50.1368 270.803 49.0377C272.412 47.2487 271.995 43.0901 271.415 40.7444C271.148 39.5526 270.657 38.4224 269.968 37.4137C264.655 28.9808 255.566 26.8555 245.685 26.8555Z" fill="#030087"/>
<path d="M174.082 328.506C181.708 328.506 187.891 322.569 187.891 315.247C187.891 307.924 181.708 301.987 174.082 301.987C166.455 301.987 160.272 307.924 160.272 315.247C160.272 322.569 166.455 328.506 174.082 328.506Z" fill="url(#paint2_linear)"/>
<path fill-rule="evenodd" clip-rule="evenodd" d="M170.248 303.762C168.075 304.35 166.115 305.544 164.596 307.206C163.078 308.867 162.064 310.927 161.673 313.143C161.282 315.36 161.531 317.642 162.39 319.723C163.249 321.803 164.683 323.596 166.524 324.891C174.646 330.621 186.043 325.533 186.667 315.941C187.119 307.239 178.383 301.235 170.248 303.762ZM178.706 301.484C180.781 302.08 182.693 303.137 184.301 304.576C185.909 306.016 187.17 307.801 187.99 309.797C188.809 311.793 189.167 313.949 189.035 316.103C188.903 318.257 188.285 320.353 187.228 322.234C185.834 324.576 183.84 326.502 181.452 327.814C179.063 329.126 176.368 329.775 173.644 329.696C170.921 329.616 168.268 328.81 165.96 327.361C163.653 325.912 161.774 323.873 160.519 321.454C154.913 309.803 166.275 297.67 178.706 301.489V301.484Z" fill="url(#paint3_linear)"/>
<path fill-rule="evenodd" clip-rule="evenodd" d="M174.188 322.07C174.188 322.07 184.427 318.422 181.764 311.304C181.516 310.474 181.006 309.747 180.31 309.232C179.615 308.717 178.771 308.44 177.905 308.445C177.039 308.449 176.198 308.733 175.507 309.256C174.817 309.778 174.314 310.51 174.074 311.342C173.832 310.512 173.328 309.783 172.636 309.264C171.945 308.746 171.104 308.465 170.239 308.465C169.375 308.465 168.534 308.746 167.843 309.264C167.151 309.783 166.647 310.512 166.405 311.342C163.744 318.46 173.801 321.898 174.188 322.07Z" fill="white"/>
<path fill-rule="evenodd" clip-rule="evenodd" d="M178.164 307.223C181.907 307.332 183.812 311.267 183.338 314.628C183.041 316.36 182.203 317.954 180.946 319.181C179.134 320.948 176.973 322.317 174.602 323.2V323.183V323.2C174.053 323.359 173.864 323.238 173.298 323.013C169.393 321.448 165.3 318.636 164.8 314.476C164.606 312.563 165.136 310.646 166.286 309.105C166.759 308.538 167.346 308.079 168.011 307.758C168.675 307.437 169.4 307.261 170.137 307.243C170.875 307.225 171.608 307.365 172.287 307.653C172.966 307.941 173.576 308.371 174.075 308.913C174.609 308.372 175.246 307.943 175.948 307.653C176.65 307.362 177.404 307.216 178.164 307.223ZM175.328 311.308C175.154 311.784 175.094 312.453 174.079 312.545C173.024 312.457 172.986 311.74 172.81 311.277C172.552 310.786 172.164 310.375 171.688 310.089C171.213 309.804 170.668 309.654 170.113 309.657C168.426 309.676 167.542 311.189 167.246 312.844C166.623 316.696 170.665 319.346 174.196 320.774C177.685 319.316 181.633 316.466 180.917 312.669C180.013 308.273 176.075 309.419 175.328 311.308Z" fill="#030087"/>
<path fill-rule="evenodd" clip-rule="evenodd" d="M362.313 220.879C381.346 221.127 395.674 237.945 391.308 256.164C385.969 277.396 358.941 284.293 342.271 270.376C322.041 252.909 334.853 220.828 362.313 220.879ZM354.014 225.648C350.481 226.709 347.207 228.491 344.399 230.882C327.259 245.534 336.31 273.323 360.18 275.962V275.972C365.559 276.316 370.921 275.06 375.587 272.362C380.253 269.664 384.016 265.644 386.4 260.809C395.748 240.789 376.419 219.101 354.014 225.648Z" fill="#030087"/>
<path fill-rule="evenodd" clip-rule="evenodd" d="M373.902 255.653L373.799 256.668C369.658 261.69 362.895 262.67 356.787 260.852C354.523 260.106 352.439 258.897 350.667 257.303L350.634 257.266L350.475 256.249C352.469 255.956 349.888 256.013 355.784 257.266C359.152 258.198 362.688 258.348 366.123 257.704C368.489 257.417 370.781 256.691 372.881 255.563L373.902 255.653Z" fill="#030087"/>
<path fill-rule="evenodd" clip-rule="evenodd" d="M354.74 242.892C355.764 245.004 355.198 243.593 355.374 247.074C355.411 247.55 355.485 247.142 355.024 248.738L353.823 249.407H353.81L352.488 249.023L351.818 247.821C351.73 247.559 351.744 244.332 351.739 244.332L352.199 243.036L353.439 242.435H353.452L354.74 242.892Z" fill="#030087"/>
<path fill-rule="evenodd" clip-rule="evenodd" d="M372.478 242.54C373.503 244.652 372.937 243.239 373.113 246.722C373.149 247.198 373.225 246.79 372.762 248.386L371.561 249.055H371.549L370.226 248.671L369.557 247.469C369.439 247.122 369.519 244.89 369.479 243.98L369.941 242.684L371.179 242.083H371.192L372.478 242.54Z" fill="#030087"/>
<path fill-rule="evenodd" clip-rule="evenodd" d="M175.162 109.916C188.813 110.092 198.4 122.33 195.347 134.471C191.568 149.379 172.746 154.014 161.202 144.371C147.181 132.273 155.988 109.865 175.162 109.916ZM169.355 113.136C166.883 113.88 164.592 115.129 162.627 116.804C150.664 127.032 156.918 146.463 173.673 148.325C177.433 148.572 181.183 147.699 184.447 145.815C187.712 143.932 190.344 141.123 192.012 137.743C198.716 123.219 184.402 108.552 169.355 113.136Z" fill="#030087"/>
<path fill-rule="evenodd" clip-rule="evenodd" d="M182.648 133.278C187.108 133.565 184.375 142.677 176.324 142.842C174.389 143.06 172.43 142.868 170.575 142.277C165.517 140.414 164.305 135.616 166.404 134.279C166.879 134.001 166.583 133.979 174.827 133.568C175.339 133.543 182.143 133.246 182.648 133.278ZM167.619 136.279C167.686 137.157 168.023 137.992 168.583 138.672C169.426 139.679 170.481 140.488 171.672 141.042C172.864 141.596 174.162 141.88 175.476 141.876C177.033 141.815 178.534 141.282 179.781 140.347C181.027 139.412 181.96 138.12 182.454 136.642C182.555 136.301 182.57 135.942 182.5 135.594C175.877 135.977 170.602 136.117 167.619 136.279ZM167.641 136.152V136.142V136.152ZM167.641 136.138V136.115V136.128V136.147L167.653 136.131L167.642 136.146L167.657 136.122L167.645 136.139L167.66 136.115L167.649 136.134L167.66 136.112L167.649 136.133L167.66 136.111L167.641 136.138ZM182.476 135.552H182.469H182.476ZM182.476 135.552L182.461 135.538L182.476 135.552ZM182.469 135.543L182.454 135.521L182.469 135.543L182.454 135.522L182.47 135.544L182.454 135.525L182.473 135.549L182.457 135.532L182.476 135.552V135.541V135.53L182.469 135.543Z" fill="#030087"/>
<path fill-rule="evenodd" clip-rule="evenodd" d="M171.368 125.697C172.488 126.331 173.509 126.717 173.048 127.938C172.802 128.368 172.583 128.503 171.181 129.467C170.109 130.133 168.965 130.677 167.771 131.088L167.103 130.966L167.233 130.298C167.99 129.312 168.845 128.406 169.785 127.592C170.083 127.443 169.649 127.621 167.701 125.768C166.794 124.92 167.024 125.285 166.729 124.442L167.376 124.216C168.777 124.494 170.125 124.994 171.368 125.697Z" fill="#030087"/>
<path fill-rule="evenodd" clip-rule="evenodd" d="M183.168 123.738L182.941 124.385C182.435 124.828 181.804 125.451 181.197 125.959C180.072 126.877 179.879 126.771 180.116 126.89C181.054 127.706 181.91 128.612 182.67 129.595L182.8 130.263L182.131 130.385C182.047 130.36 181.224 130.049 180.776 129.854C180.054 129.57 179.365 129.205 178.724 128.767C178.499 128.542 177.212 127.863 176.854 127.235C176.392 126.013 177.423 125.629 178.535 124.994C179.775 124.284 181.123 123.783 182.526 123.513L183.168 123.738Z" fill="#030087"/>
<path fill-rule="evenodd" clip-rule="evenodd" d="M35.5688 245.402C49.1897 245.439 59.7241 257.94 56.4807 270.836C51.6068 290.07 23.9417 291.656 15.772 274.067C9.51196 260.211 20.3604 245.215 35.5688 245.402ZM29.5277 248.654C26.9533 249.413 24.5696 250.711 22.5345 252.46C20.4994 254.21 18.8593 256.373 17.7228 258.804C12.3208 270.898 20.9552 283.944 34.0209 285.245C45.407 285.856 54.9565 277.177 54.8407 266.371C54.6916 253.566 41.7242 244.938 29.5261 248.654H29.5277Z" fill="#030087"/>
<path fill-rule="evenodd" clip-rule="evenodd" d="M43.3356 269.65C43.9467 269.685 44.5191 269.96 44.9277 270.415C45.3364 270.871 45.548 271.47 45.5164 272.081C45.6512 275.678 41.2944 279.829 35.9638 279.513C26.4476 280.354 23.0995 271.187 27.0947 270.451C28.3096 270.233 42.5759 269.61 43.3356 269.65ZM27.699 272.679C27.6847 273.009 27.7354 273.338 27.8481 273.648C28.5871 275.934 31.4246 278.367 35.894 278.549C35.894 278.746 41.4736 277.992 43.0517 273.572C43.2497 273.081 43.3137 272.546 43.2373 272.022V272.01L43.2215 271.969C43.0581 271.969 27.8639 272.668 27.699 272.679ZM27.7228 272.563L27.7323 272.552L27.7228 272.563ZM27.7228 272.547L27.7148 272.565L27.7307 272.544V272.554L27.7466 272.53L27.7355 272.547L27.7481 272.524L27.7355 272.546L27.7481 272.522V272.532V272.544L27.7592 272.522L27.7228 272.547ZM43.1929 271.943L43.1818 271.934L43.1929 271.943ZM43.1929 271.943L43.1755 271.93L43.1929 271.943ZM43.1929 271.935L43.1834 271.926L43.1755 271.915L43.1929 271.938L43.1755 271.918L43.1961 271.942L43.177 271.923L43.1977 271.943V271.932L43.185 271.916L43.2008 271.94L43.1929 271.926L43.1834 271.915L43.1929 271.935Z" fill="#030087"/>
<path fill-rule="evenodd" clip-rule="evenodd" d="M32.8726 262.508C33.0963 262.645 33.2691 262.851 33.3644 263.095C33.4598 263.34 33.4726 263.608 33.4008 263.861C33.2279 264.336 33.2009 264.336 31.9242 265.258C30.8738 266.028 29.7179 266.643 28.492 267.083C27.7355 267.382 28.0162 267.344 27.2232 267.196C27.3818 266.387 27.247 266.658 27.7672 266.053C28.4415 265.208 29.198 264.432 30.0257 263.737L30.17 263.621C29.1197 262.912 28.1345 262.11 27.2263 261.226C27.0091 261.033 27.1122 261.226 26.8409 260.433L27.4865 260.208C29.4092 260.633 31.2359 261.413 32.8726 262.508Z" fill="#030087"/>
<path fill-rule="evenodd" clip-rule="evenodd" d="M43.8606 259.712L43.6354 260.357L43.6196 260.373C42.6642 261.299 41.631 262.142 40.5316 262.892C41.5371 263.728 42.451 264.669 43.258 265.699C43.4007 265.857 43.3293 265.715 43.4784 266.466C42.7092 266.608 42.8519 266.606 42.6854 266.541C41.496 266.12 40.3583 265.565 39.2945 264.887C39.1834 264.833 37.9003 263.913 37.5879 263.634C37.4059 263.445 37.2909 263.202 37.2605 262.941C37.2301 262.681 37.2861 262.418 37.4198 262.192C37.6339 261.884 37.6513 261.864 38.4935 261.385C39.8788 260.518 41.4015 259.894 42.9963 259.539C43.2833 259.467 43.1025 259.447 43.8606 259.712Z" fill="#030087"/>
<path d="M36.2652 161.982C55.5998 161.982 71.2736 146.935 71.2736 128.372C71.2736 109.81 55.5998 94.7629 36.2652 94.7629C16.9305 94.7629 1.25671 109.81 1.25671 128.372C1.25671 146.935 16.9305 161.982 36.2652 161.982Z" fill="url(#paint4_linear)"/>
<path fill-rule="evenodd" clip-rule="evenodd" d="M26.0067 97.4894C0.286082 105.309 -6.29119 138.189 16.0274 154.323C37.5054 169.519 68.0952 156.466 70.0127 130.246C71.142 106.791 48.0462 90.798 26.0067 97.4894ZM47.4372 95.25C75.5559 104.29 81.3861 139.5 57.7305 156.406C39.7306 169.191 13.5913 163.4 3.53903 143.289C-9.94381 115.607 17.347 85.9352 47.4372 95.25Z" fill="#030087"/>
<path fill-rule="evenodd" clip-rule="evenodd" d="M36.5316 145.668C36.5316 145.668 62.4886 136.407 55.74 118.376C51.2246 106.308 37.553 111.28 36.2445 118.471C34.9361 111.28 21.32 106.403 16.803 118.471C10.0576 136.502 35.553 145.235 36.5316 145.668Z" fill="white"/>
<path fill-rule="evenodd" clip-rule="evenodd" d="M36.5919 146.87C36.2239 146.861 36.2874 146.87 35.442 146.536C26.5983 143.121 16.5683 136.667 14.7443 127.345C14.0287 123.147 14.8533 118.831 17.0663 115.193C21.9116 107.442 31.975 108.931 36.2446 115.275C37.3791 113.542 38.9576 112.146 40.8155 111.231C48.3523 107.434 56.2618 111.562 57.8764 121.767C58.9438 129.175 55.1342 135.119 49.2865 139.825C45.463 142.844 41.176 145.223 36.5919 146.87ZM37.9575 117.139C37.687 117.696 37.4903 118.286 37.3722 118.894C37.2739 119.158 37.0864 119.378 36.8425 119.517C36.5985 119.657 36.3135 119.706 36.0368 119.657C34.7077 119.305 35.4325 118.455 34.1605 116.493C31.1899 111.91 22.2098 109.488 18.3002 118.011C12.8633 130.488 23.929 139.38 36.5396 144.377C36.6982 144.219 61.4212 135.264 54.411 118.285C50.6457 109.277 40.741 111.743 37.9575 117.139Z" fill="#030087"/>
<path d="M344.946 39.902C354.208 39.902 361.715 32.6939 361.715 23.8022C361.715 14.9105 354.208 7.70239 344.946 7.70239C335.685 7.70239 328.177 14.9105 328.177 23.8022C328.177 32.6939 335.685 39.902 344.946 39.902Z" fill="#030087"/>
<path fill-rule="evenodd" clip-rule="evenodd" d="M340.217 9.60901C337.534 10.3386 335.113 11.8166 333.239 13.8703C331.364 15.9241 330.113 18.4688 329.63 21.2073C329.148 23.9458 329.455 26.765 330.515 29.3356C331.575 31.9063 333.345 34.1222 335.617 35.7246C345.682 42.8696 359.884 36.3193 360.485 24.6636C361.129 14.4924 350.843 6.39254 340.217 9.60901ZM350.486 7.33781C352.968 8.05008 355.256 9.31452 357.179 11.0364C359.103 12.7584 360.612 14.8932 361.593 17.2809C362.575 19.6687 363.003 22.2476 362.846 24.8244C362.69 27.4013 361.952 29.9093 360.689 32.1608C359.021 34.965 356.633 37.2723 353.774 38.8437C350.914 40.4151 347.686 41.1935 344.425 41.0982C341.163 41.0029 337.987 40.0375 335.224 38.3018C332.461 36.5662 330.212 34.1234 328.71 31.2266C321.973 17.2188 335.73 2.76211 350.486 7.33781Z" fill="url(#paint5_linear)"/>
<path fill-rule="evenodd" clip-rule="evenodd" d="M345.075 32.0876C345.075 32.0876 357.509 27.6467 354.274 19.0139C353.972 18.0065 353.353 17.1238 352.508 16.4978C351.663 15.8719 350.638 15.5364 349.586 15.5416C348.535 15.5467 347.513 15.8923 346.674 16.5265C345.836 17.1608 345.225 18.0496 344.933 19.0599C344.64 18.0518 344.028 17.166 343.189 16.5358C342.349 15.9055 341.328 15.5647 340.278 15.5647C339.228 15.5647 338.206 15.9055 337.367 16.5358C336.527 17.166 335.915 18.0518 335.622 19.0599C332.393 27.6974 344.605 31.8798 345.075 32.0876Z" fill="white"/>
<path fill-rule="evenodd" clip-rule="evenodd" d="M345.146 33.2913C344.841 33.2834 344.867 33.2992 344.094 32.9947C340.54 31.5562 336.721 29.2422 334.895 25.8703C333.982 24.1693 333.674 22.2085 334.022 20.3094C334.369 18.4103 335.352 16.6856 336.808 15.4183C338.061 14.5741 339.579 14.2172 341.076 14.415C342.573 14.6128 343.946 15.3516 344.937 16.4921C345.551 15.8152 346.298 15.2725 347.132 14.8978C347.966 14.5231 348.868 14.3245 349.782 14.3145C352.908 14.3541 354.849 16.4873 355.696 19.496C357.103 24.768 353.666 28.8171 348.945 31.5673C347.747 32.2833 346.473 32.8616 345.146 33.2913ZM349.745 16.7236C349.071 16.7338 348.41 16.9107 347.821 17.2387C347.232 17.5667 346.734 18.0354 346.37 18.6031C345.96 19.3564 346.261 19.6007 345.533 20.1066C345.289 20.2456 345.005 20.2953 344.729 20.2469C344.452 20.1985 344.202 20.0553 344.02 19.8418C343.636 19.3025 343.861 19.366 343.579 18.7553C343.111 17.9273 342.357 17.2993 341.457 16.9898C340.558 16.6803 339.577 16.7109 338.699 17.0757C337.809 17.7063 337.117 18.5759 336.701 19.5838C336.285 20.5918 336.163 21.6969 336.35 22.7712C336.968 26.6522 341.425 29.3262 345.073 30.7949C348.618 29.3421 352.952 26.4761 353.546 22.6665C353.735 21.1481 353.4 19.6106 352.594 18.3097C352.302 17.8171 351.884 17.4109 351.384 17.1323C350.883 16.8537 350.318 16.7127 349.745 16.7236Z" fill="#030087"/>
<path d="M332.542 338.753C341.803 338.753 349.311 331.545 349.311 322.653C349.311 313.761 341.803 306.553 332.542 306.553C323.281 306.553 315.773 313.761 315.773 322.653C315.773 331.545 323.281 338.753 332.542 338.753Z" fill="url(#paint6_linear)"/>
<path fill-rule="evenodd" clip-rule="evenodd" d="M327.811 308.468C325.128 309.197 322.707 310.675 320.833 312.729C318.958 314.783 317.707 317.328 317.224 320.066C316.742 322.805 317.049 325.624 318.109 328.194C319.169 330.765 320.939 332.981 323.211 334.583C333.249 341.709 347.478 335.218 348.077 323.522C348.723 313.343 338.437 305.243 327.811 308.468ZM338.08 306.197C340.562 306.909 342.849 308.174 344.773 309.896C346.696 311.618 348.205 313.752 349.186 316.14C350.167 318.528 350.596 321.107 350.439 323.683C350.282 326.26 349.545 328.768 348.282 331.019C346.613 333.823 344.225 336.13 341.366 337.701C338.506 339.272 335.279 340.051 332.017 339.955C328.756 339.86 325.579 338.895 322.816 337.159C320.054 335.424 317.805 332.982 316.303 330.085C309.567 316.07 323.325 301.613 338.08 306.189V306.197Z" fill="#030087"/>
<path fill-rule="evenodd" clip-rule="evenodd" d="M332.67 330.939C332.67 330.939 345.103 326.498 341.869 317.865C341.568 316.857 340.949 315.974 340.104 315.348C339.259 314.722 338.234 314.386 337.183 314.391C336.131 314.397 335.109 314.742 334.271 315.377C333.432 316.011 332.822 316.901 332.531 317.911C332.237 316.903 331.625 316.018 330.785 315.388C329.945 314.758 328.924 314.417 327.874 314.417C326.824 314.417 325.803 314.758 324.963 315.388C324.124 316.018 323.511 316.903 323.218 317.911C319.988 326.549 332.199 330.731 332.67 330.939Z" fill="white"/>
<path fill-rule="evenodd" clip-rule="evenodd" d="M332.734 332.141C332.429 332.141 332.455 332.15 331.684 331.846C328.129 330.407 324.31 328.093 322.485 324.721C321.57 323.021 321.26 321.061 321.606 319.162C321.952 317.263 322.933 315.538 324.388 314.269C325.64 313.425 327.158 313.068 328.656 313.266C330.153 313.464 331.526 314.203 332.516 315.343C333.131 314.666 333.878 314.123 334.712 313.748C335.545 313.374 336.448 313.175 337.362 313.166C340.489 313.205 342.437 315.338 343.278 318.345C344.684 323.619 341.246 327.668 336.524 330.418C335.33 331.135 334.059 331.712 332.734 332.141ZM337.343 315.575C336.669 315.585 336.008 315.762 335.419 316.09C334.83 316.418 334.331 316.886 333.968 317.454C333.555 318.206 333.857 318.452 333.13 318.958C332.886 319.097 332.602 319.146 332.325 319.098C332.049 319.049 331.798 318.906 331.616 318.693C331.233 318.154 331.457 318.217 331.176 317.605C330.708 316.777 329.953 316.15 329.054 315.841C328.155 315.532 327.174 315.562 326.296 315.927C325.406 316.557 324.713 317.426 324.297 318.434C323.881 319.442 323.759 320.548 323.946 321.622C324.564 325.503 329.021 328.177 332.669 329.646C336.213 328.193 340.547 325.327 341.141 321.518C341.329 319.998 340.99 318.46 340.18 317.161C339.889 316.67 339.473 316.265 338.975 315.986C338.476 315.708 337.913 315.566 337.343 315.575Z" fill="#030087"/>
<path fill-rule="evenodd" clip-rule="evenodd" d="M392.832 112.885C392.248 113.616 390.264 121.028 390.662 133.567C391.196 150.341 394.396 173.332 395.523 173.376C407.173 173.917 407.223 113.386 392.832 112.885Z" fill="white"/>
<path fill-rule="evenodd" clip-rule="evenodd" d="M393.1 112.414C397.555 112.639 400.338 118.291 401.748 122.523C405.276 133.111 405.837 147.834 404.286 158.833C403.493 164.321 401.469 174.218 395.923 174.576C395.664 174.629 395.396 174.613 395.146 174.529C394.895 174.446 394.671 174.298 394.495 174.101C392.605 171.769 388.151 137.511 390.434 120.861C390.67 119.075 391.558 113.735 392.435 112.599C392.654 112.368 392.821 112.399 393.1 112.414ZM391.969 119.051C391.352 124.925 391.283 130.844 391.763 136.731C392.281 144.696 394.48 166.927 396.192 172.121C405.044 169.893 405.943 115.251 393.192 113.4L393.114 113.391C392.553 115.237 392.17 117.132 391.969 119.051Z" fill="#030087"/>
<path fill-rule="evenodd" clip-rule="evenodd" d="M383.222 126.856L384.061 127.947V127.958L383.874 129.322C382.478 130.398 383.101 130.065 381.336 130.536C371.493 133.172 360.971 137.862 348.085 143.375C345.832 144.305 343.643 145.381 341.53 146.596C337.842 148.799 339.482 148.542 337.746 148.398L337.836 147.384C338.72 146.595 339.655 145.865 340.634 145.199C345.249 142.052 360.021 135.091 363.695 133.422C369.554 130.687 375.625 128.428 381.848 126.669L383.222 126.856Z" fill="white"/>
<defs>
<linearGradient id="paint0_linear" x1="84.896" y1="407.482" x2="84.896" y2="0.911133" gradientUnits="userSpaceOnUse">
<stop stop-color="#F39A82"/>
<stop offset="1" stop-color="#FDD5B0"/>
</linearGradient>
<linearGradient id="paint1_linear" x1="326.629" y1="178.423" x2="326.629" y2="109.01" gradientUnits="userSpaceOnUse">
<stop stop-color="#F39A82"/>
<stop offset="1" stop-color="#FDD5B0"/>
</linearGradient>
<linearGradient id="paint2_linear" x1="160.121" y1="328.506" x2="160.121" y2="301.987" gradientUnits="userSpaceOnUse">
<stop stop-color="#F39A82"/>
<stop offset="1" stop-color="#FDD5B0"/>
</linearGradient>
<linearGradient id="paint3_linear" x1="158.884" y1="329.702" x2="158.884" y2="300.772" gradientUnits="userSpaceOnUse">
<stop stop-color="#F39A82"/>
<stop offset="1" stop-color="#FDD5B0"/>
</linearGradient>
<linearGradient id="paint4_linear" x1="0.872848" y1="161.982" x2="0.872848" y2="94.7629" gradientUnits="userSpaceOnUse">
<stop stop-color="#F39A82"/>
<stop offset="1" stop-color="#FDD5B0"/>
</linearGradient>
<linearGradient id="paint5_linear" x1="326.753" y1="41.106" x2="326.753" y2="6.47534" gradientUnits="userSpaceOnUse">
<stop stop-color="#F39A82"/>
<stop offset="1" stop-color="#FDD5B0"/>
</linearGradient>
<linearGradient id="paint6_linear" x1="315.589" y1="338.753" x2="315.589" y2="306.553" gradientUnits="userSpaceOnUse">
<stop stop-color="#F39A82"/>
<stop offset="1" stop-color="#FDD5B0"/>
</linearGradient>
</defs>
</svg>
