<svg width="460" height="348" viewBox="0 0 460 348" fill="none" xmlns="http://www.w3.org/2000/svg">
<path fill-rule="evenodd" clip-rule="evenodd" d="M104.98 124.165C105.521 124.165 105.959 124.606 105.959 125.151V233.321C105.959 233.865 105.521 234.307 104.98 234.307C104.439 234.307 104 233.865 104 233.321V125.151C104 124.606 104.439 124.165 104.98 124.165Z" fill="#030087"/>
<path fill-rule="evenodd" clip-rule="evenodd" d="M105.957 74.4087C105.957 74.4084 105.957 74.4081 105.957 74.4079L105.957 74.4087ZM104 74.5053C104 74.497 103.999 74.4874 103.999 74.4765C103.997 74.4377 103.994 74.3827 103.992 74.3126C103.987 74.1723 103.983 73.9712 103.984 73.718C103.986 73.2119 104.011 72.4952 104.099 71.6376C104.274 69.9278 104.703 67.6289 105.729 65.3156C106.758 62.9966 108.396 60.6465 110.988 58.8802C113.584 57.1112 117.07 55.9739 121.718 55.9739H176.913C176.914 55.9739 176.914 55.9739 176.914 56.9597C176.914 57.9455 176.914 57.9455 176.913 57.9455H121.718C117.399 57.9455 114.309 58.9976 112.086 60.5128C109.858 62.0307 108.432 64.0596 107.518 66.1195C106.601 68.1852 106.209 70.2653 106.047 71.8397C105.967 72.6242 105.945 73.2759 105.943 73.7277C105.942 73.9534 105.946 74.1286 105.95 74.2449C105.952 74.303 105.954 74.3464 105.955 74.3739L105.957 74.4032L105.957 74.4079M104 74.5053V89.1834C104 89.7278 104.439 90.1692 104.98 90.1692C105.521 90.1692 105.959 89.7278 105.959 89.1834V74.4755C105.959 74.4532 105.958 74.4309 105.957 74.4087M177.893 56.9597C177.893 57.5041 177.454 57.9455 176.913 57.9455L176.914 56.9597L176.913 55.9739C177.454 55.9739 177.893 56.4152 177.893 56.9597Z" fill="#030087"/>
<path fill-rule="evenodd" clip-rule="evenodd" d="M242.488 56.9594C242.488 56.415 242.927 55.9736 243.468 55.9736H291.224C291.765 55.9736 292.204 56.415 292.204 56.9594C292.204 57.5039 291.765 57.9452 291.224 57.9452H243.468C242.927 57.9452 242.488 57.5039 242.488 56.9594Z" fill="#030087"/>
<path fill-rule="evenodd" clip-rule="evenodd" d="M239.765 147.547C239.765 147.002 240.203 146.561 240.744 146.561H310.885C311.426 146.561 311.864 147.002 311.864 147.547V177.899C311.864 178.443 311.426 178.884 310.885 178.884C310.344 178.884 309.905 178.443 309.905 177.899V148.533H240.744C240.203 148.533 239.765 148.091 239.765 147.547Z" fill="#030087"/>
<path fill-rule="evenodd" clip-rule="evenodd" d="M310.885 183.096C308.344 183.096 306.285 185.169 306.285 187.726C306.285 190.283 308.344 192.356 310.885 192.356C313.425 192.356 315.485 190.283 315.485 187.726C315.485 185.169 313.425 183.096 310.885 183.096ZM304.326 187.726C304.326 184.08 307.263 181.125 310.885 181.125C314.507 181.125 317.444 184.08 317.444 187.726C317.444 191.372 314.507 194.328 310.885 194.328C307.263 194.328 304.326 191.372 304.326 187.726Z" fill="#030087"/>
<path fill-rule="evenodd" clip-rule="evenodd" d="M231.379 143.652C228.838 143.652 226.779 145.725 226.779 148.282C226.779 150.839 228.838 152.912 231.379 152.912C233.919 152.912 235.979 150.839 235.979 148.282C235.979 145.725 233.919 143.652 231.379 143.652ZM224.82 148.282C224.82 144.636 227.757 141.681 231.379 141.681C235.001 141.681 237.938 144.636 237.938 148.282C237.938 151.928 235.001 154.884 231.379 154.884C227.757 154.884 224.82 151.928 224.82 148.282Z" fill="#030087"/>
<path fill-rule="evenodd" clip-rule="evenodd" d="M167.15 132.822C164.038 132.822 161.487 135.389 161.487 138.522V156.439C161.487 159.571 164.038 162.138 167.15 162.138H213.379C216.558 162.138 219.042 159.638 219.042 156.439V138.522C219.042 135.389 216.491 132.822 213.379 132.822H167.15ZM159.528 138.522C159.528 134.3 162.956 130.851 167.15 130.851H213.379C217.573 130.851 221 134.3 221 138.522V156.439C221 160.727 217.639 164.11 213.379 164.11H167.15C162.956 164.11 159.528 160.66 159.528 156.439V138.522Z" fill="#030087"/>
<path d="M205.807 170.612H159.578C155.925 170.612 152.936 167.604 152.936 163.927V146.077C152.936 142.4 155.925 139.391 159.578 139.391H205.807C209.46 139.391 212.449 142.4 212.449 146.077V163.993C212.449 167.67 209.46 170.612 205.807 170.612Z" fill="url(#paint0_linear)"/>
<path fill-rule="evenodd" clip-rule="evenodd" d="M244.53 170.394C241.484 170.394 239 172.894 239 175.96V195.548C239 198.614 241.484 201.114 244.53 201.114H292.353C295.399 201.114 297.883 198.614 297.883 195.548V175.96C297.883 172.894 295.399 170.394 292.353 170.394H244.53ZM237.042 175.96C237.042 171.806 240.403 168.423 244.53 168.423H292.353C296.481 168.423 299.842 171.806 299.842 175.96V195.548C299.842 199.703 296.481 203.086 292.353 203.086H244.53C240.403 203.086 237.042 199.703 237.042 195.548V175.96Z" fill="#030087"/>
<path d="M238.021 37.4382H181.231V106.766H238.021V37.4382Z" fill="white"/>
<path fill-rule="evenodd" clip-rule="evenodd" d="M180.252 37.4382C180.252 36.8937 180.69 36.4524 181.231 36.4524H238.021C238.562 36.4524 239 36.8937 239 37.4382V106.766C239 107.31 238.562 107.752 238.021 107.752H181.231C180.69 107.752 180.252 107.31 180.252 106.766V37.4382ZM182.211 38.424V105.78H237.042V38.424H182.211Z" fill="#030087"/>
<path d="M445.786 101.351H322.974C315.136 101.351 308.759 94.9329 308.759 87.0441V14.3068C308.759 6.418 315.136 0 322.974 0H445.786C453.624 0 460 6.418 460 14.3068V87.0441C459.934 94.9329 453.624 101.351 445.786 101.351Z" fill="url(#paint1_linear)"/>
<path fill-rule="evenodd" clip-rule="evenodd" d="M313.077 19.3036C305.78 19.3036 299.842 25.2803 299.842 32.6246V105.362C299.842 112.706 305.78 118.683 313.077 118.683H435.823C443.117 118.683 449.06 112.708 449.124 105.357V32.6246C449.124 25.2803 443.186 19.3036 435.889 19.3036H313.077ZM297.883 32.6246C297.883 24.1914 304.698 17.332 313.077 17.332H435.889C444.268 17.332 451.083 24.1914 451.083 32.6246V105.362L451.083 105.37C451.012 113.795 444.203 120.655 435.823 120.655H313.077C304.698 120.655 297.883 113.795 297.883 105.362V32.6246Z" fill="#030087"/>
<path fill-rule="evenodd" clip-rule="evenodd" d="M193.602 64.581C193.602 64.0366 194.041 63.5952 194.582 63.5952H225.003C225.543 63.5952 225.982 64.0366 225.982 64.581C225.982 65.1255 225.543 65.5668 225.003 65.5668H194.582C194.041 65.5668 193.602 65.1255 193.602 64.581Z" fill="#030087"/>
<path fill-rule="evenodd" clip-rule="evenodd" d="M193.602 75.0105C193.602 74.466 194.041 74.0247 194.582 74.0247H225.002C225.543 74.0247 225.982 74.466 225.982 75.0105C225.982 75.5549 225.543 75.9963 225.002 75.9963H194.582C194.041 75.9963 193.602 75.5549 193.602 75.0105Z" fill="#030087"/>
<path fill-rule="evenodd" clip-rule="evenodd" d="M193.602 85.4397C193.602 84.8952 194.041 84.4539 194.582 84.4539H225.002C225.543 84.4539 225.982 84.8952 225.982 85.4397C225.982 85.9841 225.543 86.4255 225.002 86.4255H194.582C194.041 86.4255 193.602 85.9841 193.602 85.4397Z" fill="#030087"/>
<path fill-rule="evenodd" clip-rule="evenodd" d="M330.944 38.424C325.212 38.424 320.565 43.1009 320.565 48.8703C320.565 54.6396 325.212 59.3165 330.944 59.3165C336.676 59.3165 341.323 54.6396 341.323 48.8703C341.323 43.1009 336.676 38.424 330.944 38.424ZM318.607 48.8703C318.607 42.0121 324.13 36.4524 330.944 36.4524C337.758 36.4524 343.281 42.0121 343.281 48.8703C343.281 55.7285 337.758 61.2881 330.944 61.2881C324.13 61.2881 318.607 55.7285 318.607 48.8703Z" fill="#030087"/>
<path fill-rule="evenodd" clip-rule="evenodd" d="M357.33 44.8591C357.33 44.3146 357.769 43.8733 358.309 43.8733H432.435C432.976 43.8733 433.415 44.3146 433.415 44.8591C433.415 45.4035 432.976 45.8449 432.435 45.8449H358.309C357.769 45.8449 357.33 45.4035 357.33 44.8591Z" fill="#030087"/>
<path fill-rule="evenodd" clip-rule="evenodd" d="M318.607 76.1467C318.607 75.6022 319.045 75.1609 319.586 75.1609H351.136C351.677 75.1609 352.115 75.6022 352.115 76.1467C352.115 76.6911 351.677 77.1325 351.136 77.1325H319.586C319.045 77.1325 318.607 76.6911 318.607 76.1467Z" fill="#030087"/>
<path fill-rule="evenodd" clip-rule="evenodd" d="M369.684 76.1467C369.684 75.6022 370.123 75.1609 370.664 75.1609H432.435C432.976 75.1609 433.415 75.6022 433.415 76.1467C433.415 76.6911 432.976 77.1325 432.435 77.1325H370.664C370.123 77.1325 369.684 76.6911 369.684 76.1467Z" fill="#030087"/>
<path d="M159.179 195.816C159.179 195.816 154.596 179.236 154.596 177.966C154.596 176.696 154.796 173.219 156.855 172.885C158.914 172.551 160.574 172.016 162.301 175.96C163.962 179.905 166.951 189.264 171.401 180.907C175.917 172.551 180.965 154.233 180.965 154.233C180.965 154.233 182.095 151.96 185.748 151.826C189.401 151.692 188.803 154.5 188.139 157.91C187.408 161.319 183.489 172.952 183.489 172.952C183.489 172.952 189.069 172.484 189.401 177.966C189.401 177.966 195.312 178.969 194.449 185.32C193.585 191.671 188.405 202.434 188.405 202.434L159.179 195.816Z" fill="white"/>
<path fill-rule="evenodd" clip-rule="evenodd" d="M187.216 153.063C187.006 152.923 186.592 152.781 185.783 152.811C184.17 152.87 183.173 153.394 182.592 153.854C182.296 154.088 182.098 154.315 181.978 154.473C181.932 154.533 181.898 154.583 181.875 154.62L181.85 154.707C181.812 154.845 181.755 155.047 181.681 155.307C181.534 155.827 181.318 156.578 181.045 157.505C180.5 159.36 179.725 161.92 178.808 164.742C176.982 170.363 174.568 177.109 172.263 181.376C171.132 183.497 169.939 184.825 168.574 185.171C167.085 185.548 165.89 184.669 165.059 183.685C164.209 182.68 163.495 181.294 162.905 179.978C162.526 179.131 162.169 178.243 161.858 177.471C161.692 177.056 161.538 176.675 161.402 176.351C160.579 174.475 159.883 173.929 159.375 173.747C158.84 173.556 158.286 173.647 157.332 173.805C157.229 173.822 157.123 173.84 157.011 173.858C156.587 173.927 156.183 174.344 155.894 175.348C155.625 176.284 155.576 177.362 155.576 177.966C155.576 177.96 155.576 177.962 155.577 177.972C155.58 177.996 155.588 178.066 155.612 178.204C155.642 178.376 155.689 178.605 155.75 178.886C155.872 179.448 156.049 180.189 156.263 181.052C156.69 182.777 157.261 184.962 157.834 187.112C158.406 189.261 158.978 191.371 159.408 192.944C159.622 193.731 159.801 194.383 159.926 194.838C159.94 194.889 159.954 194.938 159.966 194.984L187.855 201.299C187.984 201.02 188.147 200.665 188.336 200.246C188.831 199.147 189.5 197.616 190.195 195.889C191.598 192.406 193.065 188.228 193.479 185.186C193.858 182.396 192.773 180.897 191.657 180.047C191.074 179.602 190.459 179.321 189.983 179.151C189.747 179.066 189.551 179.011 189.418 178.978C189.352 178.962 189.301 178.951 189.27 178.944C189.255 178.941 189.244 178.939 189.239 178.938L189.237 178.938C189.236 178.938 189.236 178.937 189.235 178.937C188.787 178.86 188.451 178.482 188.423 178.026C188.351 176.832 188.001 176.032 187.568 175.48C187.13 174.921 186.56 174.557 185.962 174.32C185.361 174.083 184.755 173.984 184.29 173.947C184.06 173.929 183.871 173.926 183.743 173.928C183.679 173.929 183.631 173.931 183.602 173.932C183.587 173.933 183.577 173.934 183.571 173.934C183.571 173.934 183.57 173.934 183.57 173.934C183.57 173.934 183.569 173.934 183.569 173.934C183.569 173.934 183.568 173.934 183.568 173.934C183.568 173.934 183.568 173.934 183.568 173.934C183.24 173.961 182.92 173.82 182.718 173.559C182.514 173.297 182.456 172.95 182.562 172.635L183.489 172.952C182.562 172.635 182.562 172.635 182.562 172.635L182.606 172.505C182.635 172.419 182.677 172.293 182.731 172.131C182.839 171.807 182.995 171.34 183.184 170.769C183.562 169.627 184.074 168.069 184.608 166.406C185.683 163.06 186.825 159.36 187.18 157.711L187.202 157.594C187.361 156.779 187.504 156.044 187.587 155.379C187.676 154.673 187.683 154.133 187.602 153.735C187.528 153.367 187.394 153.181 187.216 153.063ZM184.834 172.022C184.897 171.83 184.967 171.619 185.042 171.393C185.422 170.247 185.935 168.683 186.472 167.012C187.537 163.696 188.718 159.882 189.096 158.117L189.1 158.099C189.11 158.049 189.12 157.999 189.129 157.949C189.284 157.158 189.439 156.36 189.531 155.625C189.628 154.85 189.666 154.057 189.522 153.343C189.372 152.6 189.013 151.895 188.296 151.418C187.611 150.962 186.731 150.803 185.712 150.841C183.672 150.915 182.278 151.594 181.381 152.304C180.938 152.655 180.626 153.006 180.42 153.278C180.317 153.414 180.24 153.531 180.186 153.619C180.159 153.664 180.138 153.701 180.122 153.73C180.114 153.745 180.107 153.757 180.102 153.767L180.095 153.781L180.092 153.787L180.09 153.791C180.09 153.791 180.089 153.792 180.965 154.233L180.089 153.792C180.061 153.849 180.039 153.908 180.022 153.969L180.965 154.233C180.022 153.969 180.022 153.969 180.022 153.969L180.021 153.972L180.008 154.02L179.965 154.173C179.927 154.308 179.871 154.508 179.798 154.765C179.652 155.28 179.438 156.025 179.167 156.945C178.625 158.787 177.856 161.329 176.946 164.13C175.119 169.756 172.751 176.346 170.54 180.436L170.538 180.442C169.443 182.497 168.595 183.132 168.096 183.259C167.721 183.354 167.231 183.213 166.551 182.408C165.889 181.625 165.267 180.453 164.69 179.167C164.322 178.346 164.001 177.545 163.703 176.803C163.53 176.372 163.365 175.96 163.203 175.576L163.197 175.563C162.294 173.5 161.298 172.342 160.03 171.889C158.983 171.515 157.889 171.705 157.026 171.856C156.912 171.876 156.803 171.895 156.699 171.912C155.063 172.177 154.338 173.666 154.012 174.801C153.667 176.004 153.617 177.3 153.617 177.966C153.617 178.143 153.651 178.361 153.683 178.547C153.72 178.757 153.773 179.015 153.837 179.309C153.965 179.897 154.146 180.66 154.362 181.529C154.794 183.271 155.368 185.469 155.942 187.622C156.515 189.777 157.089 191.891 157.519 193.467C157.734 194.254 157.913 194.908 158.038 195.364C158.101 195.592 158.15 195.771 158.184 195.893L158.236 196.079C158.236 196.079 158.236 196.08 159.179 195.816L158.236 196.08C158.332 196.43 158.612 196.698 158.964 196.778L188.19 203.396C188.633 203.497 189.088 203.276 189.286 202.864L188.405 202.434C189.286 202.864 189.286 202.864 189.286 202.864L189.286 202.863L189.29 202.855L189.302 202.831L189.347 202.737C189.386 202.655 189.443 202.534 189.515 202.379C189.66 202.069 189.868 201.619 190.12 201.06C190.623 199.943 191.303 198.387 192.011 196.629C193.414 193.142 194.969 188.763 195.419 185.453C195.903 181.892 194.465 179.714 192.84 178.475C192.053 177.875 191.245 177.509 190.639 177.293C190.52 177.25 190.407 177.213 190.304 177.181C190.126 175.978 189.699 175.015 189.106 174.259C188.404 173.364 187.517 172.817 186.679 172.486C186.016 172.223 185.368 172.089 184.834 172.022ZM181.836 154.685C181.835 154.686 181.835 154.686 181.836 154.684L181.836 154.685Z" fill="#030087"/>
<path fill-rule="evenodd" clip-rule="evenodd" d="M183.878 171.954C184.389 172.134 184.659 172.696 184.481 173.21C183.957 174.719 182.798 177.133 181.798 179.122C181.292 180.126 180.818 181.04 180.471 181.703C180.297 182.034 180.155 182.303 180.056 182.489C180.006 182.582 179.968 182.655 179.941 182.704L179.901 182.78C179.901 182.78 179.901 182.78 179.039 182.311L178.178 181.842L178.216 181.77C178.242 181.722 178.28 181.651 178.329 181.559C178.426 181.376 178.567 181.11 178.739 180.783C179.082 180.127 179.551 179.223 180.05 178.231C181.059 176.225 182.158 173.926 182.631 172.56C182.809 172.046 183.368 171.775 183.878 171.954ZM178.573 183.179C178.097 182.92 177.92 182.321 178.178 181.842L179.039 182.311L179.901 182.78C179.644 183.259 179.049 183.438 178.573 183.179Z" fill="#030087"/>
<path fill-rule="evenodd" clip-rule="evenodd" d="M189.565 176.927C190.098 177.018 190.457 177.527 190.366 178.064C190.045 179.971 189.117 182.293 188.308 184.082C187.897 184.989 187.507 185.782 187.218 186.349C187.074 186.633 186.955 186.86 186.872 187.017C186.83 187.096 186.797 187.157 186.775 187.199L186.749 187.248L186.742 187.261L186.739 187.265C186.739 187.265 186.739 187.266 185.881 186.791L186.739 187.265C186.478 187.742 185.882 187.917 185.409 187.654C184.935 187.392 184.762 186.793 185.022 186.316C185.022 186.316 185.022 186.316 185.022 186.316L185.024 186.313L185.029 186.303L185.052 186.26C185.073 186.222 185.103 186.165 185.143 186.09C185.222 185.941 185.336 185.723 185.475 185.45C185.753 184.903 186.13 184.138 186.525 183.265C187.327 181.494 188.159 179.37 188.435 177.734C188.526 177.197 189.031 176.836 189.565 176.927Z" fill="#030087"/>
<path d="M30.3225 346.037C30.3889 343.229 30.5882 335.14 30.721 327.051C31.0531 306.326 30.5218 306.125 29.6583 305.791C29.5255 305.724 29.3262 305.724 29.1269 305.724C28.5956 305.724 27.8649 305.991 26.4037 306.459C23.8797 307.329 20.0937 308.599 16.5069 308.599C13.5844 308.599 11.3261 307.796 9.732 306.058C9.33347 305.657 8.93495 305.256 8.60284 304.855C2.69138 298.838 -2.82157 293.155 5.2818 269.69C13.5844 245.823 32.0495 215.538 34.1749 212.128L82.9279 197.955C84.6549 198.222 98.8026 200.696 105.577 216.407C113.614 235.126 120.854 250.636 127.829 250.636C128.36 250.636 128.958 250.502 129.489 250.302C136.663 247.561 139.784 239.338 144.766 225.031C149.615 211.058 152.205 202.501 152.271 202.434C152.338 202.301 154.131 195.013 160.375 193.944C162.832 193.543 165.821 193.142 169.142 193.142C178.973 193.142 187.209 196.885 193.519 204.306L187.607 236.062L137.792 296.899C136.663 297.1 132.81 297.635 128.758 297.635C124.707 297.635 121.651 297.1 119.659 296.03C119.526 295.963 119.327 295.896 119.194 295.896C118.995 295.896 118.795 295.963 118.662 296.03C118.33 296.231 118.197 296.565 118.197 296.899C118.197 297.033 119.061 309.2 120.19 321.435C121.651 337.413 122.648 343.563 123.312 346.037H30.3225Z" fill="#030087"/>
<path d="M169.01 194.011C178.441 194.011 186.279 197.554 192.323 204.507L186.545 235.527L137.127 295.897C135.666 296.097 132.212 296.565 128.626 296.565C124.773 296.565 121.784 296.03 119.991 295.027C119.725 294.894 119.393 294.76 119.061 294.76C118.662 294.76 118.33 294.894 117.998 295.094C117.4 295.495 117.068 296.164 117.135 296.899C117.135 297.033 117.998 309.201 119.127 321.435C120.389 335.073 121.253 341.625 121.983 344.968H31.3188C31.3853 341.558 31.5845 334.271 31.7174 326.984C32.0495 305.59 31.5845 305.39 30.0568 304.788C29.7911 304.654 29.459 304.654 29.1934 304.654C28.5292 304.654 27.7321 304.922 26.138 305.457C23.6804 306.259 20.0273 307.529 16.5734 307.529C13.9165 307.529 11.9239 306.794 10.4626 305.323C10.0641 304.922 9.66558 304.521 9.33348 304.12C6.47738 301.178 3.75412 298.437 2.69138 293.69C1.42938 288.141 2.62496 280.386 6.21169 269.957C14.2486 246.759 31.983 217.543 34.8391 212.931L82.9944 198.891C85.2527 199.225 98.2712 201.9 104.648 216.741C114.345 239.338 120.921 251.572 127.829 251.572C128.493 251.572 129.157 251.439 129.821 251.171C137.393 248.296 140.648 239.873 145.696 225.299C150.545 211.326 153.201 202.769 153.201 202.635C153.201 202.568 153.201 202.568 153.201 202.501C153.268 202.234 154.862 195.749 160.508 194.813C162.965 194.412 165.755 194.011 169.01 194.011ZM169.01 192.072C165.423 192.072 162.367 192.54 160.109 192.941C153.069 194.144 151.209 202.1 151.209 202.1C151.209 202.1 148.618 210.591 143.703 224.697C138.788 238.803 135.733 246.826 128.958 249.366C128.559 249.5 128.094 249.633 127.629 249.633C121.12 249.633 113.282 232.318 106.242 216.006C98.7361 198.624 82.6623 196.952 82.6623 196.952L33.3779 211.326C33.3779 211.326 13.0531 243.75 4.15264 269.422C-4.74777 295.027 2.49212 300.242 8.80211 306.794C10.8612 308.933 13.518 309.602 16.3077 309.602C21.887 309.602 27.7321 306.727 28.9941 306.727C29.0605 306.727 29.1269 306.727 29.1269 306.727C30.3225 307.195 29.1269 347.04 29.1269 347.04H124.507C122.249 345.502 118.862 296.833 118.862 296.833C121.319 298.17 124.972 298.571 128.426 298.571C133.408 298.571 137.991 297.769 137.991 297.769L188.205 236.463L194.25 204.039C186.345 194.211 176.648 192.072 169.01 192.072Z" fill="#030087"/>
<path fill-rule="evenodd" clip-rule="evenodd" d="M34.8223 214.967C35.356 215.031 35.7367 215.519 35.6727 216.056L34.7063 215.939L33.74 215.822C33.804 215.285 34.2886 214.902 34.8223 214.967ZM34.7063 215.939C33.74 215.822 33.74 215.822 33.74 215.822L33.6951 216.203C33.6658 216.452 33.6229 216.818 33.5684 217.289C33.4593 218.232 33.3034 219.594 33.1164 221.271C32.7425 224.626 32.2439 229.246 31.7452 234.303C30.7496 244.399 29.7478 256.296 29.7478 263.339C29.7478 269.165 29.5858 276.356 29.4306 283.239C29.4001 284.593 29.3699 285.934 29.3412 287.251C29.1674 295.232 29.0487 302.361 29.2854 305.661C29.3241 306.201 29.7901 306.607 30.3262 306.568C30.8623 306.529 31.2656 306.06 31.2269 305.52C30.9986 302.336 31.1124 295.325 31.2873 287.294C31.3159 285.981 31.346 284.643 31.3765 283.291C31.5316 276.409 31.6943 269.19 31.6943 263.339C31.6943 256.409 32.6852 244.606 33.6822 234.496C34.1799 229.45 34.6775 224.839 35.0508 221.49C35.2375 219.815 35.393 218.456 35.5018 217.516C35.5562 217.046 35.599 216.681 35.6281 216.433L35.6727 216.056C35.6727 216.056 35.6727 216.056 34.7063 215.939Z" fill="white"/>
<path d="M118.995 294.827C109.43 289.412 76.0202 274.57 69.9095 236.062C69.9095 236.062 73.9612 294.359 119.725 304.722L118.995 294.827Z" fill="white"/>
<path d="M79.4741 185.921C79.4741 185.921 95.083 187.793 95.2159 169.007C95.2159 169.007 99.2675 165.197 99.0019 163.191C98.7362 161.185 91.1642 158.979 91.1642 158.979L91.8948 135.513L58.3522 145.274L52.3743 167.67L79.4741 185.921Z" fill="white"/>
<path fill-rule="evenodd" clip-rule="evenodd" d="M92.4956 134.735C92.743 134.928 92.8836 135.229 92.8737 135.544L92.1665 158.258C92.3135 158.305 92.4791 158.359 92.6595 158.419C93.3871 158.662 94.3657 159.009 95.3579 159.422C96.3417 159.832 97.3773 160.323 98.1989 160.86C98.609 161.129 98.9991 161.43 99.3069 161.764C99.606 162.088 99.9016 162.524 99.9727 163.061C100.082 163.885 99.7486 164.734 99.3845 165.414C98.9999 166.132 98.4749 166.851 97.966 167.476C97.4532 168.106 96.9349 168.667 96.5467 169.068C96.4106 169.209 96.2897 169.331 96.1898 169.43C96.101 174.056 95.0838 177.514 93.5382 180.086C91.944 182.739 89.8244 184.388 87.7166 185.399C85.6185 186.406 83.5382 186.779 81.9932 186.903C81.2181 186.965 80.5704 186.966 80.112 186.95C79.8827 186.943 79.7001 186.931 79.572 186.921C79.508 186.915 79.4575 186.911 79.4216 186.907C79.4036 186.905 79.3892 186.904 79.3786 186.903L79.3656 186.901L79.3612 186.901L79.3595 186.9C79.3588 186.9 79.3582 186.9 79.4741 185.921L79.3582 186.9C79.2048 186.882 79.0578 186.827 78.9294 186.741L51.8297 168.49C51.4809 168.255 51.3196 167.822 51.4284 167.414L57.4063 145.018C57.4953 144.685 57.7509 144.423 58.0802 144.327L91.6228 134.566C91.9237 134.479 92.2481 134.541 92.4956 134.735ZM79.8097 184.961C79.9047 184.968 80.0286 184.975 80.178 184.98C80.5738 184.993 81.1465 184.993 81.8369 184.938C83.2228 184.826 85.0529 184.493 86.8737 183.619C88.6848 182.75 90.4922 181.345 91.8621 179.065C93.2346 176.781 94.2042 173.559 94.2365 169C94.2384 168.73 94.3507 168.472 94.547 168.287L94.5484 168.286L94.5554 168.279L94.5857 168.25C94.6128 168.224 94.6536 168.185 94.706 168.134C94.8109 168.031 94.9619 167.88 95.1429 167.693C95.5061 167.317 95.9841 166.8 96.4509 166.226C96.9218 165.648 97.3599 165.039 97.6603 164.478C97.9763 163.888 98.0524 163.511 98.032 163.329C98.0291 163.323 98.0027 163.248 97.8707 163.105C97.7136 162.934 97.4686 162.734 97.1314 162.513C96.4585 162.073 95.5513 161.636 94.6089 161.244C93.6748 160.855 92.7438 160.525 92.0434 160.291C91.694 160.174 91.404 160.083 91.2022 160.02C91.1013 159.989 91.0226 159.965 90.9697 159.949L90.91 159.931L90.8956 159.927L90.8924 159.926M79.8097 184.961L53.5023 167.244L59.1548 146.067L90.8737 136.837L90.1852 158.948C90.1712 159.398 90.462 159.801 90.8917 159.926" fill="#030087"/>
<path fill-rule="evenodd" clip-rule="evenodd" d="M87.2499 169.176C87.25 169.176 87.2498 169.176 87.2499 169.176C86.9391 168.731 86.3286 168.623 85.886 168.935C85.4431 169.248 85.3358 169.863 85.6463 170.309L86.4483 169.743C85.6463 170.309 85.6465 170.309 85.6467 170.309L85.6485 170.312L85.6522 170.317L85.6639 170.333C85.6738 170.347 85.6875 170.366 85.705 170.39C85.7401 170.439 85.7905 170.507 85.8552 170.591C85.9844 170.76 86.1717 170.995 86.4095 171.271C86.8829 171.819 87.568 172.539 88.406 173.206C90.0346 174.504 92.5148 175.809 95.1811 174.736C95.6833 174.534 95.9276 173.96 95.7267 173.455C95.5258 172.949 94.9558 172.703 94.4536 172.905C92.8025 173.57 91.0982 172.837 89.6216 171.66C88.907 171.091 88.3093 170.466 87.8881 169.978C87.6786 169.735 87.5156 169.53 87.4065 169.387C87.3519 169.316 87.311 169.261 87.2846 169.224C87.2714 169.206 87.2619 169.193 87.2561 169.185L87.2503 169.177L87.2499 169.176Z" fill="#030087"/>
<path fill-rule="evenodd" clip-rule="evenodd" d="M62.7994 161.06C63.0516 160.579 63.644 160.394 64.1225 160.648L69.0377 163.255C69.3203 163.405 69.5126 163.684 69.5527 164.003C69.5928 164.322 69.4758 164.641 69.2392 164.857L65.6525 168.133C65.2519 168.499 64.6325 168.469 64.269 168.066C63.9055 167.662 63.9356 167.039 64.3362 166.673L66.8872 164.343L63.2092 162.392C62.7307 162.138 62.5472 161.542 62.7994 161.06Z" fill="#030087"/>
<path d="M65.5256 128.895C61.1419 133.909 36.3668 125.218 33.7764 144.004C31.186 162.589 37.0975 168.74 37.0975 168.74C37.0975 168.74 22.6841 168.138 25.4074 182.913C28.1306 197.688 32.5808 192.072 32.5808 192.072C32.5808 192.072 18.7653 196.819 20.5586 205.242C22.352 213.666 31.7838 221.555 42.9425 214.535C42.9425 214.535 51.7101 225.098 64.4629 223.36C77.1493 221.622 72.1013 207.315 72.1013 207.315C72.1013 207.315 87.1789 202.902 84.7877 192.139C82.3966 181.375 79.8062 173.219 69.9758 171.615C69.9758 171.615 62.4703 173.085 60.4112 170.478C58.3522 167.871 57.4887 162.188 60.1455 159.581C62.736 156.974 68.9795 158.444 70.9722 159.848C72.9648 161.319 90.035 147.213 90.3671 138.722L91.4962 149.553C91.4962 149.553 97.5406 141.731 96.2786 135.513C95.0166 129.296 79.2084 113.318 65.5256 128.895Z" fill="white"/>
<path fill-rule="evenodd" clip-rule="evenodd" d="M93.5984 129.012C95.5209 131.197 96.873 133.517 97.2382 135.316C97.9382 138.765 96.6109 142.531 95.2372 145.304C94.5382 146.716 93.8001 147.924 93.2373 148.778C92.9554 149.206 92.7163 149.547 92.5464 149.783C92.4615 149.901 92.3937 149.993 92.3464 150.056C92.3228 150.088 92.3043 150.112 92.2913 150.129L92.276 150.149L92.2702 150.157L92.2697 150.158C92.2695 150.158 92.2694 150.158 91.4963 149.553L92.2697 150.158C92.0243 150.475 91.6115 150.611 91.2272 150.501C90.8429 150.39 90.5639 150.056 90.5222 149.656L89.8959 143.648C89.4369 144.558 88.8905 145.469 88.2876 146.365C86.5601 148.932 84.2831 151.498 81.9706 153.732C79.6582 155.966 77.2807 157.897 75.3347 159.186C74.3669 159.826 73.4714 160.331 72.7237 160.628C72.3524 160.776 71.9742 160.89 71.6162 160.927C71.2811 160.962 70.8116 160.946 70.4048 160.652C69.5864 160.078 67.7099 159.397 65.6844 159.191C63.6208 158.981 61.8068 159.303 60.8381 160.278L60.8293 160.287C59.7925 161.304 59.3555 163.031 59.487 164.962C59.6177 166.881 60.2972 168.75 61.1779 169.865C61.4902 170.26 62.0879 170.586 62.9929 170.795C63.8771 170.998 64.9198 171.059 65.9466 171.039C66.9664 171.019 67.9309 170.92 68.6436 170.826C68.9987 170.779 69.2886 170.734 69.4882 170.7C69.588 170.684 69.665 170.67 69.7161 170.661C69.7417 170.656 69.7608 170.652 69.773 170.65L69.7862 170.648L69.7887 170.647C69.902 170.625 70.0186 170.623 70.1326 170.642C75.3493 171.493 78.6936 174.115 81.0073 177.928C83.2783 181.671 84.5508 186.555 85.7435 191.924C87.0692 197.891 83.496 202.036 79.9034 204.57C78.093 205.848 76.2158 206.767 74.7991 207.366C74.2188 207.611 73.7122 207.804 73.3147 207.947C73.4188 208.332 73.5387 208.819 73.6518 209.382C73.9376 210.804 74.188 212.747 74.0153 214.77C73.8427 216.793 73.2408 218.96 71.7614 220.75C70.2676 222.557 67.965 223.875 64.595 224.337L64.5943 224.337C57.9127 225.247 52.2996 222.931 48.3948 220.431C46.4396 219.18 44.8973 217.873 43.842 216.878C43.3906 216.452 43.0271 216.082 42.7575 215.796C37.1602 219.039 31.9067 218.78 27.7755 216.549C23.5251 214.253 20.553 209.921 19.601 205.449C18.567 200.592 22.0713 196.954 25.3416 194.687C26.2938 194.026 27.2617 193.456 28.1585 192.978C27.6804 192.494 27.2296 191.849 26.8078 191.031C25.9444 189.358 25.1334 186.831 24.4444 183.093C23.7354 179.246 24.1232 176.291 25.2028 174.037C26.2833 171.782 28.0069 170.333 29.7817 169.41C31.5471 168.492 33.3835 168.083 34.7593 167.9C34.9414 167.875 35.116 167.855 35.2822 167.838C34.7441 166.902 34.0955 165.525 33.5276 163.625C32.3267 159.608 31.4949 153.278 32.8064 143.868C33.4892 138.917 35.6608 135.684 38.659 133.61C41.6117 131.569 45.279 130.713 48.8687 130.305C51.1931 130.041 53.5918 129.959 55.7771 129.884C56.9316 129.844 58.0267 129.806 59.0198 129.745C60.4943 129.654 61.7585 129.513 62.7702 129.257C63.7954 128.998 64.4346 128.651 64.7904 128.244L64.7919 128.242C68.3348 124.208 72.0787 122.151 75.7591 121.512C79.4299 120.874 82.9358 121.663 85.9853 123.143C89.0304 124.621 91.6532 126.802 93.5984 129.012ZM37.0569 169.725L37.0543 169.725L37.0316 169.724C37.0099 169.724 36.9754 169.723 36.9288 169.723C36.8358 169.722 36.6951 169.722 36.5145 169.728C36.1527 169.74 35.6334 169.772 35.0165 169.854C33.775 170.02 32.1782 170.383 30.6807 171.162C29.1926 171.935 27.8234 173.106 26.9673 174.894C26.1103 176.682 25.7177 179.192 26.3703 182.733C27.0429 186.382 27.8094 188.694 28.5463 190.123C29.1763 191.344 29.7358 191.829 30.1153 192.016C30.7372 191.735 31.2616 191.52 31.6362 191.373C31.8305 191.298 31.9848 191.24 32.0918 191.201C32.1454 191.181 32.1871 191.166 32.2162 191.156L32.2501 191.144L32.2598 191.141L32.2627 191.14L32.2637 191.139C32.2641 191.139 32.2644 191.139 32.5808 192.072C33.3465 192.687 33.346 192.687 33.3455 192.688L33.3444 192.689L33.3419 192.693L33.3355 192.7C33.3306 192.706 33.3246 192.714 33.3175 192.722C33.3032 192.739 33.2843 192.761 33.261 192.788C33.2145 192.84 33.1498 192.91 33.0682 192.99C32.9068 193.149 32.6703 193.356 32.3702 193.549C31.8861 193.861 31.1672 194.173 30.3181 194.093C29.1717 194.64 27.7887 195.384 26.4529 196.31C23.2637 198.522 20.7569 201.469 21.5163 205.036C22.3576 208.988 24.9981 212.811 28.7016 214.811C32.3515 216.782 37.1247 217.032 42.4234 213.699C42.838 213.438 43.3801 213.525 43.6937 213.903M43.6937 213.903L43.6966 213.906L43.7116 213.924C43.7258 213.94 43.7483 213.967 43.7791 214.002C43.8405 214.072 43.9346 214.177 44.0602 214.313C44.3115 214.584 44.6883 214.974 45.1814 215.439C46.1685 216.37 47.6152 217.595 49.446 218.767C53.1131 221.115 58.2599 223.21 64.3308 222.383C67.304 221.976 69.1279 220.853 70.2556 219.489C71.3977 218.107 71.9125 216.372 72.0637 214.601C72.2148 212.83 71.9962 211.088 71.7319 209.773C71.6005 209.119 71.4596 208.58 71.3525 208.207C71.299 208.02 71.2541 207.876 71.2232 207.78C71.2078 207.732 71.1959 207.696 71.1882 207.673L71.1799 207.649L71.1784 207.645C71.1783 207.644 71.1785 207.645 71.1784 207.645C71.0884 207.389 71.1068 207.107 71.2296 206.865C71.3524 206.624 71.5686 206.444 71.8273 206.368L71.8281 206.368L71.8336 206.366L71.8605 206.358C71.8854 206.351 71.9238 206.339 71.9749 206.323C72.0771 206.29 72.2297 206.24 72.4248 206.172C72.8153 206.037 73.3748 205.83 74.0405 205.548C75.3762 204.984 77.1189 204.127 78.779 202.956C82.1274 200.594 84.8974 197.15 83.8319 192.354C82.6335 186.96 81.4152 182.383 79.3356 178.956C77.323 175.639 74.501 173.395 69.9834 172.615C69.9348 172.624 69.8769 172.634 69.8104 172.645C69.5915 172.682 69.279 172.731 68.8983 172.781C68.1393 172.881 67.0988 172.988 65.9847 173.01C64.8778 173.031 63.6581 172.971 62.5559 172.717C61.4744 172.468 60.3618 172 59.6445 171.092C58.4662 169.599 57.6844 167.323 57.5328 165.097C57.3822 162.885 57.8409 160.469 59.4575 158.879C61.0796 157.251 63.6797 157.005 65.8816 157.23C68.0507 157.45 70.2201 158.166 71.4233 158.965C71.5358 158.952 71.7259 158.905 72.0043 158.794C72.5728 158.568 73.3405 158.146 74.2584 157.538C76.0839 156.33 78.3684 154.479 80.6141 152.31C82.8597 150.14 85.0371 147.679 86.6659 145.259C88.3137 142.811 89.3164 140.526 89.3885 138.684C89.4087 138.167 89.8219 137.754 90.3352 137.737C90.8485 137.72 91.2876 138.105 91.3412 138.62L92.1904 146.765C92.5998 146.094 93.0507 145.3 93.4841 144.425C94.8171 141.733 95.881 138.479 95.319 135.711C95.0532 134.401 93.9559 132.392 92.132 130.319C90.3305 128.272 87.9095 126.266 85.1345 124.919C82.3638 123.575 79.2733 122.902 76.0924 123.455C72.9211 124.006 69.5581 125.793 66.2598 129.547C65.5196 130.393 64.4262 130.871 63.2479 131.169C62.0555 131.471 60.6447 131.62 59.1396 131.713C58.0395 131.781 56.893 131.82 55.7138 131.86C53.5847 131.932 51.3492 132.008 49.0883 132.264C45.6125 132.659 42.3263 133.466 39.7682 135.235C37.2557 136.973 35.3591 139.697 34.7465 144.139L34.7463 144.141C33.4676 153.316 34.2962 159.354 35.4034 163.057C35.9573 164.91 36.5828 166.186 37.0554 166.984C37.292 167.383 37.4908 167.663 37.6242 167.838C37.691 167.925 37.7414 167.985 37.7721 168.021C37.7874 168.039 37.7978 168.05 37.8028 168.056C37.8043 168.058 37.8053 168.059 37.8059 168.059C37.8062 168.06 37.8059 168.059 37.8059 168.059L37.8049 168.058L37.8034 168.057M37.0569 169.725C37.0571 169.725 37.0574 169.725 37.0577 169.725L37.0569 169.725ZM71.355 158.969C71.3552 158.969 71.3584 158.969 71.3641 158.969C71.3576 158.969 71.3547 158.969 71.355 158.969ZM32.5808 192.072L33.3465 192.687C33.6178 192.344 33.6322 191.863 33.3818 191.505C33.1314 191.147 32.6762 190.998 32.2644 191.139L32.5808 192.072ZM31.8197 191.452C31.8203 191.451 31.8198 191.451 31.8185 191.453L31.8197 191.452Z" fill="#030087"/>
<path d="M353.527 171.147C353.527 171.147 339.313 167.136 344.427 149.82C349.542 132.505 362.428 143.336 362.428 143.336C362.428 143.336 376.442 130.7 387.402 146.611C391.586 147.48 412.775 155.704 394.243 174.958L388.93 177.832L378.302 181.242L353.527 171.147Z" fill="#030087"/>
<path d="M311.283 346.037L305.77 244.887C316.265 222.758 346.819 218.948 347.084 218.948C347.35 218.948 347.616 218.747 347.749 218.546C347.881 218.346 347.948 218.012 347.881 217.744C344.959 204.975 353.992 199.292 355.387 198.49L384.745 196.819C385.476 196.752 386.206 196.752 386.871 196.752C393.579 196.752 398.76 198.758 402.214 202.635C408.258 209.521 407.063 220.285 407.063 220.418C407.063 220.686 407.129 220.953 407.262 221.154C407.461 221.354 407.727 221.488 407.992 221.488C422.937 221.956 432.834 238.068 433.432 239.004C434.162 240.675 451.83 279.852 457.144 303.384C461.993 324.778 455.616 342.628 454.221 346.037H311.283Z" fill="#030087"/>
<path d="M386.937 197.688C393.38 197.688 398.295 199.56 401.55 203.237C407.328 209.788 406.133 220.151 406.133 220.218C406.066 220.753 406.199 221.354 406.598 221.755C406.93 222.156 407.461 222.424 407.992 222.424C422.206 222.892 431.838 238.135 432.568 239.405C433.564 241.678 450.967 280.32 456.214 303.518C460.797 323.507 455.284 340.488 453.624 344.968H312.213L306.7 245.021C317.062 223.627 346.819 219.883 347.151 219.883C347.682 219.817 348.213 219.549 348.546 219.081C348.878 218.613 349.011 218.078 348.878 217.477C346.221 205.911 353.992 200.429 355.719 199.426L384.811 197.822C385.542 197.755 386.206 197.688 386.937 197.688ZM386.937 195.749C386.206 195.749 385.476 195.749 384.745 195.816L355.188 197.487C355.188 197.487 343.63 203.504 346.951 217.945C346.951 217.945 315.534 221.622 304.774 244.686L310.353 347.04H454.952C454.952 347.04 463.653 327.452 458.14 303.184C452.627 278.916 434.295 238.536 434.295 238.536C434.295 238.536 424.066 221.02 408.059 220.552C408.059 220.485 411.114 195.749 386.937 195.749Z" fill="#030087"/>
<path d="M398.361 213.131C396.834 216.474 392.118 218.814 386.671 220.485C377.572 223.293 366.612 224.162 366.612 224.162C359.97 222.758 356.516 220.217 354.856 217.343C351.8 211.994 355.254 205.576 356.782 203.103C357.18 202.501 357.446 202.1 357.446 202.1C357.446 202.1 380.228 200.562 385.675 200.763C385.741 200.763 385.808 200.763 385.874 200.763C390.922 201.03 402.413 204.172 398.361 213.131Z" fill="#030087"/>
<path fill-rule="evenodd" clip-rule="evenodd" d="M395.882 288.657C396.112 288.164 396.696 287.954 397.185 288.186C414.537 296.431 424.812 305.37 430.76 312.291C433.733 315.751 435.621 318.701 436.771 320.802C437.346 321.852 437.735 322.689 437.984 323.27C438.108 323.561 438.197 323.788 438.256 323.945C438.285 324.024 438.307 324.085 438.322 324.129C438.33 324.151 438.336 324.168 438.34 324.18L438.345 324.196L438.347 324.201L438.347 324.203C438.348 324.204 438.348 324.204 437.417 324.51L438.348 324.204C438.516 324.722 438.235 325.279 437.721 325.447C437.207 325.616 436.654 325.334 436.486 324.817L436.486 324.816L436.485 324.812C436.483 324.807 436.479 324.796 436.474 324.781C436.464 324.752 436.447 324.704 436.422 324.639C436.374 324.51 436.296 324.311 436.184 324.049C435.96 323.524 435.598 322.745 435.055 321.753C433.969 319.769 432.159 316.933 429.278 313.581C423.52 306.881 413.47 298.104 396.349 289.969C395.86 289.737 395.651 289.149 395.882 288.657Z" fill="white"/>
<path fill-rule="evenodd" clip-rule="evenodd" d="M369.048 315.256C369.467 314.912 370.084 314.975 370.426 315.397C370.627 315.644 371.283 316.283 372.369 317.274C373.427 318.24 374.83 319.485 376.461 320.912C379.723 323.766 383.88 327.336 387.977 330.828C392.073 334.32 396.104 337.732 399.112 340.272C400.616 341.542 401.864 342.594 402.736 343.328C403.172 343.695 403.514 343.982 403.747 344.178L404.103 344.478C404.103 344.478 404.103 344.478 403.476 345.235C402.848 345.992 402.848 345.992 402.848 345.992L402.491 345.691C402.257 345.495 401.915 345.207 401.479 344.84C400.607 344.105 399.358 343.053 397.853 341.783C394.844 339.242 390.81 335.827 386.711 332.332C382.612 328.838 378.447 325.263 375.176 322.4C373.541 320.97 372.126 319.714 371.053 318.735C370.009 317.781 369.223 317.031 368.909 316.643C368.567 316.221 368.629 315.6 369.048 315.256ZM404.228 345.867C403.881 346.285 403.263 346.34 402.848 345.992L403.476 345.235L404.103 344.478C404.518 344.827 404.574 345.449 404.228 345.867Z" fill="white"/>
<path fill-rule="evenodd" clip-rule="evenodd" d="M402.537 258.832C403.029 258.606 403.61 258.824 403.835 259.319L402.944 259.728L402.054 260.138C401.829 259.643 402.045 259.058 402.537 258.832ZM402.944 259.728C402.054 260.138 402.053 260.138 402.054 260.138L402.062 260.156L402.087 260.213C402.11 260.264 402.144 260.34 402.189 260.44C402.278 260.64 402.408 260.935 402.574 261.316C402.906 262.077 403.378 263.179 403.939 264.538C405.061 267.256 406.536 270.998 407.947 275.094C409.36 279.193 410.703 283.63 411.57 287.742C412.441 291.881 412.806 295.585 412.341 298.268C412.248 298.804 412.605 299.315 413.138 299.408C413.671 299.502 414.178 299.143 414.271 298.606C414.802 295.539 414.37 291.53 413.486 287.333C412.596 283.11 411.225 278.588 409.798 274.448C408.37 270.304 406.88 266.524 405.748 263.781C405.182 262.41 404.704 261.296 404.368 260.524C404.2 260.138 404.067 259.838 403.976 259.634C403.931 259.531 403.896 259.453 403.872 259.4L403.845 259.34L403.835 259.319C403.835 259.318 403.835 259.319 402.944 259.728Z" fill="white"/>
<path d="M397.697 183.114C397.431 191.069 385.144 189.064 385.144 189.064L385.741 200.763L386.738 220.485C377.638 223.293 366.679 224.162 366.679 224.162C360.036 222.758 356.583 220.218 354.922 217.343H360.501V204.173C359.107 204.173 357.845 203.772 356.782 203.103C353.195 200.897 351.335 195.95 351.003 194.479C350.605 192.54 351.003 161.52 351.003 161.52C354.988 167.202 379.697 163.392 379.697 163.392C379.697 163.392 380.029 170.812 379.963 174.088C379.896 177.364 382.553 177.231 382.553 177.231C393.911 170.411 397.963 175.091 397.697 183.114Z" fill="white"/>
<path fill-rule="evenodd" clip-rule="evenodd" d="M350.713 160.578C351.118 160.452 351.559 160.602 351.803 160.951C352.153 161.45 352.787 161.918 353.754 162.321C354.713 162.719 355.921 163.021 357.316 163.235C360.104 163.663 363.496 163.722 366.809 163.602C370.114 163.482 373.301 163.185 375.665 162.919C376.846 162.785 377.819 162.66 378.496 162.567C378.835 162.521 379.099 162.484 379.278 162.458C379.368 162.444 379.436 162.434 379.482 162.427L379.533 162.42L379.548 162.417C379.548 162.417 379.549 162.417 379.559 162.486L379.549 162.417C379.823 162.375 380.103 162.452 380.318 162.629C380.533 162.807 380.663 163.068 380.675 163.347L379.697 163.392C380.675 163.347 380.675 163.347 380.675 163.347L380.69 163.675C380.699 163.885 380.711 164.188 380.726 164.562C380.757 165.311 380.796 166.344 380.834 167.479C380.908 169.741 380.976 172.44 380.942 174.108C380.928 174.793 381.057 175.224 381.202 175.494C381.344 175.76 381.53 175.924 381.718 176.031C381.914 176.144 382.122 176.2 382.289 176.226C382.296 176.227 382.304 176.228 382.311 176.229C387.895 172.93 392.097 172.17 394.954 173.742C397.878 175.351 398.811 179.069 398.676 183.147C398.6 185.433 397.639 187.071 396.225 188.178C394.851 189.253 393.106 189.787 391.473 190.046C389.829 190.307 388.21 190.303 387.014 190.237C386.709 190.22 386.429 190.199 386.181 190.177L386.719 200.713L387.716 220.435C387.739 220.886 387.454 221.295 387.025 221.428C382.407 222.853 377.336 223.781 373.437 224.352C371.484 224.638 369.817 224.836 368.637 224.963C368.047 225.026 367.578 225.071 367.257 225.101C367.096 225.116 366.971 225.127 366.887 225.134L366.79 225.142L366.765 225.144L366.758 225.145L366.756 225.145C366.756 225.145 366.755 225.145 366.679 224.162L366.755 225.145C366.662 225.152 366.569 225.146 366.477 225.127C359.68 223.69 355.926 221.042 354.075 217.839C353.899 217.534 353.898 217.157 354.073 216.851C354.248 216.546 354.572 216.357 354.922 216.357H359.522V205.099C358.322 204.953 357.223 204.542 356.267 203.942C354.276 202.715 352.814 200.768 351.82 199.001C350.823 197.23 350.237 195.536 350.048 194.697L350.044 194.679C350.002 194.475 349.978 194.169 349.96 193.846C349.94 193.497 349.923 193.054 349.91 192.532C349.882 191.488 349.865 190.11 349.856 188.517C349.837 185.33 349.849 181.266 349.874 177.266C349.899 173.265 349.937 169.326 349.968 166.387C349.983 164.917 349.997 163.697 350.007 162.845C350.013 162.419 350.017 162.084 350.019 161.856L350.024 161.507C350.024 161.507 350.024 161.507 351.003 161.52L350.024 161.507C350.029 161.08 350.308 160.705 350.713 160.578ZM351.957 163.629C351.948 164.39 351.938 165.332 351.926 166.408C351.895 169.345 351.858 173.282 351.833 177.279C351.808 181.276 351.796 185.331 351.814 188.505C351.824 190.093 351.841 191.456 351.868 192.48C351.881 192.992 351.897 193.414 351.915 193.733C351.924 193.893 351.934 194.022 351.943 194.12C351.948 194.17 351.952 194.208 351.956 194.237C351.959 194.257 351.96 194.269 351.961 194.275C352.109 194.916 352.618 196.42 353.524 198.029C354.439 199.654 355.699 201.282 357.293 202.262L357.301 202.267C358.215 202.842 359.298 203.187 360.501 203.187C361.042 203.187 361.481 203.628 361.481 204.173V217.343C361.481 217.887 361.042 218.329 360.501 218.329H356.844C358.592 220.291 361.613 222.064 366.741 223.168C366.821 223.161 366.934 223.151 367.078 223.138C367.391 223.109 367.85 223.064 368.429 223.002C369.589 222.878 371.231 222.683 373.155 222.401C376.802 221.867 381.437 221.023 385.721 219.763L384.763 200.814L384.165 189.114C384.15 188.817 384.27 188.528 384.49 188.33C384.71 188.131 385.008 188.043 385.3 188.091C385.3 188.091 385.3 188.091 385.3 188.091L385.144 189.064C385.3 188.091 385.3 188.091 385.3 188.091L385.304 188.091L385.326 188.095C385.346 188.098 385.377 188.102 385.418 188.108C385.501 188.12 385.625 188.136 385.785 188.155C386.105 188.192 386.566 188.238 387.121 188.268C388.238 188.33 389.707 188.33 391.168 188.098C392.641 187.864 394.017 187.408 395.022 186.621C395.986 185.867 396.662 184.772 396.718 183.081C396.718 183.081 396.718 183.081 396.718 183.081C396.849 179.136 395.889 176.503 394.014 175.471C392.116 174.427 388.7 174.688 383.055 178.077C382.917 178.16 382.762 178.207 382.602 178.215L382.553 177.231C382.602 178.215 382.601 178.215 382.601 178.215L382.6 178.215L382.597 178.215L382.591 178.216L382.575 178.216C382.563 178.217 382.549 178.217 382.532 178.217C382.499 178.217 382.455 178.217 382.402 178.215C382.298 178.211 382.156 178.2 381.989 178.174C381.66 178.123 381.208 178.008 380.748 177.744C380.28 177.476 379.814 177.059 379.477 176.429C379.142 175.803 378.964 175.022 378.984 174.068C379.016 172.461 378.951 169.812 378.876 167.544C378.839 166.415 378.799 165.388 378.769 164.642C378.768 164.601 378.766 164.56 378.764 164.521C378.763 164.521 378.761 164.521 378.759 164.521C378.069 164.615 377.081 164.743 375.883 164.878C373.489 165.148 370.25 165.45 366.88 165.572C363.518 165.694 359.986 165.64 357.02 165.184C355.538 164.956 354.162 164.623 353.006 164.143C352.64 163.991 352.288 163.82 351.957 163.629Z" fill="#030087"/>
<path fill-rule="evenodd" clip-rule="evenodd" d="M347.916 217.374C348.449 217.283 348.955 217.643 349.046 218.18C349.251 219.389 349.942 220.533 350.96 221.595C351.976 222.655 353.266 223.581 354.563 224.349C355.856 225.114 357.124 225.705 358.071 226.105C358.543 226.304 358.934 226.455 359.204 226.556C359.339 226.606 359.443 226.644 359.513 226.668C359.548 226.68 359.575 226.689 359.592 226.695L359.61 226.701L359.614 226.703C360.127 226.874 360.406 227.432 360.235 227.948C360.065 228.465 359.511 228.746 358.998 228.574L359.306 227.639C358.998 228.574 358.998 228.574 358.998 228.574L358.994 228.573L358.987 228.571L358.961 228.562C358.939 228.554 358.908 228.544 358.868 228.53C358.787 228.501 358.672 228.46 358.525 228.405C358.232 228.296 357.815 228.135 357.313 227.923C356.311 227.5 354.96 226.871 353.57 226.048C352.185 225.228 350.732 224.198 349.55 222.964C348.37 221.733 347.409 220.244 347.115 218.511C347.024 217.975 347.383 217.466 347.916 217.374Z" fill="white"/>
<path fill-rule="evenodd" clip-rule="evenodd" d="M405.013 211.567C405.505 211.793 405.721 212.378 405.495 212.873C401.489 221.675 392.837 225.679 385.4 227.502C381.662 228.418 378.174 228.798 375.623 228.95C374.346 229.026 373.301 229.045 372.572 229.045C372.207 229.045 371.921 229.04 371.725 229.035C371.627 229.032 371.551 229.03 371.499 229.028L371.439 229.026L371.422 229.025L371.417 229.025L371.416 229.025C371.415 229.025 371.415 229.025 371.461 228.04L371.415 229.025C370.875 228.999 370.457 228.538 370.482 227.994C370.508 227.45 370.966 227.03 371.506 227.055C371.506 227.055 371.506 227.055 371.506 227.055L371.506 227.055L371.507 227.055L371.507 227.055C371.507 227.055 371.507 227.055 371.506 227.055M371.507 227.055L371.509 227.055L371.52 227.056L371.57 227.058C371.615 227.059 371.683 227.062 371.773 227.064C371.955 227.068 372.224 227.073 372.572 227.073C373.267 227.073 374.274 227.055 375.508 226.982C377.978 226.835 381.343 226.467 384.937 225.586C392.162 223.815 400.082 220.031 403.714 212.052C403.94 211.557 404.521 211.34 405.013 211.567" fill="white"/>
<path fill-rule="evenodd" clip-rule="evenodd" d="M398.504 219.624C398.573 218.965 399.16 218.487 399.815 218.556L399.69 219.75C399.815 218.556 399.814 218.556 399.815 218.556L399.819 218.557L399.829 218.558L399.864 218.562C399.895 218.565 399.939 218.57 399.997 218.577C400.112 218.591 400.279 218.611 400.49 218.638C400.912 218.693 401.512 218.776 402.227 218.891C403.654 219.12 405.56 219.479 407.443 219.996C408.078 220.17 408.452 220.83 408.279 221.469C408.106 222.109 407.45 222.486 406.815 222.311C405.045 221.825 403.231 221.482 401.851 221.261C401.164 221.15 400.588 221.07 400.186 221.018C399.986 220.992 399.828 220.973 399.722 220.961C399.669 220.955 399.629 220.95 399.602 220.947L399.573 220.944L399.565 220.943C398.91 220.874 398.435 220.283 398.504 219.624Z" fill="#030087"/>
<path d="M369.136 316.488C369.136 316.488 362.959 313.212 370.996 305.323C379.033 297.434 389.594 289.144 389.594 289.144C389.594 289.144 396.767 285.334 396.767 289.144C396.767 292.955 387.003 304.12 380.228 309.401C373.453 314.683 369.136 316.488 369.136 316.488Z" fill="white"/>
<path d="M376.376 311.273C370.996 301.379 369.601 301.379 369.136 301.379C367.94 301.379 360.568 302.649 357.977 303.05L346.287 272.899C348.678 272.23 355.055 270.76 361.298 270.76C365.881 270.76 369.468 271.562 372.059 273.099C380.096 277.913 390.258 292.153 392.45 295.295C388.797 299.707 380.361 309.201 376.376 311.273Z" fill="white"/>
<path d="M361.232 269.757V271.695C365.616 271.695 369.07 272.431 371.527 273.902C378.966 278.381 388.332 291.217 391.188 295.228C384.28 303.518 379.232 308.131 376.708 309.869C371.461 300.376 370.066 300.376 369.07 300.376C367.874 300.376 361.896 301.379 358.509 301.98L347.483 273.634C350.339 272.899 355.785 271.762 361.166 271.762L361.232 269.757ZM361.232 269.757C353.062 269.757 344.959 272.23 344.959 272.23L357.313 304.12C357.313 304.12 367.741 302.315 369.136 302.315C370.531 302.315 375.977 312.476 375.977 312.476C380.826 310.939 393.712 295.295 393.712 295.295C393.712 295.295 381.822 277.846 372.524 272.297C369.468 270.425 365.35 269.757 361.232 269.757Z" fill="#030087"/>
<path fill-rule="evenodd" clip-rule="evenodd" d="M363.432 275.856C363.863 275.528 364.477 275.614 364.803 276.048C365.129 276.483 365.044 277.101 364.612 277.429L364.022 276.643C364.612 277.429 364.612 277.429 364.612 277.429L364.609 277.431L364.604 277.435L364.588 277.448C364.574 277.458 364.555 277.472 364.53 277.49C364.481 277.526 364.41 277.576 364.32 277.639C364.138 277.765 363.876 277.94 363.543 278.145C362.879 278.555 361.927 279.089 360.771 279.588C358.473 280.579 355.282 281.469 351.902 280.89C351.368 280.799 351.01 280.29 351.1 279.753C351.191 279.216 351.697 278.855 352.23 278.947C355.093 279.437 357.881 278.69 359.999 277.776C361.051 277.322 361.918 276.836 362.52 276.464C362.82 276.279 363.053 276.123 363.208 276.015C363.286 275.961 363.344 275.92 363.382 275.892C363.401 275.879 363.414 275.869 363.423 275.863L363.431 275.856L363.432 275.856C363.431 275.856 363.432 275.856 363.432 275.856Z" fill="#030087"/>
<path fill-rule="evenodd" clip-rule="evenodd" d="M361.999 286.67C362.439 286.985 362.543 287.6 362.23 288.044C361.084 289.668 359.144 290.182 357.711 290.342C356.969 290.424 356.293 290.419 355.806 290.394C355.56 290.382 355.359 290.364 355.217 290.349C355.146 290.342 355.09 290.335 355.049 290.33C355.029 290.327 355.013 290.325 355.001 290.324L354.987 290.322L354.982 290.321L354.979 290.32C354.979 290.32 354.979 290.32 355.121 289.345M355.262 288.37L355.267 288.37L355.296 288.374C355.322 288.377 355.364 288.383 355.42 288.388C355.532 288.4 355.698 288.415 355.904 288.425C356.319 288.446 356.885 288.45 357.496 288.382C358.77 288.24 359.986 287.819 360.633 286.902C360.946 286.458 361.558 286.354 361.999 286.67" fill="#030087"/>
<path fill-rule="evenodd" clip-rule="evenodd" d="M365.661 295.086C366.069 295.443 366.112 296.066 365.757 296.476C365.223 297.095 364.392 297.42 363.653 297.611C362.877 297.811 362.011 297.911 361.225 297.958C360.433 298.007 359.689 298.004 359.146 297.99C358.873 297.983 358.649 297.973 358.492 297.965C358.413 297.961 358.351 297.957 358.308 297.954L358.257 297.951L358.243 297.95L358.238 297.949C358.238 297.949 358.237 297.949 358.309 296.972L358.237 297.949C357.698 297.909 357.293 297.436 357.333 296.893C357.373 296.35 357.842 295.943 358.381 295.983C358.382 295.983 358.381 295.983 358.381 295.983L358.309 296.966C358.382 295.983 358.382 295.983 358.381 295.983L358.383 295.983L358.393 295.984L358.433 295.986C358.469 295.989 358.524 295.992 358.595 295.996C358.737 296.003 358.943 296.013 359.196 296.019C359.703 296.032 360.387 296.034 361.106 295.99C361.832 295.946 362.56 295.858 363.166 295.701C363.809 295.535 364.149 295.333 364.279 295.183C364.634 294.772 365.252 294.728 365.661 295.086Z" fill="#030087"/>
<path d="M349.21 277.044L366.878 255.784L373.055 261.734L357.712 279.049C357.712 279.049 353.062 280.387 352.066 279.919C351.003 279.384 349.21 277.044 349.21 277.044Z" fill="white"/>
<path fill-rule="evenodd" clip-rule="evenodd" d="M366.824 254.8C367.094 254.785 367.359 254.883 367.555 255.072L373.732 261.022C374.113 261.389 374.137 261.994 373.786 262.39L358.443 279.706C358.319 279.845 358.159 279.946 357.981 279.997L357.712 279.049C357.981 279.997 357.981 279.997 357.981 279.997L357.979 279.998L357.965 280.002L357.924 280.014C357.888 280.024 357.835 280.038 357.769 280.057C357.636 280.093 357.446 280.145 357.216 280.205C356.756 280.325 356.128 280.482 355.466 280.624C354.809 280.765 354.095 280.896 353.468 280.961C353.156 280.993 352.843 281.011 352.559 281.001C352.298 280.991 351.957 280.955 351.652 280.812C351.644 280.808 351.636 280.804 351.628 280.8C351.235 280.603 350.842 280.279 350.508 279.969C350.159 279.645 349.812 279.278 349.51 278.939C349.207 278.599 348.939 278.277 348.748 278.041C348.652 277.923 348.575 277.826 348.521 277.757C348.494 277.723 348.473 277.696 348.458 277.677L348.441 277.655L348.435 277.647L348.435 277.646C348.435 277.646 348.434 277.646 349.21 277.044L348.435 277.646C348.154 277.28 348.164 276.766 348.459 276.411L366.127 255.152C366.3 254.942 366.553 254.815 366.824 254.8ZM350.479 277.054C350.622 277.226 350.789 277.421 350.968 277.622C351.247 277.935 351.549 278.253 351.835 278.519C352.108 278.772 352.322 278.935 352.463 279.015C352.484 279.019 352.536 279.027 352.63 279.03C352.791 279.036 353.005 279.027 353.268 279C353.794 278.945 354.429 278.83 355.058 278.695C355.683 278.561 356.281 278.413 356.723 278.297C356.902 278.25 357.054 278.209 357.173 278.177L371.695 261.788L366.957 257.225L350.479 277.054Z" fill="#030087"/>
<path fill-rule="evenodd" clip-rule="evenodd" d="M351.975 171.119C351.698 171.584 351.101 171.736 350.637 171.46C350.172 171.183 350.018 170.578 350.293 170.11L351.12 170.602C350.293 170.11 350.293 170.109 350.294 170.109L350.294 170.107L350.296 170.105L350.299 170.1L350.308 170.085C350.315 170.073 350.324 170.059 350.335 170.041C350.357 170.007 350.388 169.961 350.427 169.905C350.504 169.794 350.616 169.645 350.764 169.472C351.059 169.129 351.502 168.688 352.107 168.285C353.34 167.465 355.194 166.841 357.677 167.447C358.202 167.576 358.525 168.109 358.398 168.638C358.27 169.167 357.741 169.492 357.215 169.363C355.315 168.9 354.014 169.38 353.187 169.93C352.763 170.212 352.45 170.523 352.247 170.761C352.146 170.879 352.073 170.977 352.028 171.041C352.006 171.073 351.99 171.096 351.982 171.109L351.975 171.119Z" fill="#030087"/>
<path fill-rule="evenodd" clip-rule="evenodd" d="M366.679 168.205L366.318 167.288C365.815 167.489 365.569 168.061 365.768 168.568C365.967 169.074 366.535 169.322 367.038 169.122L367.038 169.122L367.037 169.122L367.045 169.119C367.052 169.117 367.065 169.112 367.083 169.105C367.119 169.092 367.176 169.072 367.25 169.047C367.4 168.997 367.62 168.929 367.892 168.86C368.44 168.722 369.175 168.589 369.95 168.589C370.727 168.589 371.498 168.723 372.161 169.076C372.804 169.419 373.399 169.995 373.811 170.991C374.019 171.493 374.593 171.731 375.092 171.522C375.591 171.312 375.828 170.735 375.62 170.233C375.035 168.821 374.128 167.894 373.077 167.334C372.046 166.784 370.932 166.617 369.95 166.617C368.965 166.617 368.064 166.785 367.417 166.948C367.091 167.03 366.823 167.112 366.634 167.175C366.54 167.207 366.464 167.233 366.411 167.253C366.384 167.263 366.363 167.271 366.347 167.277L366.328 167.284L366.322 167.287L366.32 167.288L366.319 167.288C366.319 167.288 366.318 167.288 366.679 168.205ZM367.037 169.122C367.037 169.122 367.037 169.122 367.037 169.122L367.037 169.122Z" fill="#030087"/>
<path fill-rule="evenodd" clip-rule="evenodd" d="M360.84 168.461C361.36 168.613 361.659 169.159 361.509 169.682L360.568 169.408L359.627 169.134C359.777 168.611 360.32 168.31 360.84 168.461ZM356.199 186.874C356.142 186.962 356.091 187.1 356.086 187.202C356.085 187.243 356.085 187.243 356.094 187.246C356.097 187.248 356.101 187.249 356.106 187.253C356.191 187.313 356.516 187.465 357.368 187.425C358.199 187.386 359.414 187.171 361.151 186.648C361.669 186.492 362.215 186.789 362.37 187.31C362.525 187.832 362.23 188.381 361.712 188.537C359.895 189.084 358.511 189.345 357.459 189.394C356.429 189.442 355.587 189.293 354.984 188.869C354.315 188.398 354.104 187.712 354.129 187.119C354.152 186.575 354.364 186.09 354.572 185.776C354.579 185.765 354.587 185.754 354.595 185.743C354.585 185.756 354.578 185.767 354.572 185.776C354.565 185.786 354.562 185.793 354.561 185.792C354.561 185.792 354.581 185.752 354.624 185.645C354.679 185.506 354.751 185.31 354.838 185.059C355.011 184.56 355.233 183.878 355.487 183.071C355.995 181.459 356.624 179.374 357.238 177.307C357.852 175.242 358.449 173.198 358.893 171.671C359.115 170.908 359.298 170.273 359.426 169.83C359.49 169.608 359.541 169.434 359.575 169.316L359.627 169.134C359.627 169.134 359.627 169.134 360.568 169.408C361.509 169.682 361.509 169.682 361.509 169.682L361.456 169.865C361.422 169.984 361.372 170.158 361.307 170.38C361.179 170.824 360.995 171.46 360.773 172.225C360.328 173.754 359.73 175.801 359.115 177.872C358.5 179.942 357.867 182.039 357.354 183.668C357.098 184.481 356.869 185.184 356.687 185.71C356.596 185.972 356.513 186.199 356.442 186.378C356.392 186.504 356.307 186.714 356.199 186.874Z" fill="#030087"/>
<path d="M361.498 192.74C361.498 192.74 361.896 190.334 364.819 190.2C367.741 190.133 369.535 188.863 369.535 187.325C369.535 185.788 373.321 184.049 374.383 186.657C375.446 189.264 374.251 195.882 369.535 196.952C364.819 198.022 361.099 197.621 361.498 193.476" fill="#030087"/>
<path fill-rule="evenodd" clip-rule="evenodd" d="M377.647 201.54C377.954 201.988 377.842 202.602 377.397 202.911L376.841 202.1C377.397 202.911 377.397 202.912 377.396 202.912L377.395 202.913L377.393 202.915L377.386 202.919L377.366 202.932C377.35 202.943 377.329 202.957 377.301 202.975C377.246 203.01 377.169 203.059 377.069 203.118C376.869 203.236 376.579 203.398 376.201 203.583C375.445 203.953 374.336 204.416 372.89 204.814C369.993 205.611 365.76 206.14 360.326 205.142C359.794 205.045 359.441 204.531 359.538 203.996C359.635 203.46 360.145 203.105 360.677 203.203C365.804 204.144 369.74 203.637 372.373 202.912C373.692 202.55 374.687 202.131 375.345 201.81C375.674 201.649 375.918 201.512 376.075 201.419C376.154 201.372 376.211 201.337 376.246 201.314C376.263 201.303 376.275 201.295 376.282 201.29L376.286 201.287M376.286 201.288C376.286 201.287 376.287 201.287 376.287 201.287C376.732 200.98 377.341 201.093 377.647 201.54" fill="#030087"/>
<path d="M368.073 178.902C368.734 178.902 369.269 177.555 369.269 175.893C369.269 174.232 368.734 172.885 368.073 172.885C367.413 172.885 366.878 174.232 366.878 175.893C366.878 177.555 367.413 178.902 368.073 178.902Z" fill="#030087"/>
<path d="M86.4483 159.113C87.1086 159.113 87.6439 157.766 87.6439 156.104C87.6439 154.443 87.1086 153.096 86.4483 153.096C85.788 153.096 85.2527 154.443 85.2527 156.104C85.2527 157.766 85.788 159.113 86.4483 159.113Z" fill="#030087"/>
<path d="M355.121 178.434C355.782 178.434 356.317 177.087 356.317 175.425C356.317 173.764 355.782 172.417 355.121 172.417C354.461 172.417 353.926 173.764 353.926 175.425C353.926 177.087 354.461 178.434 355.121 178.434Z" fill="#030087"/>
<path fill-rule="evenodd" clip-rule="evenodd" d="M90.4252 150.658C90.4257 150.658 90.4262 150.659 89.9022 151.491L90.4262 150.659C90.8832 150.95 91.019 151.559 90.7296 152.019C90.4422 152.476 89.8435 152.614 89.3877 152.33C89.3892 152.331 89.3893 152.331 89.3879 152.33L89.3844 152.328L89.3816 152.326L89.38 152.325L89.3799 152.325L89.3799 152.325C89.3799 152.325 89.3799 152.325 89.38 152.325C89.3825 152.327 89.3851 152.329 89.3876 152.33M89.3791 152.325C89.3791 152.325 89.3791 152.325 89.3791 152.325L89.3792 152.325C89.3791 152.325 89.3791 152.325 89.3791 152.325Z" fill="#030087"/>
<path d="M136.198 242.948C136.198 242.948 140.515 234.925 147.688 233.789C154.862 232.652 260.338 233.789 260.338 233.789C260.338 233.789 269.637 232.452 275.881 242.948H339.446L369.402 331.062L304.84 330.193C304.84 330.193 302.981 345.502 291.291 346.973H166.884L136.198 242.948Z" fill="white"/>
<path fill-rule="evenodd" clip-rule="evenodd" d="M154.61 234.448C151.009 234.526 148.656 234.633 147.841 234.763C144.568 235.281 141.882 237.388 139.972 239.464C139.025 240.493 138.292 241.49 137.796 242.228C137.561 242.578 137.381 242.868 137.257 243.075L167.615 345.987H291.229C296.564 345.291 299.715 341.459 301.568 337.602C302.493 335.675 303.07 333.785 303.416 332.372C303.589 331.667 303.703 331.085 303.773 330.682C303.808 330.481 303.833 330.325 303.848 330.221C303.854 330.181 303.858 330.148 303.862 330.124L303.864 330.105L303.868 330.078L303.868 330.073C303.929 329.573 304.354 329.2 304.854 329.207L368.025 330.057L338.746 243.934H275.881C275.537 243.934 275.218 243.752 275.041 243.454C272.052 238.429 268.369 236.284 265.476 235.373C264.02 234.915 262.749 234.765 261.85 234.729C261.401 234.711 261.046 234.722 260.809 234.736C260.69 234.743 260.601 234.751 260.545 234.757C260.517 234.76 260.497 234.762 260.485 234.764L260.477 234.765L260.476 234.765C260.427 234.772 260.377 234.775 260.328 234.775L260.338 233.789C260.328 234.775 260.328 234.775 260.327 234.774L259.142 234.762C258.368 234.754 257.231 234.742 255.783 234.728C252.885 234.699 248.737 234.659 243.737 234.615C233.737 234.526 220.33 234.419 206.698 234.348C193.066 234.277 179.213 234.242 168.321 234.295C162.874 234.322 158.172 234.371 154.61 234.448ZM260.283 232.802L259.162 232.791C258.388 232.782 257.251 232.771 255.802 232.756C252.904 232.728 248.755 232.688 243.754 232.643C233.753 232.554 220.343 232.448 206.709 232.377C193.075 232.306 179.214 232.27 168.312 232.324C162.861 232.35 158.146 232.399 154.567 232.477C151.027 232.554 148.514 232.66 147.536 232.815C143.636 233.433 140.576 235.906 138.534 238.125C137.505 239.244 136.71 240.324 136.173 241.125C135.903 241.526 135.697 241.859 135.557 242.094C135.487 242.211 135.434 242.305 135.397 242.37C135.378 242.403 135.364 242.428 135.354 242.446L135.342 242.468L135.338 242.475L135.337 242.478C135.337 242.478 135.336 242.478 136.198 242.948L135.336 242.478C135.213 242.708 135.185 242.978 135.259 243.228L165.945 347.253C166.069 347.672 166.451 347.959 166.884 347.959H291.291C291.331 347.959 291.372 347.956 291.412 347.951C297.731 347.156 301.338 342.611 303.331 338.46C304.332 336.376 304.95 334.347 305.318 332.843C305.481 332.18 305.595 331.616 305.673 331.19L369.389 332.047C369.707 332.052 370.008 331.9 370.195 331.64C370.382 331.381 370.432 331.046 370.328 330.742L340.373 242.629C340.237 242.23 339.865 241.962 339.446 241.962H276.429C273.225 236.827 269.279 234.505 266.061 233.491C264.412 232.972 262.967 232.8 261.928 232.759C261.408 232.738 260.987 232.75 260.692 232.768C260.544 232.777 260.427 232.787 260.344 232.796C260.321 232.798 260.301 232.8 260.283 232.802Z" fill="#030087"/>
<path fill-rule="evenodd" clip-rule="evenodd" d="M275.507 242.012C276.021 241.841 276.575 242.122 276.745 242.639L284.582 266.506C284.752 267.022 284.473 267.58 283.96 267.751C283.446 267.922 282.892 267.641 282.722 267.124L274.885 243.257C274.715 242.74 274.994 242.183 275.507 242.012Z" fill="#030087"/>
<path fill-rule="evenodd" clip-rule="evenodd" d="M291.842 291.686C292.355 291.513 292.91 291.791 293.082 292.307L305.636 329.879C305.808 330.395 305.533 330.954 305.02 331.127C304.507 331.301 303.952 331.023 303.779 330.507L291.226 292.935C291.053 292.419 291.329 291.86 291.842 291.686Z" fill="#030087"/>
<path d="M142.574 238.736C142.574 238.736 120.389 240.207 125.371 258.726C130.419 277.178 151.607 337.413 151.607 337.413C151.607 337.413 154.995 347.241 161.969 347.709C168.943 348.177 285.512 347.709 285.512 347.709C285.512 347.709 300.191 340.422 294.811 324.443C289.497 308.465 271.431 255.851 271.431 255.851C271.431 255.851 268.641 237.8 251.172 238.736C233.704 239.605 142.574 238.736 142.574 238.736Z" fill="url(#paint2_linear)"/>
<path d="M90.5664 97.2728C90.6993 97.4065 90.8985 97.4733 91.0314 97.4733C91.1642 97.4733 91.3635 97.4065 91.4963 97.2728L93.6218 95.1334L95.7473 97.2728C95.8801 97.4065 96.0794 97.4733 96.2122 97.4733C96.4115 97.4733 96.5443 97.4065 96.6772 97.2728C96.9428 97.0054 96.9428 96.6042 96.6772 96.3368L94.5517 94.1975L96.6772 92.0582C96.9428 91.7908 96.9428 91.3896 96.6772 91.1222C96.4115 90.8548 96.0129 90.8548 95.7473 91.1222L93.6218 93.2615L91.4963 91.1222C91.2306 90.8548 90.8321 90.8548 90.5664 91.1222C90.3007 91.3896 90.3007 91.7908 90.5664 92.0582L92.6919 94.1975L90.5664 96.3368C90.3007 96.6042 90.3007 97.0054 90.5664 97.2728Z" fill="#030087"/>
<path d="M93.9539 87.579C96.7436 87.579 99.2012 89.2504 100.264 91.9245C100.596 92.7268 100.729 93.5291 100.729 94.3982C100.729 95.2004 100.596 96.0695 100.264 96.8049C99.2676 99.4122 96.7436 101.15 93.9539 101.15C93.6882 101.15 93.4225 101.15 93.1568 101.084C92.3598 101.017 91.5627 100.749 90.8321 100.348C88.5738 99.1448 87.2454 96.8718 87.2454 94.3313C87.1789 90.6543 90.2343 87.579 93.9539 87.579ZM120.323 119.268C120.323 120.605 119.26 121.675 117.932 121.675H93.5554C92.2269 121.675 91.1642 120.605 91.1642 119.268V102.02C91.4299 102.086 91.6956 102.22 91.9613 102.287C92.0277 102.287 92.0941 102.354 92.1605 102.354C92.3598 102.421 92.6255 102.421 92.8247 102.487C92.8912 102.487 92.9576 102.488 93.0904 102.554C93.3561 102.554 93.6882 102.621 93.9539 102.621C94.1532 102.621 94.3524 102.621 94.5517 102.621C94.6181 102.621 94.6845 102.621 94.7509 102.621C94.8838 102.621 95.0166 102.621 95.1495 102.554C95.2159 102.554 95.2823 102.554 95.4151 102.487C95.548 102.487 95.6808 102.421 95.7473 102.421C95.8137 102.421 95.8801 102.354 96.0129 102.354C96.1458 102.354 96.2122 102.287 96.3451 102.287C96.4115 102.287 96.4779 102.22 96.6107 102.22C96.7436 102.153 96.81 102.153 96.9428 102.086C97.0093 102.02 97.0757 102.02 97.2085 101.953C97.2749 101.886 97.4078 101.886 97.4742 101.819C97.5406 101.752 97.607 101.752 97.7399 101.685C97.8063 101.618 97.9392 101.618 98.0056 101.552C98.072 101.485 98.1384 101.485 98.2713 101.418C98.3377 101.351 98.4705 101.284 98.5369 101.284C98.6034 101.217 98.6698 101.15 98.7362 101.15C98.8026 101.084 98.8691 101.017 99.0019 100.95C99.0683 100.883 99.1347 100.816 99.2011 100.749C99.2676 100.682 99.334 100.616 99.4668 100.549C99.5333 100.482 99.5997 100.415 99.6661 100.348C99.7325 100.281 99.7989 100.214 99.8654 100.148C99.9318 100.081 99.9982 100.014 100.065 99.947C100.131 99.8802 100.197 99.8133 100.264 99.6796C100.33 99.6128 100.397 99.5459 100.463 99.4791C100.53 99.4122 100.596 99.2785 100.662 99.2116C100.729 99.1448 100.795 99.0779 100.795 99.0111C100.862 98.9442 100.928 98.8105 100.995 98.7437C101.061 98.6768 101.061 98.61 101.127 98.4762C101.194 98.4094 101.26 98.2757 101.26 98.2088C101.327 98.142 101.327 98.0751 101.393 97.9414C101.393 97.9414 101.393 97.8746 101.459 97.8746H120.456L120.323 119.268ZM89.8358 101.418V119.268C89.8358 121.34 91.4963 123.012 93.5554 123.012H117.865C119.925 123.012 121.585 121.34 121.585 119.268V96.4038H101.725C101.924 95.7352 101.991 95.0667 101.991 94.3982C101.991 93.7296 101.924 92.9942 101.725 92.3257H117.998C119.327 92.3257 120.389 93.3953 120.389 94.7324C120.389 95.1336 120.655 95.401 121.054 95.401C121.452 95.401 121.718 95.1336 121.718 94.7324C121.718 92.66 120.057 90.9886 117.998 90.9886H101.26C99.9318 88.1139 97.1421 86.2419 93.9539 86.2419C89.5037 86.2419 85.8505 89.9189 85.8505 94.3982C85.8505 97.2729 87.3782 99.9471 89.8358 101.418Z" fill="#030087"/>
<path d="M117.268 93.7295C116.869 93.7295 116.603 93.9969 116.603 94.398C116.603 94.7992 116.869 95.0666 117.268 95.0666H118.729C119.127 95.0666 119.393 94.7992 119.393 94.398C119.393 93.9969 119.127 93.7295 118.729 93.7295H117.268Z" fill="#030087"/>
<path d="M103.984 108.103C104.116 108.304 104.448 108.371 104.648 108.304C104.913 108.237 105.113 108.036 105.113 107.769C105.378 106.164 106.707 105.028 108.367 105.028C110.161 105.028 111.622 106.499 111.622 108.304C111.622 108.772 111.555 109.24 111.356 109.641C111.223 109.908 111.29 110.176 111.423 110.376C111.622 110.577 111.888 110.644 112.087 110.577C112.22 110.51 112.353 110.51 112.618 110.51C113.083 110.51 113.482 110.644 113.814 110.978C114.212 111.312 114.412 111.847 114.412 112.382C114.412 112.783 114.279 113.184 114.013 113.518H98.2049C97.4078 112.783 97.0093 111.713 97.0093 110.644C97.0093 108.438 98.7362 106.699 100.928 106.699C102.124 106.699 103.253 107.167 103.984 108.103ZM95.7473 110.644C95.7473 112.181 96.4115 113.652 97.6071 114.655C97.7399 114.789 97.8728 114.789 98.0056 114.789H114.345C114.544 114.789 114.677 114.722 114.81 114.588C115.408 113.986 115.74 113.184 115.74 112.315C115.74 111.446 115.341 110.577 114.744 109.908C114.212 109.44 113.548 109.106 112.884 109.106C112.95 108.839 112.95 108.504 112.95 108.237C112.95 105.696 110.891 103.624 108.367 103.624C106.507 103.624 104.913 104.761 104.183 106.365C103.253 105.63 102.124 105.295 100.995 105.295C98.072 105.362 95.7473 107.702 95.7473 110.644Z" fill="#030087"/>
<path d="M98.2048 110.577C98.2048 110.777 98.3377 110.911 98.537 110.911C98.7362 110.911 98.8691 110.777 98.8691 110.577C98.8691 109.44 99.799 108.438 100.995 108.438C101.194 108.438 101.327 108.304 101.327 108.103C101.327 107.903 101.194 107.769 100.995 107.769C99.4669 107.769 98.2048 109.039 98.2048 110.577Z" fill="#030087"/>
<path d="M212.945 305.072C217.909 303.9 220.461 296.718 218.646 289.031C216.831 281.344 211.336 276.063 206.371 277.235C201.407 278.407 198.855 285.589 200.67 293.276C202.485 300.963 207.981 306.244 212.945 305.072Z" fill="white"/>
<path fill-rule="evenodd" clip-rule="evenodd" d="M204.361 279.026C203.363 281.83 203.172 285.451 204.055 289.217C204.938 292.983 206.719 296.136 208.858 298.194C211.001 300.256 213.451 301.177 215.717 300.639C217.984 300.1 219.765 298.173 220.766 295.364C221.764 292.56 221.955 288.938 221.072 285.173C220.189 281.407 218.408 278.254 216.269 276.196C214.126 274.134 211.676 273.212 209.41 273.751C207.143 274.29 205.362 276.217 204.361 279.026ZM203.439 278.693C204.509 275.69 206.489 273.433 209.185 272.792C211.881 272.151 214.655 273.279 216.946 275.483C219.241 277.691 221.105 281.022 222.025 284.946C222.946 288.87 222.759 292.688 221.688 295.696C220.618 298.699 218.638 300.957 215.942 301.598C213.246 302.239 210.472 301.111 208.181 298.906C205.886 296.698 204.022 293.367 203.102 289.444C202.181 285.52 202.368 281.701 203.439 278.693Z" fill="#030087"/>
<defs>
<linearGradient id="paint0_linear" x1="152.609" y1="170.612" x2="152.609" y2="139.391" gradientUnits="userSpaceOnUse">
<stop stop-color="#F39A82"/>
<stop offset="1" stop-color="#FDD5B0"/>
</linearGradient>
<linearGradient id="paint1_linear" x1="307.93" y1="101.351" x2="307.93" y2="0" gradientUnits="userSpaceOnUse">
<stop stop-color="#F39A82"/>
<stop offset="1" stop-color="#FDD5B0"/>
</linearGradient>
<linearGradient id="paint2_linear" x1="123.703" y1="347.917" x2="123.703" y2="238.701" gradientUnits="userSpaceOnUse">
<stop stop-color="#F39A82"/>
<stop offset="1" stop-color="#FDD5B0"/>
</linearGradient>
</defs>
</svg>
