<svg width="469" height="453" viewBox="0 0 469 453" fill="none" xmlns="http://www.w3.org/2000/svg">
<path d="M46.9244 163.756C50.5013 163.756 53.401 160.857 53.401 157.28C53.401 153.703 50.5013 150.803 46.9244 150.803C43.3474 150.803 40.4478 153.703 40.4478 157.28C40.4478 160.857 43.3474 163.756 46.9244 163.756Z" fill="white"/>
<path d="M440.81 187.604V426.602C440.802 433.302 438.136 439.725 433.398 444.462C428.66 449.199 422.237 451.863 415.538 451.87H26.3594C19.6591 451.864 13.2348 449.2 8.49617 444.463C3.75757 439.726 1.09172 433.303 1.08358 426.602V187.604H440.81Z" fill="white"/>
<path d="M454.962 281.327H407.596V341.619H454.962V281.327Z" fill="#030087"/>
<path d="M467.813 281.327H454.889V341.619H467.813V281.327Z" fill="white"/>
<path d="M407.596 281.327H347.304V341.619H407.596V281.327Z" fill="url(#paint0_linear)"/>
<path d="M407.596 341.617H347.304V401.909H407.596V341.617Z" fill="url(#paint1_linear)"/>
<path d="M440.81 172.442V187.604H1.08358V172.442C1.09086 165.741 3.75628 159.317 8.49493 154.578C13.2336 149.84 19.6584 147.176 26.3594 147.169H415.538C418.857 147.167 422.144 147.819 425.212 149.088C428.279 150.358 431.066 152.219 433.413 154.566C435.76 156.914 437.622 159.701 438.891 162.768C440.16 165.835 440.813 169.122 440.81 172.442Z" fill="url(#paint2_linear)"/>
<path d="M74.5159 230.567C80.0586 230.567 84.5519 226.074 84.5519 220.531C84.5519 214.988 80.0586 210.495 74.5159 210.495C68.9732 210.495 64.48 214.988 64.48 220.531C64.48 226.074 68.9732 230.567 74.5159 230.567Z" fill="#030087"/>
<path d="M58.052 245.223C63.5947 245.223 68.0879 240.73 68.0879 235.187C68.0879 229.644 63.5947 225.151 58.052 225.151C52.5093 225.151 48.0161 229.644 48.0161 235.187C48.0161 240.73 52.5093 245.223 58.052 245.223Z" fill="#030087"/>
<path d="M38.9908 235.187C44.5335 235.187 49.0268 230.694 49.0268 225.151C49.0268 219.608 44.5335 215.115 38.9908 215.115C33.4481 215.115 28.9549 219.608 28.9549 225.151C28.9549 230.694 33.4481 235.187 38.9908 235.187Z" fill="#030087"/>
<path d="M55.3093 175.762C59.9348 175.762 63.6844 172.012 63.6844 167.387C63.6844 162.761 59.9348 159.012 55.3093 159.012C50.6838 159.012 46.9341 162.761 46.9341 167.387C46.9341 172.012 50.6838 175.762 55.3093 175.762Z" fill="white"/>
<path d="M83.4685 175.762C88.094 175.762 91.8436 172.012 91.8436 167.387C91.8436 162.761 88.094 159.012 83.4685 159.012C78.843 159.012 75.0934 162.761 75.0934 167.387C75.0934 172.012 78.843 175.762 83.4685 175.762Z" fill="white"/>
<path d="M168.093 290.063L141.954 304.064L127.946 278.222H153.507V261.975H92.133L82.6016 297.713H99.9389L101.6 291.504L122.094 324.288C124.348 327.764 127.41 330.644 131.018 332.681C134.627 334.718 138.674 335.851 142.816 335.985C147.525 336.035 152.17 334.893 156.319 332.665L171.481 324.648L185.055 353.026L222.819 334.974L201.157 300.678C201.157 300.678 198.629 294.251 188.306 289.702C185.087 288.392 181.637 287.749 178.162 287.811C174.688 287.873 171.263 288.639 168.093 290.063Z" fill="url(#paint3_linear)"/>
<path d="M362.4 433.823H397.275C399.841 433.823 402.302 432.803 404.117 430.989C405.931 429.175 406.95 426.714 406.95 424.147V423.931C406.95 421.365 405.931 418.904 404.117 417.089C402.302 415.275 399.841 414.256 397.275 414.256H362.4C359.834 414.256 357.373 415.275 355.559 417.089C353.744 418.904 352.725 421.365 352.725 423.931V424.147C352.725 426.714 353.744 429.175 355.559 430.989C357.373 432.803 359.834 433.823 362.4 433.823Z" fill="#030087"/>
<path d="M225.495 433.823H325.355C326.625 433.823 327.883 433.573 329.057 433.086C330.231 432.6 331.298 431.887 332.196 430.989C333.095 430.091 333.807 429.024 334.294 427.85C334.78 426.676 335.03 425.418 335.03 424.147V423.931C335.03 422.66 334.78 421.402 334.294 420.228C333.807 419.054 333.095 417.988 332.196 417.089C331.298 416.191 330.231 415.478 329.057 414.992C327.883 414.506 326.625 414.256 325.355 414.256H225.495C222.929 414.256 220.468 415.275 218.654 417.089C216.839 418.904 215.82 421.365 215.82 423.931V424.147C215.832 426.71 216.855 429.164 218.667 430.975C220.479 432.787 222.933 433.81 225.495 433.823Z" fill="url(#paint4_linear)"/>
<path d="M38.0512 433.823H188.526C191.092 433.823 193.553 432.804 195.368 430.989C197.182 429.175 198.202 426.714 198.203 424.147V423.931C198.202 421.365 197.182 418.904 195.368 417.089C193.553 415.275 191.092 414.256 188.526 414.256H38.0512C35.4851 414.256 33.0241 415.275 31.2097 417.089C29.3952 418.904 28.3758 421.365 28.3758 423.931V424.147C28.3758 426.714 29.3952 429.175 31.2097 430.989C33.0241 432.803 35.4851 433.823 38.0512 433.823Z" fill="#030087"/>
<path d="M269.973 394.976H283.186C285.752 394.976 288.213 393.957 290.028 392.142C291.842 390.328 292.862 387.867 292.862 385.301V385.082C292.862 383.812 292.611 382.554 292.125 381.38C291.639 380.206 290.926 379.139 290.028 378.241C289.129 377.342 288.063 376.63 286.889 376.144C285.715 375.657 284.457 375.407 283.186 375.407H270.045C268.775 375.407 267.517 375.657 266.343 376.144C265.169 376.63 264.102 377.342 263.204 378.241C262.305 379.139 261.593 380.206 261.107 381.38C260.62 382.554 260.37 383.812 260.37 385.082V385.299C260.356 386.568 260.594 387.826 261.07 389.002C261.547 390.178 262.252 391.247 263.146 392.147C264.04 393.048 265.103 393.762 266.275 394.247C267.447 394.733 268.704 394.981 269.973 394.976Z" fill="#030087"/>
<path d="M154.013 394.976H232.929C235.495 394.976 237.956 393.957 239.77 392.142C241.585 390.328 242.604 387.867 242.604 385.301V385.082C242.604 383.812 242.354 382.554 241.868 381.38C241.382 380.206 240.669 379.139 239.77 378.241C238.872 377.342 237.805 376.63 236.632 376.144C235.458 375.657 234.2 375.407 232.929 375.407H154.013C152.742 375.407 151.484 375.657 150.31 376.144C149.136 376.63 148.07 377.342 147.171 378.241C146.273 379.139 145.56 380.206 145.074 381.38C144.588 382.554 144.337 383.812 144.337 385.082V385.299C144.349 387.862 145.372 390.316 147.184 392.128C148.996 393.94 151.45 394.964 154.013 394.976Z" fill="url(#paint5_linear)"/>
<path d="M38.0512 394.976H116.249C118.815 394.976 121.276 393.957 123.091 392.142C124.905 390.328 125.925 387.867 125.925 385.301V385.082C125.925 383.812 125.674 382.554 125.188 381.38C124.702 380.206 123.989 379.139 123.091 378.241C122.192 377.342 121.126 376.63 119.952 376.144C118.778 375.657 117.52 375.407 116.249 375.407H38.0512C36.7806 375.407 35.5224 375.657 34.3486 376.144C33.1747 376.63 32.1081 377.342 31.2097 378.241C30.3112 379.139 29.5986 380.206 29.1123 381.38C28.6261 382.554 28.3758 383.812 28.3758 385.082V385.299C28.3756 386.57 28.6257 387.828 29.1119 389.002C29.598 390.176 30.3106 391.243 31.2091 392.142C32.1076 393.04 33.1742 393.753 34.3482 394.239C35.5222 394.726 36.7804 394.976 38.0512 394.976Z" fill="url(#paint6_linear)"/>
<path d="M38.0512 356.136H156.757C159.323 356.136 161.784 355.116 163.598 353.302C165.413 351.487 166.432 349.026 166.432 346.46V346.244C166.432 343.678 165.413 341.217 163.598 339.402C161.784 337.588 159.323 336.568 156.757 336.568H38.0512C35.4851 336.568 33.0241 337.588 31.2097 339.402C29.3952 341.217 28.3758 343.678 28.3758 346.244V346.46C28.3758 349.026 29.3952 351.487 31.2097 353.302C33.0241 355.116 35.4851 356.136 38.0512 356.136Z" fill="#030087"/>
<path d="M407.596 281.327H347.304V341.619H407.596V281.327Z" fill="url(#paint7_linear)"/>
<path d="M407.596 341.617H347.304V401.909H407.596V341.617Z" fill="url(#paint8_linear)"/>
<path d="M196.32 278.222H153.507V261.975H195.892C195.892 261.975 203.906 262.481 203.906 270.208C203.906 277.934 196.32 278.222 196.32 278.222Z" fill="white"/>
<path d="M238.709 216.486H169.608V261.831H238.709V216.486Z" fill="#030087"/>
<path d="M82.5305 297.717L75.31 324.648H56.3895C54.8692 324.691 53.4196 325.299 52.3244 326.355C51.2293 327.41 50.5677 328.836 50.4692 330.354C50.0358 336.418 56.679 336.563 56.679 336.563L89.4599 336.635L99.8581 297.717H82.5305Z" fill="white"/>
<path d="M184.916 353.026L195.242 374.471L246.723 351.365L206.866 342.557L184.916 353.026Z" fill="#030087"/>
<path d="M400.519 111.069H318.495C318.495 111.069 303.116 111.212 295.895 124.065C293.936 127.558 292.776 131.443 292.501 135.439C292.227 139.434 292.843 143.441 294.306 147.169L329.181 216.486L369.609 197.566L343.405 147.315L377.486 147.098C377.486 147.098 392.144 146.521 399.002 132.868C400.817 129.56 401.893 125.898 402.155 122.135C402.417 118.371 401.859 114.595 400.519 111.069Z" fill="url(#paint9_linear)"/>
<path d="M312.431 90.2009L312.647 89.9115L314.308 87.9709L294.163 76.4892L307.741 50.9935C307.741 50.9935 314.311 36.4085 329.41 36.0463C333.551 35.8561 337.677 36.6465 341.454 38.3532C345.231 40.0598 348.551 42.6343 351.145 45.8672L390.784 96.7714L396.344 103.919L398.799 107.53L400.459 111.14L328.544 110.923L312.431 90.2009Z" fill="#030087"/>
<path d="M282.32 29.6215C282.32 29.6215 272.644 20.7402 277.699 10.701C283.836 -1.64586 294.162 1.45905 295.462 1.32159C297.123 1.17767 301.166 3.70363 302.104 4.35372C303.355 5.45604 304.536 6.63619 305.639 7.88716L282.32 29.6215Z" fill="#030087"/>
<path d="M270.335 135.689H186.433L189.753 146.882H273.584L270.335 135.689Z" fill="#030087"/>
<path d="M120.365 78.5754L140.293 146.882H189.753L186.433 135.689H147.514L131.628 78.5754H120.365Z" fill="#030087"/>
<path d="M199.574 78.5753H131.628L147.513 135.689H216.253L200.224 78.5753L199.501 78.0708" fill="white"/>
<path d="M332.43 261.037L388.383 233.599L369.609 197.642L344.049 209.699L348.738 230.061L322.745 243.564C320.477 244.819 318.783 246.903 318.016 249.378C317.249 251.854 317.468 254.531 318.629 256.848C318.629 256.848 323.265 265.442 332.43 261.037Z" fill="#030087"/>
<path d="M104.263 234.899L101.808 230.061C100.928 228.364 99.5734 226.959 97.9094 226.018L84.6231 246.74L92.277 261.831H119.065L109.318 243.997L113.001 239.379L104.263 234.899Z" fill="white"/>
<path d="M83.6059 227.172C82.1247 228.776 81.081 230.735 80.5752 232.859C80.0693 234.983 80.1184 237.201 80.7177 239.301L84.6166 246.74L97.903 226.018C95.7198 224.625 93.1414 223.985 90.5605 224.193C87.9796 224.402 85.5374 225.448 83.6059 227.172Z" fill="#030087"/>
<path d="M315.679 41.1016C313.211 43.394 310.985 45.9345 309.036 48.6827L305.571 55.1092L295.245 43.7731C295.245 43.7731 294.089 45.0005 291.924 46.878C289.821 48.7555 286.868 46.7341 286.868 46.7341C286.082 45.9321 285.624 44.8654 285.584 43.7431C285.544 42.6209 285.925 41.5241 286.652 40.6682L289.686 37.78L282.319 29.7654L305.571 7.96646L330.552 35.9753C325.193 36.1548 320.011 37.9408 315.679 41.1016Z" fill="white"/>
<path d="M294.157 76.41L275.749 111.068L268.601 106.157C266.279 104.506 263.509 103.599 260.66 103.559C256.038 103.559 252.499 108.248 251.416 109.839C250.333 111.431 241.741 123.849 241.741 123.849C241.741 123.849 238.058 130.346 244.052 134.037C244.052 134.037 249.755 136.139 252.933 131.438L256.544 126.022L269.829 134.543C272.862 136.154 276.304 136.829 279.721 136.483C285.641 135.979 289.829 131.069 292.14 127.104C294.451 123.061 314.306 87.9693 314.306 87.9693L294.157 76.41Z" fill="white"/>
<path d="M27.2213 176.845C29.092 176.845 30.9207 176.291 32.4762 175.251C34.0316 174.212 35.244 172.735 35.9599 171.007C36.6758 169.278 36.8631 167.376 36.4981 165.542C36.1332 163.707 35.2323 162.021 33.9095 160.699C32.5867 159.376 30.9013 158.475 29.0665 158.11C27.2317 157.745 25.3299 157.932 23.6016 158.648C21.8733 159.364 20.396 160.576 19.3567 162.132C18.3174 163.687 17.7626 165.516 17.7626 167.387C17.7712 169.893 18.7704 172.294 20.5424 174.066C22.3144 175.838 24.7153 176.837 27.2213 176.845ZM27.2213 160.095C28.6638 160.095 30.0739 160.523 31.2734 161.324C32.4728 162.126 33.4076 163.265 33.9595 164.598C34.5115 165.931 34.6558 167.397 34.3743 168.812C34.0927 170.227 33.398 171.526 32.3778 172.546C31.3577 173.566 30.058 174.261 28.6431 174.542C27.2282 174.823 25.7618 174.678 24.4291 174.126C23.0965 173.574 21.9575 172.639 21.1563 171.439C20.3551 170.24 19.9277 168.829 19.928 167.387C19.9352 165.455 20.706 163.604 22.0722 162.238C23.4385 160.872 25.2893 160.102 27.2213 160.095Z" fill="#030087"/>
<path d="M55.306 176.845C57.1768 176.845 59.0055 176.291 60.561 175.251C62.1164 174.212 63.3288 172.735 64.0447 171.007C64.7606 169.278 64.9479 167.376 64.5829 165.542C64.218 163.707 63.3171 162.021 61.9943 160.699C60.6715 159.376 58.9861 158.475 57.1513 158.11C55.3165 157.745 53.4147 157.932 51.6864 158.648C49.958 159.364 48.4808 160.576 47.4415 162.132C46.4021 163.687 45.8474 165.516 45.8474 167.387C45.8559 169.893 46.8552 172.294 48.6272 174.066C50.3992 175.838 52.8001 176.837 55.306 176.845ZM55.306 160.095C56.7486 160.095 58.1587 160.523 59.3581 161.324C60.5575 162.126 61.4923 163.265 62.0443 164.598C62.5963 165.931 62.7406 167.397 62.4591 168.812C62.1775 170.227 61.4827 171.526 60.4626 172.546C59.4424 173.566 58.1428 174.261 56.7279 174.542C55.313 174.823 53.8465 174.678 52.5139 174.126C51.1813 173.574 50.0423 172.639 49.2411 171.439C48.4399 170.24 48.0124 168.829 48.0128 167.387C48.0196 165.455 48.7902 163.604 50.1565 162.238C51.5229 160.872 53.374 160.102 55.306 160.095Z" fill="#030087"/>
<path d="M83.4684 176.845C85.3391 176.845 87.1679 176.291 88.7233 175.251C90.2788 174.212 91.4911 172.735 92.207 171.007C92.9229 169.278 93.1102 167.376 92.7453 165.542C92.3803 163.707 91.4795 162.021 90.1566 160.699C88.8338 159.376 87.1485 158.475 85.3137 158.11C83.4789 157.745 81.5771 157.932 79.8487 158.648C78.1204 159.364 76.6432 160.576 75.6038 162.132C74.5645 163.687 74.0098 165.516 74.0098 167.387C74.0183 169.893 75.0176 172.294 76.7896 174.066C78.5615 175.838 80.9624 176.837 83.4684 176.845ZM83.4684 160.095C84.9109 160.095 86.3211 160.523 87.5205 161.324C88.7199 162.126 89.6547 163.265 90.2067 164.598C90.7586 165.931 90.903 167.397 90.6214 168.812C90.3399 170.227 89.6451 171.526 88.625 172.546C87.6048 173.566 86.3051 174.261 84.8902 174.542C83.4754 174.823 82.0089 174.678 80.6763 174.126C79.3436 173.574 78.2047 172.639 77.4035 171.439C76.6023 170.24 76.1748 168.829 76.1751 167.387C76.1824 165.455 76.9531 163.604 78.3194 162.238C79.6856 160.872 81.5365 160.102 83.4684 160.095Z" fill="#030087"/>
<path d="M397.27 413.245H362.4C359.549 413.252 356.817 414.388 354.8 416.404C352.784 418.42 351.649 421.152 351.641 424.004V424.219C351.649 427.07 352.784 429.802 354.8 431.818C356.817 433.834 359.549 434.97 362.4 434.978H397.275C400.126 434.97 402.859 433.834 404.875 431.818C406.891 429.802 408.027 427.07 408.034 424.219V424.004C408.014 421.156 406.874 418.43 404.859 416.416C402.845 414.403 400.118 413.263 397.27 413.245ZM405.789 424.148C405.784 426.425 404.877 428.607 403.267 430.217C401.657 431.827 399.475 432.734 397.198 432.739H362.322C360.045 432.734 357.863 431.827 356.253 430.217C354.643 428.607 353.736 426.425 353.731 424.148V423.931C353.736 421.654 354.643 419.472 356.253 417.862C357.863 416.252 360.045 415.345 362.322 415.339H397.27C399.547 415.345 401.73 416.252 403.34 417.862C404.95 419.472 405.857 421.654 405.862 423.931V424.148H405.789Z" fill="#030087"/>
<path d="M325.426 413.245H225.495C222.644 413.252 219.911 414.388 217.895 416.404C215.879 418.42 214.743 421.152 214.736 424.004V424.219C214.743 427.07 215.879 429.802 217.895 431.818C219.911 433.834 222.644 434.97 225.495 434.978H325.355C328.206 434.97 330.938 433.834 332.954 431.818C334.97 429.802 336.106 427.07 336.113 424.219V424.004C336.123 421.16 335.002 418.429 332.997 416.411C330.993 414.394 328.27 413.255 325.426 413.245ZM333.947 424.148C333.941 426.425 333.034 428.607 331.424 430.217C329.814 431.827 327.632 432.734 325.355 432.739H225.495C223.218 432.734 221.036 431.827 219.426 430.217C217.816 428.607 216.909 426.425 216.903 424.148V423.931C216.909 421.654 217.816 419.472 219.426 417.862C221.036 416.252 223.218 415.345 225.495 415.339H325.355C327.632 415.345 329.814 416.252 331.424 417.862C333.034 419.472 333.941 421.654 333.947 423.931V424.148Z" fill="#030087"/>
<path d="M188.526 413.245H38.0512C35.2002 413.252 32.468 414.388 30.4522 416.404C28.4363 418.42 27.3008 421.153 27.294 424.004V424.219C27.3008 427.07 28.4363 429.802 30.4522 431.818C32.468 433.834 35.2002 434.97 38.0512 434.978H188.526C191.377 434.971 194.11 433.835 196.126 431.819C198.142 429.803 199.278 427.07 199.284 424.219V424.004C199.265 421.156 198.125 418.431 196.111 416.418C194.098 414.405 191.373 413.265 188.526 413.245ZM197.046 424.148C197.041 426.425 196.134 428.607 194.524 430.217C192.914 431.827 190.731 432.734 188.455 432.739H38.0512C35.7742 432.734 33.5921 431.827 31.982 430.217C30.3719 428.607 29.4649 426.425 29.4593 424.148V423.931C29.4649 421.654 30.3719 419.472 31.982 417.862C33.5921 416.252 35.7742 415.345 38.0512 415.339H188.526C190.803 415.344 192.985 416.251 194.596 417.861C196.206 419.471 197.114 421.654 197.119 423.931V424.148H197.046Z" fill="#030087"/>
<path d="M269.973 396.06H283.186C286.037 396.052 288.77 394.916 290.786 392.9C292.802 390.884 293.938 388.152 293.945 385.301V385.082C293.938 382.231 292.802 379.499 290.786 377.483C288.77 375.467 286.037 374.331 283.186 374.324H270.045C267.194 374.331 264.462 375.467 262.446 377.483C260.43 379.499 259.294 382.231 259.287 385.082V385.299C259.275 386.709 259.543 388.108 260.075 389.413C260.607 390.719 261.393 391.907 262.386 392.907C263.38 393.908 264.562 394.702 265.864 395.243C267.166 395.784 268.563 396.061 269.973 396.06ZM261.381 385.157C261.386 382.88 262.293 380.698 263.903 379.088C265.514 377.478 267.696 376.571 269.973 376.565H283.186C285.464 376.57 287.646 377.477 289.257 379.087C290.867 380.697 291.774 382.88 291.78 385.157V385.374C291.774 387.651 290.867 389.833 289.257 391.443C287.646 393.053 285.464 393.96 283.186 393.965H270.045C267.768 393.96 265.586 393.053 263.976 391.443C262.366 389.833 261.459 387.651 261.454 385.374V385.157H261.381Z" fill="#030087"/>
<path d="M38.0512 396.06H116.249C119.101 396.052 121.833 394.916 123.849 392.9C125.865 390.884 127.001 388.152 127.008 385.301V385.082C127.001 382.231 125.865 379.499 123.849 377.483C121.833 375.467 119.101 374.331 116.249 374.324H38.0512C35.2002 374.331 32.468 375.467 30.4522 377.483C28.4363 379.499 27.3008 382.231 27.294 385.082V385.299C27.3004 388.15 28.4357 390.883 30.4516 392.9C32.4675 394.916 35.1999 396.052 38.0512 396.06ZM29.4593 385.157C29.4649 382.88 30.3719 380.698 31.982 379.088C33.5921 377.478 35.7742 376.571 38.0512 376.565H116.249C118.526 376.571 120.709 377.478 122.319 379.088C123.929 380.698 124.836 382.88 124.841 385.157V385.374C124.836 387.651 123.929 389.833 122.319 391.443C120.709 393.053 118.526 393.96 116.249 393.965H38.0512C35.7742 393.96 33.5921 393.053 31.982 391.443C30.3719 389.833 29.4649 387.651 29.4593 385.374V385.157Z" fill="#030087"/>
<path d="M38.0512 357.213H156.757C159.608 357.206 162.34 356.07 164.356 354.054C166.372 352.039 167.507 349.306 167.514 346.456V346.239C167.507 343.388 166.372 340.655 164.356 338.639C162.34 336.623 159.608 335.487 156.757 335.48H152.425C153.671 335.055 154.879 334.524 156.034 333.892L170.836 326.093L183.399 352.452L183.906 353.606L184.266 354.4L193.87 374.328H153.94C151.09 374.336 148.358 375.471 146.342 377.486C144.326 379.501 143.19 382.232 143.181 385.082V385.299C143.188 388.15 144.324 390.883 146.34 392.899C148.356 394.915 151.089 396.051 153.94 396.058H232.868C235.719 396.051 238.451 394.915 240.467 392.899C242.483 390.883 243.619 388.15 243.626 385.299V385.082C243.619 382.232 242.483 379.5 240.467 377.484C238.45 375.468 235.718 374.332 232.868 374.325H197.986L250.118 350.932L210.116 342.199L224.268 335.485L201.523 299.526C197.838 293.713 192.086 289.512 185.426 287.772C178.767 286.031 171.695 286.88 165.637 290.147L142.387 302.638C140.799 299.678 135.529 290.003 129.753 279.315H195.893C198.305 279.313 200.618 278.354 202.324 276.649C204.029 274.943 204.989 272.631 204.991 270.219V270.002C205.003 268.677 204.718 267.366 204.155 266.166C203.592 264.966 202.767 263.908 201.741 263.07H239.721V215.403H168.454V260.886H119.715C115.311 252.801 111.7 246.156 110.617 244.134L114.949 239.008L105.057 233.882L102.675 229.55C101.873 228.076 100.782 226.78 99.467 225.737C98.1523 224.695 96.641 223.929 95.0234 223.484C93.4057 223.039 91.715 222.925 90.0523 223.148C88.3895 223.372 86.7889 223.928 85.346 224.784L85.1293 224.928C84.9126 225.072 84.7686 225.144 84.552 225.288C85.2176 223.814 85.5621 222.216 85.5627 220.599C85.5627 217.65 84.3912 214.821 82.3059 212.736C80.2206 210.651 77.3923 209.479 74.4432 209.479C71.4942 209.479 68.6659 210.651 66.5806 212.736C64.4953 214.821 63.3238 217.65 63.3238 220.599C63.3229 222.775 63.9494 224.906 65.1285 226.736C62.9269 224.894 60.1003 223.972 57.2362 224.16C54.3721 224.349 51.6908 225.634 49.7496 227.748C49.956 226.922 50.0528 226.072 50.0374 225.22C50.0251 222.641 49.1117 220.146 47.4553 218.168C45.7989 216.191 43.5035 214.854 40.9659 214.389C38.4283 213.924 35.8079 214.36 33.5579 215.622C31.3078 216.884 29.5694 218.893 28.6432 221.301C27.717 223.708 27.6612 226.364 28.4854 228.809C29.3096 231.253 30.962 233.333 33.1571 234.689C35.3521 236.044 37.9518 236.59 40.5067 236.233C43.0616 235.875 45.4111 234.635 47.1492 232.729C46.9426 233.555 46.8458 234.405 46.8614 235.256C46.8614 236.717 47.149 238.163 47.7078 239.512C48.2666 240.861 49.0856 242.086 50.1182 243.119C51.1507 244.152 52.3765 244.971 53.7256 245.529C55.0746 246.088 56.5206 246.376 57.9808 246.376C59.441 246.376 60.887 246.088 62.236 245.529C63.5851 244.971 64.8109 244.152 65.8434 243.119C66.8759 242.086 67.695 240.861 68.2538 239.512C68.8126 238.163 69.1002 236.717 69.1002 235.256C69.1027 233.077 68.4761 230.943 67.2955 229.111C69.3044 230.781 71.8313 231.699 74.4432 231.71C76.4887 231.726 78.495 231.149 80.2196 230.049C79.3116 231.847 78.8566 233.839 78.8944 235.853C78.9322 237.866 79.4615 239.84 80.4363 241.602L91.0448 261.397L74.4432 323.567H56.32C54.463 323.568 52.6825 324.307 51.3694 325.62C50.0564 326.933 49.3179 328.713 49.3162 330.57V330.714C49.3386 332.549 50.0618 334.305 51.3376 335.624H37.9801C35.1289 335.631 32.3966 336.767 30.3805 338.783C28.3644 340.799 27.2285 343.532 27.2213 346.383V346.599C27.2747 349.435 28.4396 352.136 30.4653 354.121C32.4909 356.106 35.2151 357.217 38.0512 357.213ZM241.524 385.157V385.373C241.518 387.65 240.611 389.833 239.001 391.443C237.391 393.053 235.209 393.96 232.932 393.965H154.016C151.739 393.96 149.557 393.053 147.947 391.443C146.337 389.833 145.43 387.65 145.424 385.373V385.157C145.43 382.88 146.337 380.698 147.947 379.088C149.557 377.477 151.739 376.57 154.016 376.565H232.932C234.061 376.562 235.18 376.783 236.223 377.213C237.267 377.644 238.215 378.277 239.014 379.075C239.812 379.874 240.445 380.822 240.876 381.866C241.306 382.909 241.527 384.028 241.524 385.157ZM38.9908 234.105C37.2198 234.105 35.4884 233.58 34.0157 232.597C32.543 231.613 31.3951 230.215 30.7171 228.579C30.0392 226.943 29.8616 225.142 30.2069 223.405C30.5522 221.668 31.4049 220.072 32.6571 218.82C33.9093 217.568 35.5047 216.715 37.2417 216.369C38.9787 216.023 40.7791 216.201 42.4154 216.878C44.0516 217.556 45.4501 218.704 46.4341 220.176C47.4181 221.649 47.9432 223.38 47.9432 225.151C47.9435 226.327 47.712 227.491 47.2622 228.577C46.8124 229.664 46.153 230.651 45.3217 231.482C44.4904 232.314 43.5034 232.973 42.4171 233.423C41.3308 233.873 40.1666 234.105 38.9908 234.105ZM101.952 294.178L120.873 324.504C124.103 329.686 129.026 333.59 134.808 335.553H90.8329L101.952 294.178ZM206.938 343.711L243.258 351.726L195.673 373.027L186.286 353.459L206.072 344.007L206.938 343.711ZM141.52 305.587L166.649 292.013C172.236 289.013 178.752 288.239 184.886 289.846C191.021 291.453 196.32 295.323 199.718 300.678L221.163 334.613L206.722 341.473L206 341.834L185.422 351.582L171.847 323.204L155.028 332.086C149.528 334.968 143.143 335.671 137.147 334.052C131.152 332.433 125.988 328.613 122.686 323.353L102.685 291.366L107.09 274.831L104.996 274.254L98.993 296.706H83.9019L92.8559 263.131H118.416C123.253 272.083 130.401 285.226 140.943 304.648L141.52 305.587ZM170.692 217.57H237.625V260.886H170.692V217.563V217.57ZM195.892 263.058C197.73 263.059 199.493 263.79 200.792 265.09C202.092 266.39 202.822 268.153 202.823 269.991V270.135C202.822 271.973 202.092 273.736 200.792 275.035C199.492 276.335 197.73 277.065 195.892 277.066H154.598V262.989H195.9L195.892 263.058ZM152.425 263.058V277.139H128.596C125.998 272.373 123.397 267.536 120.942 263.058H152.425ZM100.798 230.567L103.325 235.187L103.469 235.476L111.555 239.665L108.233 243.635V243.997C108.879 245.587 109.677 247.11 110.615 248.546C108.734 249.776 106.456 250.243 104.243 249.853C102.029 249.462 100.048 248.243 98.7019 246.444L96.9699 247.737C97.9896 249.111 99.3183 250.226 100.849 250.991C102.379 251.756 104.068 252.151 105.778 252.143C107.856 252.158 109.892 251.555 111.626 250.411C112.92 252.865 114.731 256.185 117.259 260.807H93.2877L85.7794 246.872L98.4157 227.593C99.401 228.414 100.211 229.426 100.798 230.567ZM58.0552 244.141C56.2842 244.141 54.5531 243.616 53.0806 242.632C51.6081 241.648 50.4604 240.25 49.7827 238.613C49.105 236.977 48.9277 235.177 49.2732 233.44C49.6187 231.703 50.4714 230.108 51.7237 228.855C52.9759 227.603 54.5714 226.75 56.3083 226.405C58.0453 226.059 59.8456 226.237 61.4818 226.914C63.1179 227.592 64.5163 228.74 65.5002 230.212C66.4841 231.685 67.0093 233.416 67.0093 235.187C67.0097 236.363 66.7784 237.527 66.3285 238.614C65.8787 239.7 65.2192 240.688 64.3876 241.519C63.5561 242.351 62.5688 243.01 61.4823 243.46C60.3957 243.91 59.2312 244.141 58.0552 244.141ZM65.5652 220.531C65.5648 218.76 66.0897 217.028 67.0734 215.556C68.0571 214.083 69.4554 212.935 71.0915 212.257C72.7277 211.579 74.5281 211.402 76.2651 211.747C78.0021 212.092 79.5977 212.945 80.8502 214.197C82.1026 215.449 82.9555 217.045 83.3012 218.782C83.6468 220.519 83.4696 222.319 82.7919 223.955C82.1142 225.592 80.9666 226.99 79.494 227.974C78.0215 228.958 76.2903 229.483 74.5192 229.483C73.3432 229.484 72.1785 229.253 71.0918 228.803C70.0051 228.354 69.0176 227.694 68.1858 226.863C67.3539 226.031 66.6941 225.044 66.2439 223.958C65.7937 222.871 65.5619 221.707 65.5619 220.531H65.5652ZM86.2871 226.668L86.5038 226.522C87.6977 225.809 89.0264 225.351 90.406 225.177C91.7857 225.003 93.1865 225.117 94.52 225.512C95.2462 225.726 95.9476 226.016 96.6125 226.378L84.6231 244.715L82.4578 240.599C81.1468 238.238 80.8132 235.457 81.5285 232.853C82.2437 230.249 83.9508 228.028 86.2839 226.668H86.2871ZM51.5543 330.714V330.57C51.5543 329.287 52.0638 328.057 52.9709 327.15C53.8779 326.242 55.1082 325.732 56.3912 325.732H76.1752L83.3957 298.8H98.4836L88.6676 335.553H56.3912V335.48C55.1194 335.484 53.8976 334.985 52.9917 334.093C52.0859 333.2 51.5692 331.986 51.5543 330.714ZM29.4594 346.31C29.4649 344.033 30.3719 341.851 31.982 340.241C33.5921 338.631 35.7742 337.724 38.0512 337.718H156.757C159.034 337.724 161.216 338.631 162.826 340.241C164.436 341.851 165.343 344.033 165.349 346.31V346.527C165.344 348.804 164.437 350.986 162.827 352.597C161.217 354.207 159.034 355.115 156.757 355.12H38.0512C35.774 355.115 33.5916 354.207 31.9814 352.597C30.3713 350.986 29.4645 348.804 29.4594 346.527V346.31Z" fill="#030087"/>
<path d="M180.707 91.2028L178.636 91.836L182.331 103.92L184.402 103.287L180.707 91.2028Z" fill="#030087"/>
<path d="M159.488 91.274L157.418 91.9062L161.107 103.987L163.177 103.354L159.488 91.274Z" fill="#030087"/>
<path d="M165.566 126.014H193.725L189.97 113.74L187.877 114.388L190.837 123.849H167.154L164.049 113.74L161.954 114.388L165.566 126.014Z" fill="#030087"/>
<path d="M314.452 34.3871C314.433 35.2877 314.157 36.1641 313.656 36.9131L315.463 38.1405C316.241 37.046 316.646 35.7298 316.617 34.3871C316.621 32.9823 316.173 31.6136 315.339 30.4827C314.506 29.3518 313.331 28.5186 311.989 28.1059C310.646 27.6932 309.206 27.7229 307.881 28.1905C306.557 28.6582 305.417 29.539 304.631 30.7033L306.436 31.9307C306.828 31.3309 307.364 30.8385 307.994 30.4982C308.625 30.158 309.33 29.9805 310.047 29.982C311.214 29.9867 312.332 30.4523 313.157 31.2774C313.982 32.1025 314.447 33.2203 314.452 34.3871Z" fill="#030087"/>
<path d="M294.089 32.6536C295.445 32.6536 296.544 31.5546 296.544 30.1988C296.544 28.843 295.445 27.744 294.089 27.744C292.733 27.744 291.634 28.843 291.634 30.1988C291.634 31.5546 292.733 32.6536 294.089 32.6536Z" fill="#030087"/>
<path d="M99.3536 239.375C100.51 239.375 101.448 238.438 101.448 237.281C101.448 236.124 100.51 235.187 99.3536 235.187C98.197 235.187 97.2594 236.124 97.2594 237.281C97.2594 238.438 98.197 239.375 99.3536 239.375Z" fill="#030087"/>
<path d="M217.841 255.116L231.128 239.231L217.841 223.346L216.18 224.79L228.31 239.231L216.18 253.744L217.841 255.116Z" fill="white"/>
<path d="M187.371 223.346L174.085 239.231L187.371 255.116L189.032 253.744L176.902 239.231L189.032 224.79L187.371 223.346Z" fill="white"/>
<path d="M208.024 222.504L195.762 255.154L197.79 255.916L210.052 223.266L208.024 222.504Z" fill="white"/>
<path d="M468.969 280.243H441.963V172.803C441.955 165.72 439.137 158.93 434.129 153.922C429.121 148.913 422.331 146.096 415.248 146.088H386.22C390.168 144.42 393.678 141.865 396.477 138.619C399.276 135.374 401.288 131.527 402.357 127.376C403.426 123.226 403.523 118.886 402.641 114.692C401.758 110.498 399.92 106.565 397.269 103.198L352.068 45.1427C349.581 41.943 346.394 39.3554 342.752 37.5782C339.11 35.801 335.109 34.8814 331.057 34.8901L304.921 5.64904C303.425 3.96768 301.608 2.60305 299.576 1.63572C297.544 0.668386 295.339 0.117972 293.091 0.0169746C290.843 -0.0840226 288.598 0.266446 286.487 1.04768C284.377 1.82892 282.445 3.02509 280.804 4.56556L280.588 4.78225C277.381 7.83616 275.496 12.0224 275.334 16.4473C275.172 20.8722 276.746 25.1851 279.721 28.4652L280.804 29.6215L266.363 43.0437L267.807 44.6317L282.176 31.2014L288.096 37.6279L285.787 39.7932C285.287 40.253 284.888 40.8112 284.614 41.4326C284.341 42.054 284.199 42.7253 284.197 43.4043C284.178 44.0836 284.297 44.7596 284.545 45.3923C284.793 46.0249 285.166 46.6011 285.641 47.0865L285.714 47.1593C286.173 47.6586 286.731 48.0575 287.353 48.3308C287.974 48.6041 288.645 48.7459 289.323 48.7473C290.005 48.7827 290.686 48.6722 291.321 48.4231C291.956 48.1741 292.531 47.7923 293.007 47.3032L295.172 45.2818L304.271 55.1738L275.324 109.544L268.032 104.561C265.471 102.803 262.32 102.127 259.263 102.682C256.207 103.236 253.493 104.976 251.714 107.522L240.594 123.551C239.989 124.398 239.568 125.363 239.356 126.382C239.145 127.401 239.149 128.454 239.367 129.471C239.563 130.481 239.958 131.441 240.528 132.296C241.098 133.151 241.832 133.885 242.688 134.454L242.832 134.527H217.055L200.363 77.4207H118.921L138.994 146.015H26.7151C19.6324 146.023 12.8423 148.841 7.83412 153.849C2.82592 158.857 0.0085591 165.647 0 172.73V426.169C0.0085591 433.252 2.82592 440.042 7.83412 445.05C12.8423 450.058 19.6324 452.875 26.7151 452.884H415.177C422.26 452.876 429.05 450.059 434.058 445.05C439.067 440.042 441.884 433.252 441.892 426.169V342.701H468.898V280.243H468.969ZM348.388 342.701H406.512V400.825H348.388V342.701ZM348.388 340.534V282.409H406.512V340.534H348.388ZM453.807 282.409V340.534H408.606V282.409H453.807ZM415.177 148.253C421.682 148.272 427.915 150.865 432.515 155.465C437.115 160.064 439.707 166.298 439.727 172.803V186.522H365.067L345.139 148.253H415.177ZM398.498 131.647C396.41 135.995 393.13 139.662 389.039 142.218C384.949 144.775 380.216 146.117 375.392 146.088H341.594L368.165 197.063L329.677 215.042L296.102 148.542C294.164 144.72 293.239 140.464 293.416 136.182C293.592 131.9 294.864 127.735 297.109 124.084C299.355 120.434 302.499 117.421 306.241 115.333C309.984 113.244 314.199 112.151 318.485 112.157H399.715C400.803 115.326 401.256 118.679 401.047 122.023C400.838 125.367 399.972 128.637 398.498 131.647ZM386.872 233.094L331.351 260.316C329.347 261.303 327.042 261.487 324.907 260.829C322.772 260.171 320.97 258.721 319.869 256.777L319.798 256.632C318.64 254.54 318.355 252.075 319.004 249.773C319.327 248.635 319.886 247.577 320.644 246.668C321.403 245.76 322.345 245.022 323.408 244.502L350.124 230.639L345.355 210.205L369.182 199.086L386.872 233.094ZM190.62 146.092L187.871 136.778H269.462L272.211 146.092H190.62ZM274.451 146.092L271.701 136.634C274.854 137.869 278.318 138.071 281.593 137.211C283.791 136.678 285.855 135.698 287.656 134.331C289.458 132.964 290.958 131.241 292.063 129.268L292.786 127.974C290.609 133.81 290.557 140.227 292.64 146.097L274.451 146.092ZM312.938 92.5879L326.513 109.99H318.495C314.442 109.972 310.437 110.864 306.776 112.601C303.114 114.338 299.889 116.876 297.339 120.026L312.938 92.5879ZM350.336 46.4445L395.537 104.5C396.873 106.181 397.989 108.025 398.858 109.988H329.249L314.09 90.4888L325.138 70.9942L323.261 69.9108L313.881 86.446L295.612 76.0478L309.476 49.9828C311.396 46.3889 314.182 43.3312 317.583 41.0871C320.983 38.843 324.891 37.4835 328.95 37.1321C333.009 36.7806 337.092 37.4483 340.828 39.0745C344.563 40.7007 347.834 43.234 350.343 46.4445H350.336ZM281.309 26.9499C278.715 24.0921 277.339 20.3347 277.474 16.4777C277.609 12.6206 279.244 8.96863 282.032 6.29913L282.248 6.08243C283.676 4.73849 285.359 3.69462 287.198 3.01258C289.037 2.33054 290.993 2.02418 292.952 2.11163C294.911 2.19908 296.833 2.67856 298.603 3.52171C300.374 4.36485 301.957 5.55454 303.26 7.02037L303.981 7.88715L282.319 28.1013L281.309 26.9499ZM299.655 46.8779C302.584 46.4468 305.27 45.0056 307.249 42.8035C309.227 40.6014 310.374 37.777 310.49 34.8189L308.323 34.675C308.296 36.0315 308.002 37.3694 307.458 38.6121C306.913 39.8547 306.129 40.9777 305.149 41.9168C304.17 42.8558 303.015 43.5924 301.751 44.0844C300.486 44.5763 299.137 44.814 297.781 44.7837L295.326 42.1122L291.57 45.6456C290.994 46.1806 290.231 46.4658 289.446 46.4388C288.661 46.4118 287.918 46.0749 287.381 45.5017L287.308 45.429C287.036 45.1478 286.824 44.8147 286.683 44.4496C286.543 44.0845 286.478 43.6948 286.491 43.3038C286.505 42.9129 286.597 42.5287 286.762 42.1742C286.928 41.8197 287.163 41.5022 287.454 41.2406L291.28 37.6311L283.916 29.6166L305.585 9.40241L328.314 34.8917C323.992 35.3398 319.848 36.8455 316.246 39.2759C312.645 41.7063 309.698 44.9865 307.665 48.8266L305.425 53.0149L299.655 46.8779ZM241.453 129.119C241.301 128.387 241.3 127.632 241.449 126.9C241.598 126.168 241.894 125.474 242.32 124.859L253.51 108.758C254.968 106.677 257.187 105.253 259.686 104.793C262.185 104.334 264.765 104.876 266.868 106.303L276.111 112.657L294.595 77.9253L312.869 88.3235L290.263 128.181C289.303 129.913 287.991 131.424 286.412 132.618C284.832 133.812 283.02 134.662 281.092 135.112C279.174 135.583 277.18 135.66 275.231 135.337C273.283 135.014 271.42 134.299 269.756 133.235L256.182 124.57L251.706 131.213C250.877 132.431 249.607 133.278 248.164 133.575C246.722 133.871 245.22 133.594 243.979 132.801L243.835 132.728C242.61 131.873 241.758 130.582 241.453 129.119ZM253.581 132.441L256.903 127.531L267.95 134.606H251.416C252.243 133.997 252.974 133.267 253.583 132.441H253.581ZM214.807 134.606H148.886L132.856 79.6589H198.78L214.807 134.606ZM121.809 79.6589H130.542L147.226 136.773H185.566L188.315 146.088H141.16L121.809 79.6589ZM26.7151 148.253H293.51C293.727 148.686 293.871 149.12 294.087 149.547L312.79 186.516H2.16534V172.796C2.18625 166.292 4.77965 160.061 9.37928 155.462C13.9789 150.864 20.2111 148.272 26.7151 148.253ZM439.799 426.238C439.78 432.744 437.188 438.977 432.588 443.577C427.988 448.176 421.755 450.769 415.25 450.788H26.7878C20.2833 450.769 14.0506 448.177 9.45091 443.578C4.85119 438.979 2.25817 432.746 2.23812 426.242V188.685H313.946L328.676 217.927L343.261 211.067L347.521 229.407L322.321 242.55C321.019 243.238 319.868 244.181 318.938 245.323C318.007 246.465 317.316 247.783 316.905 249.197C316.494 250.612 316.372 252.095 316.546 253.558C316.72 255.02 317.186 256.433 317.918 257.712L317.989 257.856C318.945 259.542 320.331 260.944 322.005 261.92C323.679 262.897 325.582 263.413 327.52 263.416C329.191 263.402 330.841 263.034 332.359 262.334L389.906 234.102L366.221 188.685H439.801V280.243H346.229V402.984H408.687V342.701H439.807L439.799 426.238ZM466.806 340.53H456.047V282.409H466.806V340.53Z" fill="#030087"/>
<defs>
<linearGradient id="paint0_linear" x1="346.974" y1="341.619" x2="346.974" y2="281.327" gradientUnits="userSpaceOnUse">
<stop stop-color="#F39A82"/>
<stop offset="1" stop-color="#FDD5B0"/>
</linearGradient>
<linearGradient id="paint1_linear" x1="346.974" y1="401.909" x2="346.974" y2="341.617" gradientUnits="userSpaceOnUse">
<stop stop-color="#F39A82"/>
<stop offset="1" stop-color="#FDD5B0"/>
</linearGradient>
<linearGradient id="paint2_linear" x1="-1.32721" y1="187.604" x2="-1.32721" y2="147.169" gradientUnits="userSpaceOnUse">
<stop stop-color="#F39A82"/>
<stop offset="1" stop-color="#FDD5B0"/>
</linearGradient>
<linearGradient id="paint3_linear" x1="81.8329" y1="353.026" x2="81.8329" y2="261.975" gradientUnits="userSpaceOnUse">
<stop stop-color="#F39A82"/>
<stop offset="1" stop-color="#FDD5B0"/>
</linearGradient>
<linearGradient id="paint4_linear" x1="215.166" y1="433.823" x2="215.166" y2="414.256" gradientUnits="userSpaceOnUse">
<stop stop-color="#F39A82"/>
<stop offset="1" stop-color="#FDD5B0"/>
</linearGradient>
<linearGradient id="paint5_linear" x1="143.799" y1="394.976" x2="143.799" y2="375.407" gradientUnits="userSpaceOnUse">
<stop stop-color="#F39A82"/>
<stop offset="1" stop-color="#FDD5B0"/>
</linearGradient>
<linearGradient id="paint6_linear" x1="27.841" y1="394.976" x2="27.841" y2="375.407" gradientUnits="userSpaceOnUse">
<stop stop-color="#F39A82"/>
<stop offset="1" stop-color="#FDD5B0"/>
</linearGradient>
<linearGradient id="paint7_linear" x1="346.974" y1="341.619" x2="346.974" y2="281.327" gradientUnits="userSpaceOnUse">
<stop stop-color="#F39A82"/>
<stop offset="1" stop-color="#FDD5B0"/>
</linearGradient>
<linearGradient id="paint8_linear" x1="346.974" y1="401.909" x2="346.974" y2="341.617" gradientUnits="userSpaceOnUse">
<stop stop-color="#F39A82"/>
<stop offset="1" stop-color="#FDD5B0"/>
</linearGradient>
<linearGradient id="paint9_linear" x1="291.836" y1="216.486" x2="291.836" y2="111.069" gradientUnits="userSpaceOnUse">
<stop stop-color="#F39A82"/>
<stop offset="1" stop-color="#FDD5B0"/>
</linearGradient>
</defs>
</svg>
