<svg width="106" height="106" viewBox="0 0 106 106" fill="none" xmlns="http://www.w3.org/2000/svg">
<path d="M104 55.7377V92.2603C104 95.4303 101.464 98 98.3367 98H49V50H98.3367C101.464 50 104 52.5698 104 55.7377Z" fill="#FF7680"/>
<path d="M104 55.7377V92.2603C104 95.4303 101.464 98 98.3367 98H49V93.4149H92.9901C96.1179 93.4149 98.6534 90.8451 98.6534 87.6751V55.7377C98.6534 52.5698 96.1179 50 92.9901 50H98.3367C101.464 50 104 52.5698 104 55.7377Z" fill="#F44D90"/>
<path d="M55 82H104V89H55V82Z" fill="#46637F"/>
<path d="M104 82V89H98C98.1424 88.5368 98.2158 88.0495 98.2158 87.546V82H104Z" fill="#234063"/>
<path d="M8 101.215C8 102.753 9.3432 104 11 104C12.6568 104 14 102.753 14 101.215V98H8V101.215Z" fill="#46637F"/>
<path d="M51 98V101.215C51 102.753 52.5671 104 54.5 104C56.4329 104 58 102.753 58 101.215V98H51Z" fill="#46637F"/>
<path d="M98 98H93V101.215C93 102.753 94.1193 104 95.5 104C96.8807 104 98 102.753 98 101.215V98Z" fill="#46637F"/>
<path d="M63 24.7254V92.2746C63 95.4367 60.4929 98 57.4002 98H7.5998C4.5071 98 2 95.4367 2 92.2746V24.7254C2 21.5633 4.5071 19 7.5998 19H57.4002C60.4929 19 63 21.5633 63 24.7254Z" fill="#FFFF4D"/>
<path d="M63 24.7254V92.2746C63 95.4367 60.4929 98 57.4002 98H7.5998C4.5071 98 2 95.4367 2 92.2746V91.7632H51.3002C54.3929 91.7632 56.9 89.1998 56.9 86.0377V24.7254C56.9 21.5633 54.3929 19 51.3002 19H57.4002C60.4929 19 63 21.5633 63 24.7254Z" fill="#FFE150"/>
<path d="M8 57H58V92H8V57Z" fill="#F7904B"/>
<path d="M58 57V92H8V87.3892H48.3021C51.0688 87.3892 53.3104 85.1341 53.3104 82.3509V57H58Z" fill="#F25D40"/>
<path d="M23 34H43V41H23V34Z" fill="#46637F"/>
<path d="M88 58.7052V68H81V58.7052L84.5 55L88 58.7052Z" fill="#D8E5EF"/>
<path d="M57.7695 17.5316H45.5227V3.10547H48.1021C48.9568 3.10547 49.6497 2.41026 49.6497 1.55273C49.6497 0.695211 48.9568 0 48.1021 0H16.8977C16.043 0 15.3501 0.695211 15.3501 1.55273C15.3501 2.41026 16.043 3.10547 16.8977 3.10547H19.4771V17.5316H7.23027C3.2434 17.5316 0 20.7857 0 24.7858V92.0546C0 95.7004 2.69451 98.7266 6.19048 99.234V101.342C6.19048 103.91 8.27316 106 10.8333 106C13.3935 106 15.4762 103.91 15.4762 101.342V99.309H49.5238V101.342C49.5238 103.91 51.6065 106 54.1667 106C56.7268 106 58.8095 103.91 58.8095 101.342V99.234C62.3055 98.7266 65 95.7004 65 92.0546V36.606C65 35.7485 64.3073 35.0533 63.4524 35.0533C62.5975 35.0533 61.9048 35.7485 61.9048 36.606V92.0546C61.9048 94.3423 60.0499 96.2035 57.7697 96.2035H7.23027C4.95032 96.2035 3.09524 94.3423 3.09524 92.0546V24.7858C3.09524 22.4981 4.95032 20.6371 7.23027 20.6371H57.7695C60.0497 20.6371 61.9046 22.4981 61.9046 24.7858V29.3374C61.9046 30.1949 62.5973 30.8901 63.4522 30.8901C64.3071 30.8901 64.9998 30.1949 64.9998 29.3374V24.7858C64.9998 20.7857 61.7564 17.5316 57.7695 17.5316ZM55.7141 99.309V101.342C55.7141 102.198 55.0199 102.895 54.1665 102.895C53.3132 102.895 52.6188 102.198 52.6188 101.342V99.309H55.7141ZM12.381 99.309V101.342C12.381 102.198 11.6868 102.895 10.8333 102.895C9.97987 102.895 9.28571 102.198 9.28571 101.342V99.309H12.381ZM22.5723 3.10547H42.4275V17.5316H22.5723V3.10547Z" fill="black"/>
<path d="M20.9175 93H57.4412C58.3023 93 59 92.2989 59 91.4341V56.5659C59 55.7011 58.3023 55 57.4412 55H7.55882C6.69794 55 6 55.7011 6 56.5659V91.4341C6 92.2989 6.69794 93 7.55882 93H13.7941C14.655 93 15.3529 92.2989 15.3529 91.4341C15.3529 90.5693 14.655 89.8681 13.7941 89.8681H9.11765V58.1319H55.8824V89.8681H20.9175C20.0566 89.8681 19.3587 90.5693 19.3587 91.4341C19.3587 92.2989 20.0566 93 20.9175 93Z" fill="black"/>
<path d="M46.5385 71C47.3881 71 48.0769 70.3551 48.0769 69.5596V64.8809H51.4615C52.3112 64.8809 53 64.2359 53 63.4404C53 62.6449 52.3112 62 51.4615 62H14.5385C13.6888 62 13 62.6449 13 63.4404C13 64.2359 13.6888 64.8809 14.5385 64.8809H45V69.5596C45 70.3551 45.6888 71 46.5385 71Z" fill="black"/>
<path d="M42.5 43C43.3284 43 44 42.2538 44 41.3333V34.6667C44 33.7462 43.3284 33 42.5 33H22.5C21.6716 33 21 33.7462 21 34.6667V41.3333C21 42.2538 21.6716 43 22.5 43H42.5ZM24 36.3333H41V39.6667H24V36.3333Z" fill="black"/>
<path d="M98.7024 48.7947H86.2874V42.9156C86.2874 40.2051 84.0586 38 81.3189 38H69.5622C68.6994 38 68.0002 38.6919 68.0002 39.5453C68.0002 40.3988 68.6994 41.0907 69.5622 41.0907H81.3189C82.336 41.0907 83.1635 41.9095 83.1635 42.9156V48.7947H69.562C68.6991 48.7947 68 49.4866 68 50.34C68 51.1935 68.6991 51.8854 69.562 51.8854H83.1635V54.9748L79.8619 58.3022C79.5753 58.5911 79.4147 58.9799 79.4147 59.3848V68.8629C79.4147 69.7163 80.1139 70.4082 80.9767 70.4082H88.4742C89.337 70.4082 90.0362 69.7163 90.0362 68.8629V59.3848C90.0362 58.9799 89.8756 58.5911 89.589 58.3022L86.2874 54.9748V51.8854H98.7024C101.004 51.8854 102.876 53.7375 102.876 56.0143V80.3676H97.562C96.6992 80.3676 96 81.0595 96 81.9129C96 82.7664 96.6992 83.4583 97.562 83.4583H102.876V87.5305H69.562C68.6991 87.5305 68 88.2224 68 89.0759C68 89.9293 68.6991 90.6212 69.562 90.6212H102.876V92.121C102.876 94.3978 101.004 96.2502 98.7024 96.2502H69.562C68.6991 96.2502 68 96.9421 68 97.7955C68 98.6489 68.6991 99.3408 69.562 99.3408H90.8925V101.364C90.8925 103.92 92.9948 106 95.5785 106C98.1622 106 100.264 103.92 100.264 101.364V99.1744C103.54 98.4649 106 95.5719 106 92.121V56.0143C106 52.0333 102.726 48.7947 98.7024 48.7947ZM86.9122 67.3175H82.5387V60.0165L84.7254 57.8127L86.9122 60.0165V67.3175ZM97.1405 101.364C97.1405 102.216 96.4399 102.909 95.5785 102.909C94.7171 102.909 94.0165 102.216 94.0165 101.364V99.3406H97.1405V101.364Z" fill="black"/>
<path d="M69.5681 83H90.4319C91.2981 83 92 82.3284 92 81.5C92 80.6716 91.2981 80 90.4319 80H69.5681C68.7019 80 68 80.6716 68 81.5C68 82.3284 68.7021 83 69.5681 83Z" fill="black"/>
</svg>
