<svg width="110" height="103" viewBox="0 0 110 103" fill="none" xmlns="http://www.w3.org/2000/svg">
<path d="M93.2414 64H15.7586C7.60771 64 1 57.4335 1 49.3333V31H95.0862L108 43.8333V49.3333C108 57.4335 101.392 64 93.2414 64Z" fill="#E9686A"/>
<path d="M26 31H1V7H10.6154L26 31Z" fill="#B11E48"/>
<path d="M48.8 101H34V53H71L48.8 101Z" fill="#FDBD40"/>
<path d="M49.1111 2H34V31H68L49.1111 2Z" fill="#FDBD40"/>
<path d="M20 39H34V46H20V39Z" fill="#F4F4E6"/>
<path d="M42 39H57V46H42V39Z" fill="#F4F4E6"/>
<path d="M64 39H79V46H64V39Z" fill="#F4F4E6"/>
<path d="M90 46H108V44.25L102.6 39H90V46Z" fill="#F4F4E6"/>
<path d="M14 2H30V6H14V2Z" fill="#AABECE"/>
<path d="M21 9H30V13H21V9Z" fill="#AABECE"/>
<path d="M14 89H30V92H14V89Z" fill="#AABECE"/>
<path d="M21 96H30V99H21V96Z" fill="#AABECE"/>
<path d="M35.1 37H19.9C18.8507 37 18 37.7462 18 38.6667V45.3333C18 46.2537 18.8507 47 19.9 47H35.1C36.1493 47 37 46.2537 37 45.3333V38.6667C37 37.7462 36.1493 37 35.1 37ZM33.2 43.6667H21.8V40.3333H33.2V43.6667Z" fill="black"/>
<path d="M57.1 37H41.9C40.8507 37 40 37.7462 40 38.6667V45.3333C40 46.2537 40.8507 47 41.9 47H57.1C58.1493 47 59 46.2537 59 45.3333V38.6667C59 37.7462 58.1493 37 57.1 37ZM55.2 43.6667H43.8V40.3333H55.2V43.6667Z" fill="black"/>
<path d="M79.2 37H64.8C63.8059 37 63 37.7462 63 38.6667V45.3333C63 46.2537 63.8059 47 64.8 47H79.2C80.194 47 81 46.2537 81 45.3333V38.6667C81 37.7462 80.194 37 79.2 37ZM77.4 43.6667H66.6V40.3333H77.4V43.6667Z" fill="black"/>
<path d="M109.463 42.8425L96.6295 29.9675C96.2858 29.6226 95.8196 29.4286 95.3333 29.4286H68.849L51.0547 0.864464C50.7196 0.326703 50.132 0 49.5 0H34.8333C33.8209 0 33 0.82354 33 1.83929V29.4286H26.6915L12.562 6.39336C12.2283 5.84916 11.6369 5.51763 11 5.51786H1.83333C0.820875 5.51786 0 6.3414 0 7.35714V49.6607C0.0100833 58.7987 7.39154 66.2042 16.5 66.2143H33V101.161C33 102.176 33.8209 103 34.8333 103H49.5C50.2152 103 50.8649 102.583 51.1647 101.931L67.5968 66.2143H93.5C102.608 66.2042 109.99 58.7987 110 49.6607V44.1429C110 43.655 109.807 43.1873 109.463 42.8425ZM105.574 44.1429H91.6667V40.4643H101.908L105.574 44.1429ZM36.6667 3.67857H48.4825L64.5333 29.4286H36.6667V3.67857ZM3.66667 9.19643H9.97517L22.385 29.4286H3.66667V9.19643ZM48.3267 99.3214H36.6667V55.1786H68.6345L48.3267 99.3214ZM93.5 62.5357H69.289L73.1647 54.1099C73.5889 53.1875 73.1876 52.0948 72.2682 51.6692C72.0273 51.5577 71.7651 51.5 71.5 51.5H34.8333C33.8209 51.5 33 52.3235 33 53.3393V62.5357H16.5C9.41577 62.5277 3.67469 56.7679 3.66667 49.6607V33.1071H94.5743L98.241 36.7857H89.8333C88.8209 36.7857 88 37.6093 88 38.625V45.9821C88 46.9979 88.8209 47.8214 89.8333 47.8214H106.333V49.6607C106.325 56.7679 100.584 62.5277 93.5 62.5357Z" fill="black"/>
<path d="M14 2H30V6H14V2Z" fill="black"/>
<path d="M21 9H30V13H21V9Z" fill="black"/>
<path d="M14 89H30V92H14V89Z" fill="black"/>
<path d="M21 96H30V99H21V96Z" fill="black"/>
</svg>
