<svg width="106" height="106" viewBox="0 0 106 106" fill="none" xmlns="http://www.w3.org/2000/svg">
<path d="M92 81.7143V90.2857C92 91.2325 91.2063 92 90.2273 92H15.7727C14.7937 92 14 91.2325 14 90.2857V81.7143C14 80.7675 14.7937 80 15.7727 80H40.5909V83.4286C40.5909 84.3753 41.3846 85.1429 42.3636 85.1429H63.6364C64.6154 85.1429 65.4091 84.3753 65.4091 83.4286V80H90.2273C91.2063 80 92 80.7675 92 81.7143Z" fill="#9E9E9E"/>
<path d="M90 80H84C85.1046 80 86 80.7675 86 81.7143V90.2857C86 91.2325 85.1046 92 84 92H90C91.1046 92 92 91.2325 92 90.2857V81.7143C92 80.7675 91.1046 80 90 80Z" fill="#545C60"/>
<path d="M34 92V100.571C34 102.465 32.433 104 30.5 104H23.5C21.567 104 20 102.465 20 100.571V92H34Z" fill="#37474F"/>
<path d="M86 92V100.571C86 102.465 84.433 104 82.5 104H75.5C73.567 104 72 102.465 72 100.571V92H86Z" fill="#37474F"/>
<path d="M87.6325 46.3579V46H18.4025V46.3579C18.1458 48.5074 18.0114 50.6703 18 52.8358V80H40.75V76.4211C40.75 75.4328 41.5335 74.6316 42.5 74.6316H63.5C64.4665 74.6316 65.25 75.4328 65.25 76.4211V80H88V52.8358C88.0002 50.671 87.8775 48.5081 87.6325 46.3579ZM29.375 62.1053C26.9588 62.1053 25 60.1023 25 57.6316C25 55.1608 26.9588 53.1579 29.375 53.1579C31.7912 53.1579 33.75 55.1608 33.75 57.6316C33.75 60.1023 31.7912 62.1053 29.375 62.1053ZM76.625 62.1053C74.2088 62.1053 72.25 60.1023 72.25 57.6316C72.25 55.1608 74.2088 53.1579 76.625 53.1579C79.0412 53.1579 81 55.1608 81 57.6316C81 60.1023 79.0412 62.1053 76.625 62.1053Z" fill="#FFEB3A"/>
<path d="M87.6729 46.3579V46H83V46.3579C83.218 48.5081 83.3273 50.671 83.3271 52.8358V80H88V52.8358C88.0002 50.671 87.8909 48.5081 87.6729 46.3579Z" fill="#FEC108"/>
<path d="M88 46H18L21.1335 20H84.8665L88 46Z" fill="#00BCD4"/>
<path d="M85.0314 20H80L82.9686 46H88L85.0314 20Z" fill="#00838F"/>
<path d="M86 12.8V18.2C86 19.1941 85.2224 20 84.2632 20H63.4211V12.8C63.4211 10.8118 61.8658 9.2 59.9474 9.2H46.0526C44.1342 9.2 42.5789 10.8118 42.5789 12.8V20H21.7368C20.7776 20 20 19.1941 20 18.2V12.8C20 8.318 33.8947 2 53 2C72.1053 2 86 8.318 86 12.8Z" fill="#FFEB3A"/>
<path d="M52.6341 2C51.7385 2 50.878 2 50 2C68.0176 2.594 80.7317 8.516 80.7317 12.8V18.2C80.7317 19.1941 79.9455 20 78.9756 20H84.2439C85.2138 20 86 19.1941 86 18.2V12.8C86 8.318 72.039 2 52.6341 2Z" fill="#FEC108"/>
<path d="M29.5 62C31.9853 62 34 59.9853 34 57.5C34 55.0147 31.9853 53 29.5 53C27.0147 53 25 55.0147 25 57.5C25 59.9853 27.0147 62 29.5 62Z" fill="#00BCD4"/>
<path d="M76.5 62C78.9853 62 81 59.9853 81 57.5C81 55.0147 78.9853 53 76.5 53C74.0147 53 72 55.0147 72 57.5C72 59.9853 74.0147 62 76.5 62Z" fill="#00BCD4"/>
<path d="M64 12V20H42V12C42 9.79086 43.6416 8 45.6667 8H60.3333C62.3584 8 64 9.79086 64 12Z" fill="#FF9801"/>
<path d="M60 8H54C56.2091 8 58 9.79086 58 12V20H64V12C64 9.79086 62.2091 8 60 8Z" fill="#F57C00"/>
<path d="M8.66667 28H5.33333C3.49238 28 2 29.6118 2 31.6V42.4C2 44.3882 3.49238 46 5.33333 46H8.66667C10.5076 46 12 44.3882 12 42.4V31.6C12 29.6118 10.5076 28 8.66667 28Z" fill="#9E9E9E"/>
<path d="M100.667 28H97.3333C95.4924 28 94 29.6118 94 31.6V42.4C94 44.3882 95.4924 46 97.3333 46H100.667C102.508 46 104 44.3882 104 42.4V31.6C104 29.6118 102.508 28 100.667 28Z" fill="#9E9E9E"/>
<path d="M100.444 28H96.8889C96.5886 28.0053 96.2901 28.0476 96 28.126C97.5657 28.5353 98.6614 29.9628 98.6667 31.6V42.4C98.6614 44.0372 97.5657 45.4647 96 45.874C96.2901 45.9524 96.5886 45.9947 96.8889 46H100.444C102.408 46 104 44.3882 104 42.4V31.6C104 29.6118 102.408 28 100.444 28Z" fill="#545C60"/>
<path d="M63.2857 74H42.7143C41.7675 74 41 74.7462 41 75.6667V82.3333C41 83.2538 41.7675 84 42.7143 84H63.2857C64.2325 84 65 83.2538 65 82.3333V75.6667C65 74.7462 64.2325 74 63.2857 74Z" fill="#F5F5F5"/>
<path d="M29.0001 52C26.5733 52 24.3856 53.4618 23.4569 55.7038C22.5282 57.9459 23.0415 60.5265 24.7575 62.2425C26.4735 63.9585 29.0541 64.4718 31.2962 63.5431C33.5382 62.6144 35 60.4267 35 57.9999C35 54.6863 32.3137 52 29.0001 52ZM29.0001 60.5713C27.5799 60.5713 26.4287 59.4201 26.4287 57.9999C26.4287 56.5798 27.5799 55.4285 29.0001 55.4285C30.4202 55.4285 31.5715 56.5798 31.5715 57.9999C31.5715 59.4201 30.4202 60.5713 29.0001 60.5713Z" fill="black"/>
<path d="M77 52C73.6863 52 71 54.6863 71 58C71 61.3137 73.6863 64 77 64C80.3137 64 83 61.3137 83 58C83 54.6863 80.3137 52 77 52ZM77 60.5714C75.5798 60.5714 74.4286 59.4202 74.4286 58C74.4286 56.5798 75.5798 55.4286 77 55.4286C78.4202 55.4286 79.5714 56.5798 79.5714 58C79.5714 59.4202 78.4202 60.5714 77 60.5714Z" fill="black"/>
<path d="M63.2857 54H42.7143C41.7675 54 41 54.8954 41 56C41 57.1046 41.7675 58 42.7143 58H63.2857C64.2325 58 65 57.1046 65 56C65 54.8954 64.2325 54 63.2857 54Z" fill="black"/>
<path d="M63.2857 62H42.7143C41.7675 62 41 62.6716 41 63.5C41 64.3284 41.7675 65 42.7143 65H63.2857C64.2325 65 65 64.3284 65 63.5C65 62.6716 64.2325 62 63.2857 62Z" fill="black"/>
<path d="M5.3 47.7H8.83333C11.7604 47.7 14.1333 45.3271 14.1333 42.4V31.8C14.1333 28.8729 11.7604 26.5 8.83333 26.5V24.7333C8.83333 22.7819 10.4153 21.2 12.3667 21.2H19.2213L16.2887 46.0747C16.0272 48.2674 15.8974 50.4738 15.9 52.682V77.7333C13.9486 77.7333 12.3667 79.3153 12.3667 81.2667V90.1C12.3667 92.0514 13.9486 93.6333 15.9 93.6333H17.6667V100.7C17.6667 103.627 20.0396 106 22.9667 106H30.0333C32.9604 106 35.3333 103.627 35.3333 100.7V93.6333H70.6667V100.7C70.6667 103.627 73.0396 106 75.9667 106H83.0333C85.9604 106 88.3333 103.627 88.3333 100.7V93.6333H90.1C92.0514 93.6333 93.6333 92.0514 93.6333 90.1V81.2667C93.6333 79.3153 92.0514 77.7333 90.1 77.7333V52.682C90.1026 50.4738 89.9728 48.2674 89.7113 46.0747L86.7787 21.2H93.6333C95.5847 21.2 97.1667 22.7819 97.1667 24.7333V26.5C94.2396 26.5 91.8667 28.8729 91.8667 31.8V42.4C91.8667 45.3271 94.2396 47.7 97.1667 47.7H100.7C103.627 47.7 106 45.3271 106 42.4V31.8C106 28.8729 103.627 26.5 100.7 26.5V24.7333C100.7 20.8305 97.5361 17.6667 93.6333 17.6667H88.3333V12.3667C88.3333 5.90067 71.497 0 53 0C34.503 0 17.6667 5.90067 17.6667 12.3667V17.6667H12.3667C8.46385 17.6667 5.3 20.8305 5.3 24.7333V26.5C2.37289 26.5 0 28.8729 0 31.8V42.4C0 45.3271 2.37289 47.7 5.3 47.7ZM102.467 31.8V42.4C102.467 43.3757 101.676 44.1667 100.7 44.1667H97.1667C96.191 44.1667 95.4 43.3757 95.4 42.4V31.8C95.4 30.8243 96.191 30.0333 97.1667 30.0333H100.7C101.676 30.0333 102.467 30.8243 102.467 31.8ZM83.2277 21.2L85.9307 44.1667H54.7667V21.2H83.2277ZM61.8333 17.6667H44.1667V12.3667C44.1667 11.391 44.9576 10.6 45.9333 10.6H60.0667C61.0424 10.6 61.8333 11.391 61.8333 12.3667V17.6667ZM42.4 21.2H51.2333V44.1667H20.0693L22.7723 21.2H42.4ZM31.8 100.7C31.8 101.676 31.009 102.467 30.0333 102.467H22.9667C21.991 102.467 21.2 101.676 21.2 100.7V93.6333H31.8V100.7ZM84.8 100.7C84.8 101.676 84.009 102.467 83.0333 102.467H75.9667C74.991 102.467 74.2 101.676 74.2 100.7V93.6333H84.8V100.7ZM90.1 90.1H15.9V81.2667H38.8667V83.0333C38.8667 84.9847 40.4486 86.5667 42.4 86.5667H63.6C65.5514 86.5667 67.1333 84.9847 67.1333 83.0333V81.2667H90.1V90.1ZM63.6 79.5V83.0333H42.4V75.9667H63.6V79.5ZM67.1333 77.7333V75.9667C67.1333 74.0153 65.5514 72.4333 63.6 72.4333H42.4C40.4486 72.4333 38.8667 74.0153 38.8667 75.9667V77.7333H19.4333V52.682C19.4333 51.0213 19.5393 49.3607 19.6807 47.7H86.3193C86.4607 49.3607 86.5667 51.0213 86.5667 52.682V77.7333H67.1333ZM21.2 12.3667C21.2 10.176 32.4713 3.53333 53 3.53333C73.5287 3.53333 84.8 10.176 84.8 12.3667V17.6667H65.3667V12.3667C65.3667 9.43956 62.9938 7.06667 60.0667 7.06667H45.9333C43.0062 7.06667 40.6333 9.43956 40.6333 12.3667V17.6667H21.2V12.3667ZM3.53333 31.8C3.53333 30.8243 4.3243 30.0333 5.3 30.0333H8.83333C9.80904 30.0333 10.6 30.8243 10.6 31.8V42.4C10.6 43.3757 9.80904 44.1667 8.83333 44.1667H5.3C4.3243 44.1667 3.53333 43.3757 3.53333 42.4V31.8Z" fill="black"/>
<path d="M26.8069 34C27.2844 34.0027 27.7433 33.8151 28.0823 33.4784L33.4716 28.0829C33.9273 27.6267 34.1053 26.9617 33.9385 26.3385C33.7717 25.7153 33.2855 25.2286 32.663 25.0616C32.0406 24.8946 31.3764 25.0728 30.9207 25.529L25.5314 30.9245C25.1913 31.2622 25 31.7219 25 32.2015C25 32.681 25.1913 33.1407 25.5314 33.4784C25.8704 33.8151 26.3294 34.0027 26.8069 34Z" fill="#F5F5F5"/>
<path d="M26.7082 42C27.1596 42.0026 27.5935 41.8253 27.914 41.5072L41.5005 27.9128C41.9313 27.4817 42.0995 26.8535 41.9419 26.2647C41.7842 25.6759 41.3245 25.2159 40.7361 25.0582C40.1476 24.9004 39.5197 25.0687 39.0889 25.4998L25.5024 39.0942C25.1808 39.4132 25 39.8476 25 40.3007C25 40.7538 25.1808 41.1881 25.5024 41.5072C25.8229 41.8253 26.2567 42.0026 26.7082 42Z" fill="#F5F5F5"/>
<path d="M58.5904 33.4686C58.9652 33.8087 59.4754 34 60.0076 34C60.5398 34 61.05 33.8087 61.4248 33.4686L67.413 28.0793C68.1957 27.3748 68.1957 26.2327 67.413 25.5283C66.6303 24.8239 65.3613 24.8239 64.5786 25.5283L58.5904 30.9177C58.2126 31.255 58 31.7141 58 32.1931C58 32.6721 58.2126 33.1313 58.5904 33.4686Z" fill="#F5F5F5"/>
<path d="M58.5319 41.4976C58.8696 41.8192 59.3292 42 59.8086 42C60.2881 42 60.7477 41.8192 61.0854 41.4976L75.4712 27.9111C76.1763 27.2451 76.1763 26.1654 75.4712 25.4995C74.766 24.8335 73.6228 24.8335 72.9177 25.4995L58.5319 39.086C58.1915 39.4049 58 39.839 58 40.2918C58 40.7447 58.1915 41.1787 58.5319 41.4976Z" fill="#F5F5F5"/>
</svg>
