<svg width="81" height="96" viewBox="0 0 81 96" fill="none" xmlns="http://www.w3.org/2000/svg">
<path d="M80.8125 13.932V73.9199C72.2743 87.2013 57.3688 95.9999 40.4062 95.9999C31.8583 95.9999 23.8335 93.7664 16.8844 89.8481C13.3481 87.8594 10.0918 85.4339 7.1865 82.6462C4.46306 80.0345 2.04937 77.1056 0 73.9199V13.932C0 9.78052 3.15431 6.41846 7.04531 6.41846H73.7653C77.6561 6.41846 80.8125 9.78033 80.8125 13.932Z" fill="#F0F0F0"/>
<path d="M80.8125 26.5018H0V33.2936H80.8125V26.5018Z" fill="#D4D4D4"/>
<path d="M80.8125 13.4654V28.5237H0V13.4654C0 9.57253 3.15431 6.41821 7.04531 6.41821H73.7653C77.6561 6.41821 80.8125 9.57253 80.8125 13.4654Z" fill="#EF487D"/>
<path d="M80.8125 16.9921V28.5239H0V16.9921C0 13.0993 3.15431 9.94495 7.04531 9.94495H73.7653C77.6561 9.94495 80.8125 13.0993 80.8125 16.9921Z" fill="#FF668C"/>
<path d="M24.5368 4.31025V11.7433C24.5368 13.5457 23.4298 15.0896 21.8586 15.7322C21.3551 15.9399 20.8044 16.0536 20.2266 16.0536C17.8463 16.0536 15.9163 14.1238 15.9163 11.7433V4.31025C15.9165 1.92975 17.8463 0 20.2268 0C20.8046 0 21.3553 0.113625 21.8588 0.321375C22.3937 0.538875 22.8737 0.860062 23.2753 1.26187C24.0549 2.04337 24.5368 3.12094 24.5368 4.31025Z" fill="#F2AE5A"/>
<path d="M24.5368 4.31016V11.7432C24.5368 13.5457 23.4298 15.0895 21.8586 15.7321C20.2892 15.0895 19.1824 13.5457 19.1824 11.7432V4.31016C19.1824 2.50773 20.2894 0.963852 21.8586 0.321289C22.3935 0.538789 22.8735 0.859977 23.2751 1.26179C24.0549 2.04329 24.5368 3.12085 24.5368 4.31016Z" fill="#F9DF73"/>
<path d="M64.896 4.31025V11.7433C64.896 13.5457 63.789 15.0896 62.2177 15.7322C61.7143 15.9399 61.1636 16.0536 60.5857 16.0536C58.2054 16.0536 56.2755 14.1238 56.2755 11.7433V4.31025C56.2757 1.92975 58.2054 0 60.5857 0C61.1636 0 61.7143 0.113625 62.2177 0.321375C62.7527 0.538875 63.2327 0.860062 63.6343 1.26187C64.4141 2.04337 64.896 3.12094 64.896 4.31025Z" fill="#F2AE5A"/>
<path d="M64.896 4.31016V11.7432C64.896 13.5457 63.789 15.0895 62.2178 15.7321C60.6484 15.0895 59.5416 13.5457 59.5416 11.7432V4.31016C59.5416 2.50773 60.6486 0.963852 62.2178 0.321289C62.7527 0.538789 63.2327 0.859977 63.6343 1.26179C64.4141 2.04329 64.896 3.12085 64.896 4.31016Z" fill="#F9DF73"/>
<path d="M42.6489 49.6301H38.1636C36.4961 49.6301 35.1443 48.2782 35.1443 46.6108V42.1254C35.1443 40.458 36.4961 39.1061 38.1636 39.1061H42.6489C44.3164 39.1061 45.6683 40.458 45.6683 42.1254V46.6108C45.6683 48.2782 44.3164 49.6301 42.6489 49.6301Z" fill="#484B7F"/>
<path d="M56.6736 49.6302H52.1882C50.5208 49.6302 49.1689 48.2783 49.1689 46.6109V42.1255C49.1689 40.4581 50.5208 39.1062 52.1882 39.1062H56.6736C58.341 39.1062 59.6929 40.4581 59.6929 42.1255V46.6109C59.6929 48.2783 58.341 49.6302 56.6736 49.6302Z" fill="#484B7F"/>
<path d="M70.6982 49.6301H66.2128C64.5454 49.6301 63.1935 48.2782 63.1935 46.6108V42.1254C63.1935 40.458 64.5454 39.1061 66.2128 39.1061H70.6982C72.3656 39.1061 73.7175 40.458 73.7175 42.1254V46.6108C73.7175 48.2782 72.3656 49.6301 70.6982 49.6301Z" fill="#EF487D"/>
<path d="M14.5997 63.3846H10.1143C8.44688 63.3846 7.095 62.0327 7.095 60.3653V55.8799C7.095 54.2125 8.44688 52.8606 10.1143 52.8606H14.5997C16.2671 52.8606 17.619 54.2125 17.619 55.8799V60.3653C17.619 62.0329 16.2671 63.3846 14.5997 63.3846Z" fill="#484B7F"/>
<path d="M28.6243 63.3846H24.1389C22.4715 63.3846 21.1196 62.0327 21.1196 60.3653V55.8799C21.1196 54.2125 22.4715 52.8606 24.1389 52.8606H28.6243C30.2918 52.8606 31.6436 54.2125 31.6436 55.8799V60.3653C31.6436 62.0329 30.2918 63.3846 28.6243 63.3846Z" fill="#484B7F"/>
<path d="M42.6489 63.3846H38.1636C36.4961 63.3846 35.1443 62.0327 35.1443 60.3653V55.8799C35.1443 54.2125 36.4961 52.8606 38.1636 52.8606H42.6489C44.3164 52.8606 45.6683 54.2125 45.6683 55.8799V60.3653C45.6683 62.0329 44.3164 63.3846 42.6489 63.3846Z" fill="#484B7F"/>
<path d="M56.6736 63.3846H52.1882C50.5208 63.3846 49.1689 62.0327 49.1689 60.3653V55.8799C49.1689 54.2125 50.5208 52.8606 52.1882 52.8606H56.6736C58.341 52.8606 59.6929 54.2125 59.6929 55.8799V60.3653C59.6929 62.0329 58.341 63.3846 56.6736 63.3846Z" fill="#484B7F"/>
<path d="M70.6982 63.3846H66.2128C64.5454 63.3846 63.1935 62.0327 63.1935 60.3653V55.8799C63.1935 54.2125 64.5454 52.8606 66.2128 52.8606H70.6982C72.3656 52.8606 73.7175 54.2125 73.7175 55.8799V60.3653C73.7175 62.0329 72.3656 63.3846 70.6982 63.3846Z" fill="#EF487D"/>
<path d="M14.5997 77.1395H10.1143C8.44688 77.1395 7.095 75.7876 7.095 74.1202V69.6348C7.095 67.9674 8.44688 66.6155 10.1143 66.6155H14.5997C16.2671 66.6155 17.619 67.9674 17.619 69.6348V74.1202C17.619 75.7876 16.2671 77.1395 14.5997 77.1395Z" fill="#484B7F"/>
<path d="M28.6243 77.139H24.1389C22.4715 77.139 21.1196 75.7871 21.1196 74.1197V69.6343C21.1196 67.9669 22.4715 66.615 24.1389 66.615H28.6243C30.2918 66.615 31.6436 67.9669 31.6436 69.6343V74.1197C31.6436 75.7871 30.2918 77.139 28.6243 77.139Z" fill="#484B7F"/>
<path d="M42.6489 77.139H38.1636C36.4961 77.139 35.1443 75.7871 35.1443 74.1197V69.6343C35.1443 67.9669 36.4961 66.615 38.1636 66.615H42.6489C44.3164 66.615 45.6683 67.9669 45.6683 69.6343V74.1197C45.6683 75.7871 44.3164 77.139 42.6489 77.139Z" fill="#484B7F"/>
<path d="M56.6736 77.139H52.1882C50.5208 77.139 49.1689 75.7871 49.1689 74.1197V69.6343C49.1689 67.9669 50.5208 66.615 52.1882 66.615H56.6736C58.341 66.615 59.6929 67.9669 59.6929 69.6343V74.1197C59.6929 75.7871 58.341 77.139 56.6736 77.139Z" fill="#484B7F"/>
<path d="M70.6982 77.1391H66.2128C64.5454 77.1391 63.1935 75.7872 63.1935 74.1198V69.6344C63.1935 67.967 64.5454 66.6151 66.2128 66.6151H70.6982C72.3656 66.6151 73.7175 67.967 73.7175 69.6344V74.1198C73.7175 75.7872 72.3656 77.1391 70.6982 77.1391Z" fill="#EF487D"/>
<path d="M17.619 83.3889V87.8754C17.619 88.6297 17.3407 89.3193 16.8844 89.8483C13.3481 87.8596 10.0918 85.4341 7.18649 82.6464C7.51762 81.3376 8.70299 80.3698 10.1154 80.3698H14.6001C16.2671 80.3698 17.619 81.7216 17.619 83.3889Z" fill="#484B7F"/>
<path d="M28.6243 90.894H24.1389C22.4715 90.894 21.1196 89.5421 21.1196 87.8747V83.3893C21.1196 81.7219 22.4715 80.37 24.1389 80.37H28.6243C30.2918 80.37 31.6436 81.7219 31.6436 83.3893V87.8747C31.6436 89.5421 30.2918 90.894 28.6243 90.894Z" fill="#484B7F"/>
<path d="M42.6489 90.894H38.1635C36.4961 90.894 35.1442 89.5421 35.1442 87.8747V83.3893C35.1442 81.7219 36.4961 80.37 38.1635 80.37H42.6489C44.3163 80.37 45.6682 81.7219 45.6682 83.3893V87.8747C45.6682 89.5421 44.3163 90.894 42.6489 90.894Z" fill="#484B7F"/>
</svg>
